<?xml version="1.0" encoding="UTF-8"?> <svg xmlns="http://www.w3.org/2000/svg" width="60" height="60" viewBox="0 0 60 60" fill="none"><path d="M17.6953 34.5117H42.3047" stroke="url(#paint0_linear_3568_951)" stroke-width="1.3125" stroke-miterlimit="10" stroke-linecap="round" stroke-linejoin="round"></path><path d="M21.7969 26.3086V34.5117" stroke="url(#paint1_linear_3568_951)" stroke-width="1.3125" stroke-miterlimit="10" stroke-linecap="round" stroke-linejoin="round"></path><path d="M30 22.207V34.5117" stroke="url(#paint2_linear_3568_951)" stroke-width="1.3125" stroke-miterlimit="10" stroke-linecap="round" stroke-linejoin="round"></path><path d="M38.2031 18.1055V34.5117" stroke="url(#paint3_linear_3568_951)" stroke-width="1.3125" stroke-miterlimit="10" stroke-linecap="round" stroke-linejoin="round"></path><path d="M30 54.1992V46.8164H14.0039C9.47342 46.8164 5.80078 43.1438 5.80078 38.6133V14.0039C5.80078 9.47342 9.47342 5.80078 14.0039 5.80078H45.9961C50.5266 5.80078 54.1992 9.47342 54.1992 14.0039V38.6133C54.1992 43.1438 50.5266 46.8164 45.9961 46.8164H27.7031" stroke="url(#paint4_linear_3568_951)" stroke-width="1.3125" stroke-miterlimit="10" stroke-linecap="round" stroke-linejoin="round"></path><path d="M21.7969 54.1992H38.2031" stroke="url(#paint5_linear_3568_951)" stroke-width="1.3125" stroke-miterlimit="10" stroke-linecap="round" stroke-linejoin="round"></path><defs><linearGradient id="paint0_linear_3568_951" x1="30" y1="34.5117" x2="30" y2="35.5117" gradientUnits="userSpaceOnUse"><stop stop-color="#99FF32"></stop><stop offset="1" stop-color="#34CCFF"></stop></linearGradient><linearGradient id="paint1_linear_3568_951" x1="22.2969" y1="26.3086" x2="22.2969" y2="34.5117" gradientUnits="userSpaceOnUse"><stop stop-color="#99FF32"></stop><stop offset="1" stop-color="#34CCFF"></stop></linearGradient><linearGradient id="paint2_linear_3568_951" x1="30.5" y1="22.207" x2="30.5" y2="34.5117" gradientUnits="userSpaceOnUse"><stop stop-color="#99FF32"></stop><stop offset="1" stop-color="#34CCFF"></stop></linearGradient><linearGradient id="paint3_linear_3568_951" x1="38.7031" y1="18.1055" x2="38.7031" y2="34.5117" gradientUnits="userSpaceOnUse"><stop stop-color="#99FF32"></stop><stop offset="1" stop-color="#34CCFF"></stop></linearGradient><linearGradient id="paint4_linear_3568_951" x1="30" y1="5.80078" x2="30" y2="54.1992" gradientUnits="userSpaceOnUse"><stop stop-color="#99FF32"></stop><stop offset="1" stop-color="#34CCFF"></stop></linearGradient><linearGradient id="paint5_linear_3568_951" x1="30" y1="54.1992" x2="30" y2="55.1992" gradientUnits="userSpaceOnUse"><stop stop-color="#99FF32"></stop><stop offset="1" stop-color="#34CCFF"></stop></linearGradient></defs></svg> 