<?xml version="1.0" encoding="UTF-8"?> <svg xmlns="http://www.w3.org/2000/svg" width="1291" height="213" viewBox="0 0 1291 213" fill="none"><g opacity="0.4" clip-path="url(#clip0_3610_475)"><path d="M751.873 1.74485V136.906L639.125 10.6338L637.183 8.68033C635.31 6.80775 633.681 5.17793 631.091 3.58277C625.971 0.427121 612.955 -1.71133 604.621 7.25856C601.13 11.0037 599.443 16.2053 599.443 23.1524V211.231H619.012V23.1524C619.012 21.8231 619.128 20.9908 619.22 20.5169C619.752 20.4013 620.642 20.4244 621.289 20.5516C621.717 20.8868 622.237 21.3954 623.347 22.5166L624.734 23.8922L751.884 166.289V211.231H771.454V1.75642H751.884L751.873 1.74485Z" fill="url(#paint0_linear_3610_475)"></path><path d="M173.645 211.244H154.075V165.365L52.8289 165.493L52.8058 145.923L154.075 145.796V139.45C154.075 132.769 153.532 126.584 152.48 121.059C151.417 115.511 149.926 110.078 148.065 104.9L121.051 41.0815C118.173 34.1229 115.156 28.4243 112.069 24.078C110.486 21.8587 107.018 20.7259 101.759 20.7259H71.9593C66.3646 20.7259 62.6657 21.8933 60.9665 24.2052C57.8109 28.4821 54.9211 33.938 52.3781 40.4458L27.2254 104.888C25.3991 109.928 23.8848 115.441 22.8098 121.059C21.7464 126.584 21.2146 132.769 21.2146 139.45V211.232H1.64502V139.45C1.64502 131.532 2.30389 124.111 3.59851 117.372C4.87002 110.748 6.66169 104.229 8.91572 97.9872L34.1609 33.3253C37.3396 25.2108 41.0617 18.2407 45.223 12.5882C50.806 5.00544 59.799 1.15625 71.9593 1.15625H101.759C113.711 1.15625 122.542 5.05167 128.01 12.7269C131.963 18.2753 135.685 25.2802 139.106 33.5218L166.374 97.9756C168.628 104.194 170.42 110.714 171.703 117.36C172.998 124.099 173.657 131.52 173.657 139.438V211.221L173.645 211.244Z" fill="url(#paint1_linear_3610_475)"></path><path d="M910.004 192.505C908.998 192.505 908.385 192.343 907.507 191.869C905.877 190.979 905.126 188.945 904.825 187.812C904.525 186.691 904.386 185.396 904.386 183.847V116.134H995.218V96.5639H904.386V28.8505C904.386 27.3016 904.525 25.9954 904.825 24.8741C905.126 23.7413 905.865 21.7069 907.507 20.8284C908.397 20.3545 908.998 20.1927 910.027 20.1927L1027.04 20.2158V0.64617L909.9 0.623047C905.646 0.646165 901.924 1.60558 898.19 3.62843C892.191 6.87655 887.833 12.6561 885.926 19.869C885.186 22.6432 884.828 25.5792 884.828 28.8505V183.847C884.828 187.118 885.186 190.054 885.914 192.817C887.822 200.041 892.179 205.809 898.19 209.069C901.924 211.092 905.646 212.051 909.876 212.074H911.437L1027.05 212.051V192.482L910.015 192.505H910.004Z" fill="url(#paint2_linear_3610_475)"></path><path d="M1282.67 47.7041C1286.5 42.1558 1288.77 35.9254 1289.44 29.2442C1290.01 23.8923 1290.29 18.0665 1290.29 11.9055V1.56006H1270.72V11.9055C1270.72 17.3845 1270.46 22.5283 1269.97 27.256C1269.63 30.666 1268.53 33.6829 1266.64 36.4918L1224.85 92.9119V119.96L1266.64 176.369C1268.54 179.166 1269.63 182.195 1269.98 185.662C1270.46 190.332 1270.72 195.476 1270.72 200.955V211.301H1290.29V200.955C1290.29 194.794 1290 188.957 1289.44 183.674C1288.77 176.935 1286.48 170.705 1282.67 165.157L1239.18 106.448L1282.47 48.0047L1282.67 47.7272V47.7041Z" fill="url(#paint3_linear_3610_475)"></path><path d="M1183.72 92.8891L1141.94 36.469C1140.03 33.6717 1138.94 30.6432 1138.6 27.187C1138.11 22.5171 1137.86 17.3733 1137.86 11.8943V1.54883H1118.29V11.8943C1118.29 18.0553 1118.57 23.8927 1119.13 29.1752C1119.8 35.9142 1122.09 42.1445 1125.9 47.6929L1169.39 106.413L1126.1 164.856L1125.9 165.134C1122.08 170.682 1119.8 176.913 1119.13 183.605C1118.56 188.946 1118.29 194.783 1118.29 200.944V211.289H1137.86V200.944C1137.86 195.465 1138.11 190.321 1138.61 185.593C1138.94 182.184 1140.04 179.155 1141.94 176.358L1183.72 119.949V92.9007V92.8891Z" fill="url(#paint4_linear_3610_475)"></path><path d="M486.123 211.243H466.554V23.1757C466.554 21.7077 466.415 20.8523 466.311 20.4131C465.953 20.3206 464.889 20.4015 464.392 20.4824C464.288 20.598 463.976 21.0026 463.525 21.8695L403.383 156.834L402.875 157.747C398.621 164.995 390.946 167.237 385.79 167.006C377.514 166.648 372.093 161.319 369.977 156.869L309.766 21.8695C309.326 21.0257 309.014 20.6211 308.899 20.4709C308.402 20.39 307.338 20.309 306.98 20.4015C306.876 20.8408 306.737 21.7077 306.737 23.1641V211.231H287.168V23.1641C287.168 16.2055 288.867 11.0039 292.358 7.25877C296.311 3.02812 301.536 0.797215 307.465 0.797215C310.112 0.797215 315.129 1.16711 318.932 3.65232C321.44 5.24749 324.55 7.70958 327.336 13.2926L327.521 13.6741L386.634 146.211L445.921 13.2926C448.707 7.69802 451.816 5.23592 454.209 3.72168C458.127 1.15555 463.144 0.785645 465.791 0.785645C471.721 0.785645 476.945 3.01657 480.899 7.24722C484.401 10.9924 486.1 16.2055 486.1 23.1641V211.231L486.123 211.243Z" fill="url(#paint5_linear_3610_475)"></path></g><defs><linearGradient id="paint0_linear_3610_475" x1="685.448" y1="0.85498" x2="685.448" y2="211.231" gradientUnits="userSpaceOnUse"><stop stop-color="white"></stop><stop offset="1" stop-color="#020F50"></stop></linearGradient><linearGradient id="paint1_linear_3610_475" x1="87.6508" y1="1.15625" x2="87.6508" y2="211.244" gradientUnits="userSpaceOnUse"><stop stop-color="white"></stop><stop offset="1" stop-color="#020F50"></stop></linearGradient><linearGradient id="paint2_linear_3610_475" x1="955.94" y1="0.623047" x2="955.94" y2="212.074" gradientUnits="userSpaceOnUse"><stop stop-color="white"></stop><stop offset="1" stop-color="#020F50"></stop></linearGradient><linearGradient id="paint3_linear_3610_475" x1="1257.57" y1="1.56006" x2="1257.57" y2="211.301" gradientUnits="userSpaceOnUse"><stop stop-color="white"></stop><stop offset="1" stop-color="#020F50"></stop></linearGradient><linearGradient id="paint4_linear_3610_475" x1="1151" y1="1.54883" x2="1151" y2="211.289" gradientUnits="userSpaceOnUse"><stop stop-color="white"></stop><stop offset="1" stop-color="#020F50"></stop></linearGradient><linearGradient id="paint5_linear_3610_475" x1="386.645" y1="0.785645" x2="386.645" y2="211.243" gradientUnits="userSpaceOnUse"><stop stop-color="white"></stop><stop offset="1" stop-color="#020F50"></stop></linearGradient><clipPath id="clip0_3610_475"><rect width="1290" height="212.688" fill="white" transform="translate(0.978516)"></rect></clipPath></defs></svg> 