<?xml version="1.0" encoding="UTF-8"?> <svg xmlns="http://www.w3.org/2000/svg" width="60" height="60" viewBox="0 0 60 60" fill="none"><g clip-path="url(#clip0_2024_1462)"><path d="M30 20.625C32.0711 20.625 33.75 18.9461 33.75 16.875C33.75 14.8039 32.0711 13.125 30 13.125C27.9289 13.125 26.25 14.8039 26.25 16.875C26.25 18.9461 27.9289 20.625 30 20.625Z" stroke="white" stroke-width="1.5" stroke-linecap="round" stroke-linejoin="round"></path><path d="M33.75 35.625C35.8211 35.625 37.5 33.9461 37.5 31.875C37.5 29.8039 35.8211 28.125 33.75 28.125C31.6789 28.125 30 29.8039 30 31.875C30 33.9461 31.6789 35.625 33.75 35.625Z" stroke="white" stroke-width="1.5" stroke-linecap="round" stroke-linejoin="round"></path><path d="M28.1247 50.625H16.8747C16.3774 50.625 15.9005 50.4275 15.5488 50.0758C15.1972 49.7242 14.9997 49.2473 14.9997 48.75V40.268L8.53559 37.3078C8.10848 37.0937 7.77919 36.7247 7.61497 36.276C7.45076 35.8274 7.464 35.333 7.652 34.8938L13.1247 24.375C13.1247 21.1789 13.9416 18.0359 15.498 15.2444C17.0544 12.4529 19.2985 10.1056 22.0172 8.4253C24.7359 6.74503 27.839 5.78761 31.0319 5.64395C34.2247 5.5003 37.4013 6.17517 40.2599 7.60449C43.1186 9.03382 45.5644 11.1701 47.3652 13.8106C49.1659 16.4511 50.2619 19.508 50.5489 22.6911C50.8359 25.8743 50.3045 29.078 49.0051 31.998C47.7057 34.918 45.6815 37.4574 43.1247 39.375L44.9997 54.375" stroke="white" stroke-width="1.5" stroke-linecap="round" stroke-linejoin="round"></path><path d="M30 13.1249V5.71631" stroke="white" stroke-width="1.5" stroke-linecap="round" stroke-linejoin="round"></path><path d="M50.2452 20.625H43.1249L36.1499 28.9945" stroke="white" stroke-width="1.5" stroke-linecap="round" stroke-linejoin="round"></path></g><defs><clipPath id="clip0_2024_1462"><rect width="60" height="60" fill="white"></rect></clipPath></defs></svg> 