<?xml version="1.0" encoding="UTF-8"?> <svg xmlns="http://www.w3.org/2000/svg" width="60" height="60" viewBox="0 0 60 60" fill="none"><path fill-rule="evenodd" clip-rule="evenodd" d="M33.2054 8.58399C24.9996 7.42092 15.5582 11.4244 8.99955 24.7103C8.64991 25.4186 7.7922 25.7094 7.08385 25.3597C6.37557 25.01 6.08477 24.1523 6.43447 23.444C13.4234 9.28645 23.9357 4.38095 33.6068 5.75168C43.1309 7.10162 51.4721 14.5131 54.24 24.1935C54.4572 24.953 54.0175 25.7447 53.258 25.9619C52.4985 26.1791 51.7068 25.7394 51.4896 24.9799C49.0172 16.3329 41.5582 9.76792 33.2054 8.58399Z" fill="white"></path><path fill-rule="evenodd" clip-rule="evenodd" d="M4.63247 15.9284C5.41022 15.7903 6.1527 16.3089 6.29075 17.0867L7.60325 24.4802L14.9951 23.168C15.7729 23.0299 16.5153 23.5485 16.6534 24.3262C16.7915 25.104 16.2729 25.8464 15.4951 25.9846L7.8216 27.3468C7.81091 27.3487 7.80001 27.3506 7.78904 27.3526C7.62126 27.3824 7.42098 27.4181 7.2419 27.435C7.03444 27.4546 6.73389 27.4637 6.39922 27.3618C5.96583 27.2298 5.58525 26.964 5.31218 26.6025C5.10128 26.3233 5.00642 26.038 4.95341 25.8365C4.90764 25.6626 4.87216 25.4622 4.84243 25.2944C4.84054 25.2835 4.83857 25.2726 4.83668 25.2619L3.47416 17.5867C3.33609 16.8089 3.85467 16.0665 4.63247 15.9284Z" fill="white"></path><path fill-rule="evenodd" clip-rule="evenodd" d="M26.1042 51.6969C34.31 52.86 43.7514 48.8566 50.3101 35.5707C50.6598 34.8624 51.5174 34.5716 52.2258 34.9213C52.9341 35.2709 53.2248 36.1286 52.8751 36.837C45.8862 50.9945 35.3739 55.9 25.7028 54.5293C16.1787 53.1794 7.83751 45.7678 5.06965 36.0875C4.85245 35.3279 5.29214 34.5362 6.05161 34.319C6.81114 34.1019 7.60284 34.5415 7.82004 35.301C10.2925 43.948 17.7514 50.5131 26.1042 51.6969Z" fill="white"></path><path fill-rule="evenodd" clip-rule="evenodd" d="M55.3332 44.3458C54.573 44.5605 53.7827 44.1182 53.5681 43.358L51.5276 36.1314L44.3028 38.1714C43.5425 38.386 42.7522 37.9438 42.5376 37.1835C42.3229 36.4233 42.7652 35.6331 43.5254 35.4184L51.0256 33.3007C51.0361 33.2978 51.0467 33.2947 51.0575 33.2917C51.2215 33.2454 51.4173 33.19 51.5937 33.1554C51.7982 33.1152 52.0964 33.0763 52.4395 33.1445C52.8839 33.2327 53.289 33.4594 53.5966 33.792C53.8341 34.0488 53.9569 34.3233 54.0297 34.5186C54.0925 34.6871 54.1477 34.883 54.1939 35.0469C54.197 35.0577 54.2 35.0683 54.2029 35.0788L56.3211 42.5807C56.5358 43.3409 56.0934 44.1311 55.3332 44.3458Z" fill="white"></path><path fill-rule="evenodd" clip-rule="evenodd" d="M33.6304 42.7198C34.2155 42.1892 34.2597 41.2846 33.729 40.6995L27.271 33.579H28.9854C32.5049 33.579 35.3583 30.7258 35.3583 27.2061C35.3583 25.9082 34.9703 24.7009 34.3039 23.6939H37.3963C38.1863 23.6939 38.8266 23.0535 38.8266 22.2636C38.8266 21.4736 38.1863 20.8333 37.3963 20.8333H22.8278C22.0378 20.8333 21.3975 21.4736 21.3975 22.2636C21.3975 23.0535 22.0378 23.6939 22.8278 23.6939H28.9854C30.9251 23.6939 32.4977 25.2664 32.4977 27.2061C32.4977 29.1458 30.9251 30.7184 28.9854 30.7184H24.0428C23.4769 30.7184 22.9643 31.0519 22.7351 31.5693C22.5059 32.0866 22.6032 32.6904 22.9834 33.1095L31.61 42.6213C32.1407 43.2064 33.0453 43.2505 33.6304 42.7198Z" fill="white"></path><path fill-rule="evenodd" clip-rule="evenodd" d="M21.3975 27.2062C21.3975 27.9961 22.0378 28.6365 22.8278 28.6365H37.3963C38.1863 28.6365 38.8266 27.9961 38.8266 27.2062C38.8266 26.4163 38.1863 25.7759 37.3963 25.7759H22.8278C22.0378 25.7759 21.3975 26.4163 21.3975 27.2062Z" fill="white"></path></svg> 