<?xml version="1.0" encoding="UTF-8"?> <svg xmlns="http://www.w3.org/2000/svg" width="60" height="60" viewBox="0 0 60 60" fill="none"><path d="M40.6322 34.753V22.5347L30.051 16.4257L19.4697 22.5347V34.753L30.051 40.862L40.6322 34.753Z" stroke="white" stroke-width="1.5" stroke-miterlimit="10"></path><path d="M47.5007 15.6032L30.0511 5.52881L12.5244 15.6478" stroke="white" stroke-width="1.5" stroke-miterlimit="10"></path><path d="M32.4966 50.3471L50.0695 40.2014V20.0056" stroke="white" stroke-width="1.5" stroke-miterlimit="10"></path><path d="M10.033 20.0056V40.2014L27.3867 50.2206" stroke="white" stroke-width="1.5" stroke-miterlimit="10"></path><path d="M9.9302 20.0057C11.5598 20.0057 12.8809 18.6846 12.8809 17.055C12.8809 15.4253 11.5598 14.1042 9.9302 14.1042C8.30057 14.1042 6.97949 15.4253 6.97949 17.055C6.97949 18.6846 8.30057 20.0057 9.9302 20.0057Z" stroke="white" stroke-width="1.5" stroke-miterlimit="10"></path><path d="M50.0694 20.0057C51.699 20.0057 53.0201 18.6846 53.0201 17.055C53.0201 15.4253 51.699 14.1042 50.0694 14.1042C48.4397 14.1042 47.1187 15.4253 47.1187 17.055C47.1187 18.6846 48.4397 20.0057 50.0694 20.0057Z" stroke="white" stroke-width="1.5" stroke-miterlimit="10"></path><path d="M29.9048 54.7095C31.5344 54.7095 32.8555 53.3884 32.8555 51.7588C32.8555 50.1292 31.5344 48.8081 29.9048 48.8081C28.2752 48.8081 26.9541 50.1292 26.9541 51.7588C26.9541 53.3884 28.2752 54.7095 29.9048 54.7095Z" stroke="white" stroke-width="1.5" stroke-miterlimit="10"></path><path d="M19.4697 22.5348L30.051 28.6439L40.6322 22.5348" stroke="white" stroke-width="1.5" stroke-miterlimit="10"></path><path d="M30.051 28.6438V40.862" stroke="white" stroke-width="1.5" stroke-miterlimit="10"></path></svg> 