<?xml version="1.0" encoding="UTF-8"?> <svg xmlns="http://www.w3.org/2000/svg" width="60" height="60" viewBox="0 0 60 60" fill="none"><path d="M22.9688 40.6641V51.2109" stroke="white" stroke-width="1.5" stroke-miterlimit="10"></path><path d="M37.0312 40.6641V51.2109" stroke="white" stroke-width="1.5" stroke-miterlimit="10"></path><path d="M22.9688 58.2422C24.9104 58.2422 26.4844 56.6682 26.4844 54.7266C26.4844 52.7849 24.9104 51.2109 22.9688 51.2109C21.0271 51.2109 19.4531 52.7849 19.4531 54.7266C19.4531 56.6682 21.0271 58.2422 22.9688 58.2422Z" stroke="white" stroke-width="1.5" stroke-miterlimit="10"></path><path d="M8.90625 58.2422C10.8479 58.2422 12.4219 56.6682 12.4219 54.7266C12.4219 52.7849 10.8479 51.2109 8.90625 51.2109C6.96462 51.2109 5.39062 52.7849 5.39062 54.7266C5.39062 56.6682 6.96462 58.2422 8.90625 58.2422Z" stroke="white" stroke-width="1.5" stroke-miterlimit="10"></path><path d="M37.0312 58.2422C38.9729 58.2422 40.5469 56.6682 40.5469 54.7266C40.5469 52.7849 38.9729 51.2109 37.0312 51.2109C35.0896 51.2109 33.5156 52.7849 33.5156 54.7266C33.5156 56.6682 35.0896 58.2422 37.0312 58.2422Z" stroke="white" stroke-width="1.5" stroke-miterlimit="10"></path><path d="M51.0938 58.2422C53.0354 58.2422 54.6094 56.6682 54.6094 54.7266C54.6094 52.7849 53.0354 51.2109 51.0938 51.2109C49.1521 51.2109 47.5781 52.7849 47.5781 54.7266C47.5781 56.6682 49.1521 58.2422 51.0938 58.2422Z" stroke="white" stroke-width="1.5" stroke-miterlimit="10"></path><path d="M8.90625 51.2109V40.6641H51.0938V51.2109" stroke="white" stroke-width="1.5" stroke-miterlimit="10"></path><path d="M30 40.6641V33.6328" stroke="white" stroke-width="1.5" stroke-miterlimit="10"></path><path d="M44.0584 15.4928C43.8843 7.87758 37.657 1.75781 30 1.75781C22.343 1.75781 16.1157 7.87758 15.9416 15.4928C11.9055 16.4663 8.90625 20.0986 8.90625 24.4336C8.90625 29.5141 13.0249 33.6328 18.1055 33.6328H41.8945C46.9751 33.6328 51.0938 29.5141 51.0938 24.4336C51.0938 20.0986 48.0945 16.4663 44.0584 15.4928Z" stroke="white" stroke-width="1.5" stroke-miterlimit="10"></path></svg> 