<?xml version="1.0" encoding="UTF-8"?> <svg xmlns="http://www.w3.org/2000/svg" width="60" height="60" viewBox="0 0 60 60" fill="none"><g clip-path="url(#clip0_2024_1459)"><path d="M7.93296 36C6.81035 29.9107 7.88747 23.6187 10.9704 18.2564C14.0534 12.8942 18.9398 8.8139 24.75 6.75V26.25L7.93296 36Z" stroke="white" stroke-width="1.5" stroke-linecap="round" stroke-linejoin="round"></path><path d="M29.9997 30.0984V7.5C33.9418 7.50059 37.8145 8.53687 41.2301 10.5051C44.6457 12.4732 47.4842 15.3043 49.4614 18.7146C51.4387 22.125 52.4852 25.9949 52.4963 29.937C52.5073 33.8791 51.4824 37.7548 49.5243 41.1762C47.5662 44.5976 44.7436 47.4444 41.3391 49.4317C37.9346 51.419 34.0677 52.477 30.1257 52.4996C26.1837 52.5223 22.3049 51.5089 18.8778 49.5609C15.4506 47.6129 12.5955 44.7986 10.5981 41.4L29.9997 30.0984Z" stroke="white" stroke-width="1.5" stroke-linecap="round" stroke-linejoin="round"></path></g><defs><clipPath id="clip0_2024_1459"><rect width="60" height="60" fill="white"></rect></clipPath></defs></svg> 