<?xml version="1.0" encoding="UTF-8"?> <svg xmlns="http://www.w3.org/2000/svg" width="24" height="24" viewBox="0 0 24 24" fill="none"><rect width="24" height="24" rx="12" fill="white"></rect><path d="M17.4 12.0001C17.4 9.0301 14.97 6.6001 12 6.6001C9.02998 6.6001 6.59998 9.0301 6.59998 12.0001C6.59998 14.7001 8.55748 16.9276 11.1225 17.3326V13.5526H9.77248V12.0001H11.1225V10.7851C11.1225 9.4351 11.9325 8.6926 13.1475 8.6926C13.755 8.6926 14.3625 8.8276 14.3625 8.8276V10.1776H13.6875C13.0125 10.1776 12.81 10.5826 12.81 10.9876V12.0001H14.295L14.025 13.5526H12.7425V17.4001C15.4425 16.9951 17.4 14.7001 17.4 12.0001Z" fill="black"></path></svg> 