<?xml version="1.0" encoding="UTF-8"?> <svg xmlns="http://www.w3.org/2000/svg" width="60" height="60" viewBox="0 0 60 60" fill="none"><g clip-path="url(#clip0_3568_960)"><path d="M7.5 30H52.5" stroke="url(#paint0_linear_3568_960)" stroke-width="1.5" stroke-linecap="round" stroke-linejoin="round"></path><path d="M30 52.5C42.4264 52.5 52.5 42.4264 52.5 30C52.5 17.5736 42.4264 7.5 30 7.5C17.5736 7.5 7.5 17.5736 7.5 30C7.5 42.4264 17.5736 52.5 30 52.5Z" stroke="url(#paint1_linear_3568_960)" stroke-width="1.5" stroke-linecap="round" stroke-linejoin="round"></path><path d="M39.375 30C39.375 45 30 52.5 30 52.5C30 52.5 20.625 45 20.625 30C20.625 15 30 7.5 30 7.5C30 7.5 39.375 15 39.375 30Z" stroke="url(#paint2_linear_3568_960)" stroke-width="1.5" stroke-linecap="round" stroke-linejoin="round"></path><g clip-path="url(#clip1_3568_960)"><path d="M37.1565 51.3595C36.7421 50.6457 36.4246 49.8799 36.2124 49.0823L37.7855 47.1135C37.7677 46.8125 37.7677 46.5108 37.7855 46.2098L36.2133 44.241C36.4252 43.4433 36.742 42.6772 37.1555 41.9629L39.6596 41.6816C39.8596 41.4564 40.0727 41.2432 40.298 41.0432L40.5793 38.5401C41.2926 38.1285 42.0574 37.8136 42.8537 37.6035L44.8224 39.1766C45.1234 39.1588 45.4252 39.1588 45.7262 39.1766L47.6949 37.6045C48.4926 37.8163 49.2587 38.1331 49.973 38.5466L50.2543 41.0507C50.4796 41.2507 50.6928 41.4639 50.8927 41.6891L53.3958 41.9704C53.8102 42.6842 54.1277 43.45 54.3399 44.2476L52.7668 46.2163C52.7846 46.5173 52.7846 46.8191 52.7668 47.1201L54.339 49.0888C54.1286 49.8863 53.8134 50.6524 53.4015 51.367L50.8974 51.6482C50.6974 51.8735 50.4843 52.0867 50.259 52.2866L49.9777 54.7898C49.2639 55.2042 48.4981 55.5216 47.7005 55.7338L45.7318 54.1607C45.4308 54.1785 45.129 54.1785 44.828 54.1607L42.8593 55.7329C42.0618 55.5226 41.2957 55.2073 40.5812 54.7954L40.2999 52.2913C40.0746 52.0914 39.8614 51.8782 39.6615 51.6529L37.1565 51.3595Z" fill="black" stroke="url(#paint3_linear_3568_960)" stroke-width="1.5" stroke-linecap="round" stroke-linejoin="round"></path><path d="M45.2725 50.4135C47.3435 50.4135 49.0225 48.7345 49.0225 46.6635C49.0225 44.5924 47.3435 42.9135 45.2725 42.9135C43.2014 42.9135 41.5225 44.5924 41.5225 46.6635C41.5225 48.7345 43.2014 50.4135 45.2725 50.4135Z" stroke="url(#paint4_linear_3568_960)" stroke-width="1.5" stroke-linecap="round" stroke-linejoin="round"></path></g></g><defs><linearGradient id="paint0_linear_3568_960" x1="30" y1="30" x2="30" y2="31" gradientUnits="userSpaceOnUse"><stop stop-color="#99FF32"></stop><stop offset="1" stop-color="#34CCFF"></stop></linearGradient><linearGradient id="paint1_linear_3568_960" x1="30" y1="7.5" x2="30" y2="52.5" gradientUnits="userSpaceOnUse"><stop stop-color="#99FF32"></stop><stop offset="1" stop-color="#34CCFF"></stop></linearGradient><linearGradient id="paint2_linear_3568_960" x1="30" y1="7.5" x2="30" y2="52.5" gradientUnits="userSpaceOnUse"><stop stop-color="#99FF32"></stop><stop offset="1" stop-color="#34CCFF"></stop></linearGradient><linearGradient id="paint3_linear_3568_960" x1="45.2762" y1="37.6035" x2="45.2762" y2="55.7338" gradientUnits="userSpaceOnUse"><stop stop-color="#99FF32"></stop><stop offset="1" stop-color="#34CCFF"></stop></linearGradient><linearGradient id="paint4_linear_3568_960" x1="45.2725" y1="42.9135" x2="45.2725" y2="50.4135" gradientUnits="userSpaceOnUse"><stop stop-color="#99FF32"></stop><stop offset="1" stop-color="#34CCFF"></stop></linearGradient><clipPath id="clip0_3568_960"><rect width="60" height="60" fill="white"></rect></clipPath><clipPath id="clip1_3568_960"><rect width="24" height="24" fill="white" transform="translate(33.2725 34.6635)"></rect></clipPath></defs></svg> 