<?xml version="1.0" encoding="UTF-8"?> <svg xmlns="http://www.w3.org/2000/svg" width="24" height="24" viewBox="0 0 24 24" fill="none"><rect width="24" height="24" rx="12" fill="white"></rect><g clip-path="url(#clip0_3657_522)"><path d="M12.0026 10.02C10.9096 10.02 10.0219 10.9078 10.0219 12.0007C10.0219 13.0937 10.9096 13.9836 12.0026 13.9836C13.0956 13.9836 13.9855 13.0937 13.9855 12.0007C13.9855 10.9078 13.0956 10.02 12.0026 10.02Z" fill="black"></path><path d="M14.9894 6.6001H9.01057C7.68217 6.6001 6.60001 7.68226 6.60001 9.01066V14.9895C6.60001 16.3201 7.68217 17.4001 9.01057 17.4001H14.9894C16.32 17.4001 17.4 16.3201 17.4 14.9895V9.01066C17.4 7.68226 16.32 6.6001 14.9894 6.6001ZM12 15.4993C10.0711 15.4993 8.50081 13.929 8.50081 12.0001C8.50081 10.0712 10.0711 8.50306 12 8.50306C13.9289 8.50306 15.4992 10.0712 15.4992 12.0001C15.4992 13.929 13.9289 15.4993 12 15.4993ZM15.5726 9.1381C15.1644 9.1381 14.8318 8.80762 14.8318 8.39938C14.8318 7.99114 15.1644 7.6585 15.5726 7.6585C15.9809 7.6585 16.3135 7.99114 16.3135 8.39938C16.3135 8.80762 15.9809 9.1381 15.5726 9.1381Z" fill="black"></path></g><defs><clipPath id="clip0_3657_522"><rect width="10.8" height="10.8" fill="white" transform="translate(6.60001 6.6001)"></rect></clipPath></defs></svg> 