<?xml version="1.0" encoding="UTF-8"?> <svg xmlns="http://www.w3.org/2000/svg" width="60" height="60" viewBox="0 0 60 60" fill="none"><path d="M21.2293 26.0272C21.3624 26.2125 21.5601 26.3399 21.7825 26.3835C22.0049 26.4271 22.2354 26.3838 22.4274 26.2622C22.6131 26.1274 22.7407 25.9258 22.784 25.6988C22.8272 25.4718 22.7828 25.2367 22.6599 25.0419C22.305 24.4933 21.8459 24.0215 21.3093 23.6536C20.7727 23.2858 20.1692 23.0293 19.5338 22.899C18.8985 22.7686 18.2438 22.7671 17.6079 22.8944C16.9719 23.0217 16.3672 23.2754 15.8289 23.6407C15.6961 23.7903 15.6163 23.9805 15.6023 24.1811C15.5883 24.3817 15.6409 24.5812 15.7517 24.7482C15.8625 24.9152 16.0252 25.0401 16.2141 25.1031C16.403 25.1661 16.6072 25.1636 16.7946 25.0961C17.1458 24.8614 17.5394 24.6993 17.9529 24.619C18.3663 24.5388 18.7914 24.542 19.2036 24.6286C19.6158 24.7151 20.007 24.8833 20.3546 25.1233C20.7023 25.3633 20.9996 25.6705 21.2293 26.0272Z" fill="white"></path><path d="M17.4123 37.9431C17.0057 37.8622 16.6197 37.7047 16.2765 37.4795C15.9334 37.2544 15.6398 36.9661 15.4127 36.6312C15.1857 36.2964 15.0296 35.9215 14.9534 35.5283C14.8773 35.1351 14.8826 34.7313 14.9691 34.3401C14.9446 34.1589 14.8602 33.9903 14.7284 33.859C14.5966 33.7277 14.4244 33.6409 14.2373 33.6113C14.0502 33.5817 13.8582 33.611 13.6898 33.6949C13.5213 33.7787 13.3854 33.9125 13.3022 34.0766C13.1711 34.6801 13.1657 35.3026 13.2863 35.9081C13.407 36.5135 13.6512 37.0899 14.0048 37.6037C14.3584 38.1176 14.8145 38.5586 15.3464 38.9013C15.8783 39.244 16.4756 39.4815 17.1036 39.6001H17.2712C17.4614 39.5677 17.6353 39.4761 17.7662 39.3392C17.8972 39.2024 17.9778 39.0279 17.9959 38.8426C18.0139 38.6573 17.9683 38.4714 17.866 38.3135C17.7638 38.1556 17.6106 38.0344 17.4299 37.9686L17.4123 37.9431Z" fill="white"></path><path d="M22.0824 34.4641C22.0967 34.3455 22.0813 34.2255 22.0372 34.1133C21.9932 34.0011 21.9218 33.8998 21.8285 33.8171C21.7351 33.7345 21.6224 33.6727 21.4991 33.6366C21.3757 33.6005 21.245 33.591 21.1171 33.6089C20.9891 33.6268 20.8673 33.6716 20.7611 33.7398C20.655 33.8081 20.5673 33.8979 20.5048 34.0024C20.4423 34.1069 20.4067 34.2232 20.4008 34.3424C20.3949 34.4615 20.4188 34.5804 20.4706 34.6897C20.6154 35.7113 21.1568 36.6499 21.9945 37.332C22.8322 38.0141 23.9096 38.3934 25.0273 38.3998C25.253 38.4023 25.4787 38.3893 25.7024 38.3609C25.9143 38.3265 26.104 38.2188 26.2326 38.0597C26.3612 37.9007 26.4191 37.7024 26.3943 37.5053C26.357 37.3099 26.2401 37.1351 26.0676 37.0165C25.895 36.898 25.6799 36.8447 25.4661 36.8675C24.6716 36.9623 23.8688 36.7624 23.2343 36.3117C22.5997 35.861 22.1854 35.1964 22.0824 34.4641Z" fill="white"></path><path d="M53.3648 35.6572C52.7069 35.6588 52.0676 35.8735 51.5446 36.2686C51.0217 36.6637 50.6439 37.2174 50.4691 37.845H47.7053L43.5143 33.0858C43.4381 33.0022 43.3453 32.9352 43.2416 32.8888C43.138 32.8425 43.0258 32.8178 42.912 32.8164H31.7497V31.2899V27.2083H42.912C43.0258 27.2069 43.138 27.1822 43.2416 27.1359C43.3453 27.0895 43.4381 27.0224 43.5143 26.9389L47.7053 22.1797H50.4691C50.6628 22.877 51.1055 23.4812 51.7152 23.8801C52.3248 24.279 53.06 24.4455 53.7843 24.3488C54.5087 24.2521 55.173 23.8987 55.654 23.3542C56.135 22.8097 56.4001 22.1111 56.4001 21.3879C56.4001 20.6647 56.135 19.966 55.654 19.4215C55.173 18.877 54.5087 18.5237 53.7843 18.427C53.06 18.3303 52.3248 18.4968 51.7152 18.8957C51.1055 19.2946 50.6628 19.8987 50.4691 20.596H47.3423C47.2286 20.5974 47.1164 20.6221 47.0127 20.6684C46.9091 20.7148 46.8162 20.7819 46.74 20.8654L42.549 25.6246H31.7497V22.6532H42.2108C42.3257 22.6539 42.4393 22.6294 42.5435 22.5814C42.6476 22.5334 42.7397 22.4631 42.813 22.3756L45.7335 18.9797C45.8585 18.8372 45.9261 18.6541 45.9233 18.4654V15.3063C46.6213 15.1147 47.2254 14.6794 47.6239 14.0809C48.0224 13.4824 48.1881 12.7613 48.0905 12.0512C47.9928 11.341 47.6383 10.69 47.0927 10.2186C46.5471 9.74724 45.8474 9.4875 45.123 9.4875C44.3987 9.4875 43.699 9.74724 43.1534 10.2186C42.6078 10.69 42.2533 11.341 42.1556 12.0512C42.058 12.7613 42.2237 13.4824 42.6222 14.0809C43.0206 14.6794 43.6248 15.1147 44.3228 15.3063V18.196L41.8478 21.0695H31.7497V17.2818H35.4045C35.5368 17.2825 35.6673 17.2517 35.785 17.192C35.9028 17.1323 36.0043 17.0455 36.081 16.9389L37.104 15.3063C37.3718 15.3865 37.6493 15.4304 37.929 15.4369C38.5259 15.4401 39.1103 15.2682 39.6084 14.9429C40.1066 14.6177 40.4962 14.1536 40.7279 13.6094C40.9597 13.0652 41.0233 12.4652 40.9107 11.8853C40.798 11.3053 40.5142 10.7714 40.095 10.351C39.6759 9.93054 39.1402 9.64244 38.5557 9.52308C37.9712 9.40372 37.364 9.45844 36.8109 9.68033C36.2578 9.90222 35.7835 10.2813 35.4481 10.7698C35.1126 11.2582 34.9309 11.8341 34.926 12.4246C34.9294 13.1766 35.2248 13.8985 35.751 14.441L34.926 15.6981H31.7497V9.68178C31.7497 9.64097 31.7497 9.61648 31.7497 9.58382C31.7578 9.52696 31.7578 9.46926 31.7497 9.4124C31.2731 8.05858 30.3806 6.88611 29.1972 6.05908C28.0137 5.23206 26.5985 4.79188 25.1497 4.80016C23.8087 4.80991 22.4986 5.19949 21.3743 5.92281C20.25 6.64614 19.3585 7.67295 18.8055 8.88178C17.7648 8.56064 16.6625 8.48602 15.5874 8.66395C14.5123 8.84188 13.4945 9.26738 12.6161 9.90611C11.7378 10.5448 11.0234 11.3789 10.5308 12.3411C10.0381 13.3032 9.78092 14.3664 9.77993 15.445C9.77597 16.0775 9.8649 16.7072 10.0439 17.3144C9.06268 17.6257 8.16314 18.1478 7.40976 18.8434C6.65638 19.539 6.0678 20.3909 5.68619 21.338C5.30459 22.2851 5.13939 23.304 5.20245 24.3217C5.2655 25.3394 5.55524 26.3307 6.05091 27.2246C5.17229 27.9003 4.48875 28.7929 4.06892 29.8127C3.64908 30.8324 3.50771 31.9435 3.659 33.0344C3.81029 34.1253 4.24892 35.1576 4.93086 36.0278C5.61279 36.898 6.51405 37.5753 7.54417 37.9919C6.91353 38.9794 6.54666 40.1092 6.47796 41.2753C6.40925 42.4414 6.64096 43.6057 7.15136 44.659C7.66176 45.7123 8.43413 46.6201 9.39605 47.2973C10.358 47.9745 11.4779 48.3989 12.6509 48.5307C12.6924 49.5836 13.0011 50.6093 13.5485 51.5131C14.0959 52.417 14.8645 53.1699 15.7834 53.7026C16.7022 54.2353 17.7418 54.5305 18.8063 54.5611C19.8708 54.5917 20.9259 54.3566 21.8745 53.8776C22.9888 54.7384 24.363 55.2041 25.7767 55.2C27.0613 55.194 28.3142 54.8053 29.3722 54.0846C30.4303 53.3638 31.2444 52.3444 31.7085 51.1592C31.7158 51.0968 31.7158 51.0338 31.7085 50.9715C31.7125 50.9389 31.7125 50.906 31.7085 50.8735V44.3429H34.926L35.751 45.6C35.2248 46.1425 34.9294 46.8644 34.926 47.6164C34.9244 48.2076 35.1001 48.7861 35.4309 49.2785C35.7617 49.7709 36.2327 50.1551 36.7843 50.3825C37.3359 50.6099 37.9433 50.6702 38.5295 50.5559C39.1158 50.4415 39.6546 50.1576 40.0777 49.7401C40.5008 49.3226 40.7892 48.7902 40.9064 48.2104C41.0236 47.6306 40.9643 47.0295 40.736 46.4831C40.5077 45.9366 40.1207 45.4695 39.6239 45.1409C39.1272 44.8122 38.5431 44.6368 37.9455 44.6368C37.6658 44.6432 37.3883 44.6871 37.1205 44.7674L36.081 43.0613C36.008 42.9486 35.9081 42.8554 35.7901 42.7899C35.6722 42.7245 35.5397 42.6887 35.4045 42.6858H31.7497V38.9797H41.8395L44.3145 41.8531V44.6939C43.6053 44.8857 42.9904 45.3256 42.5842 45.9321C42.178 46.5385 42.008 47.2701 42.1057 47.9912C42.2035 48.7123 42.5624 49.3738 43.1158 49.8528C43.6692 50.3318 44.3795 50.5958 45.1148 50.5958C45.8501 50.5958 46.5603 50.3318 47.1138 49.8528C47.6672 49.3738 48.0261 48.7123 48.1238 47.9912C48.2216 47.2701 48.0516 46.5385 47.6454 45.9321C47.2391 45.3256 46.6243 44.8857 45.915 44.6939V41.5103C45.9179 41.3216 45.8503 41.1385 45.7253 40.996L42.8048 37.6164C42.7314 37.5289 42.6394 37.4586 42.5352 37.4106C42.4311 37.3626 42.3174 37.3381 42.2025 37.3388H31.7497V34.4001H42.549L46.74 39.1592C46.8162 39.2428 46.9091 39.3099 47.0127 39.3562C47.1164 39.4026 47.2286 39.4272 47.3423 39.4286H50.4691C50.6183 39.9642 50.9158 40.4478 51.3281 40.8249C51.7404 41.2019 52.251 41.4574 52.8023 41.5626C53.3536 41.6677 53.9236 41.6182 54.4479 41.4197C54.9723 41.2212 55.4301 40.8816 55.7698 40.4393C56.1094 39.997 56.3173 39.4695 56.37 38.9164C56.4227 38.3633 56.3181 37.8067 56.0679 37.3094C55.8178 36.812 55.4322 36.3938 54.9545 36.1018C54.4769 35.8099 53.9262 35.6559 53.3648 35.6572ZM53.3648 19.9593C53.6455 19.9593 53.9198 20.0417 54.1532 20.1959C54.3865 20.3502 54.5684 20.5695 54.6758 20.8261C54.7832 21.0826 54.8113 21.3649 54.7566 21.6373C54.7018 21.9097 54.5667 22.1598 54.3682 22.3562C54.1698 22.5526 53.9169 22.6863 53.6417 22.7405C53.3664 22.7947 53.0811 22.7669 52.8218 22.6606C52.5625 22.5543 52.3409 22.3743 52.185 22.1434C52.029 21.9125 51.9458 21.6411 51.9458 21.3634C51.9458 20.991 52.0953 20.6339 52.3614 20.3705C52.6275 20.1072 52.9885 19.9593 53.3648 19.9593ZM43.7123 12.4246C43.7107 12.1462 43.7927 11.8737 43.948 11.6415C44.1033 11.4094 44.3248 11.2281 44.5844 11.1209C44.8441 11.0136 45.1301 10.9851 45.4061 11.039C45.6821 11.0929 45.9357 11.2268 46.1347 11.4237C46.3336 11.6205 46.4689 11.8714 46.5234 12.1446C46.5779 12.4177 46.5491 12.7007 46.4407 12.9576C46.3323 13.2145 46.1491 13.4337 45.9145 13.5873C45.6799 13.741 45.4044 13.8222 45.123 13.8205C44.7496 13.8184 44.392 13.6706 44.1279 13.4093C43.8638 13.148 43.7145 12.7942 43.7123 12.4246ZM37.9373 11.0206C38.2179 11.0206 38.4923 11.1029 38.7256 11.2572C38.959 11.4115 39.1409 11.6308 39.2483 11.8873C39.3557 12.1439 39.3838 12.4262 39.329 12.6986C39.2743 12.9709 39.1391 13.2211 38.9407 13.4175C38.7422 13.6138 38.4894 13.7476 38.2141 13.8017C37.9388 13.8559 37.6535 13.8281 37.3942 13.7218C37.1349 13.6156 36.9133 13.4356 36.7574 13.2047C36.6015 12.9738 36.5183 12.7023 36.5183 12.4246C36.5183 12.2396 36.5552 12.0563 36.6271 11.8854C36.6989 11.7145 36.8041 11.5594 36.9368 11.4289C37.0694 11.2984 37.2268 11.1952 37.4 11.1251C37.5731 11.055 37.7585 11.0195 37.9455 11.0206H37.9373ZM30.141 16.4899V20.2042C29.4349 19.8577 28.6489 19.7016 27.8623 19.7518C27.0758 19.8019 26.3165 20.0566 25.6612 20.4899C25.4899 20.6116 25.3721 20.7937 25.3322 20.9987C25.2923 21.2036 25.3333 21.416 25.4467 21.592C25.5695 21.7593 25.752 21.8743 25.9572 21.9137C26.1624 21.9531 26.3751 21.914 26.5522 21.8042C27.0953 21.4399 27.7487 21.2719 28.4023 21.3284C29.0559 21.3849 29.67 21.6625 30.141 22.1144V26.3756V29.6409C29.4358 29.2897 28.6484 29.1318 27.8606 29.1835C27.0728 29.2351 26.3134 29.4946 25.6612 29.9348C25.5365 30.0702 25.4614 30.2432 25.4481 30.426C25.4348 30.6087 25.484 30.7906 25.5878 30.9423C25.6916 31.094 25.844 31.2068 26.0204 31.2624C26.1969 31.3181 26.3871 31.3134 26.5605 31.2491C27.0999 30.8818 27.7512 30.7104 28.4037 30.764C29.0563 30.8176 29.6701 31.0928 30.141 31.5429V33.5511V38.1633V43.5103V50.6857C29.8825 51.3182 29.4875 51.8872 28.9837 52.3529C28.4799 52.8186 27.8794 53.1699 27.2241 53.3821C26.5689 53.5944 25.8747 53.6625 25.19 53.5816C24.5054 53.5008 23.8469 53.2731 23.2605 52.9143C23.9936 52.2674 24.4911 51.3996 24.676 50.4449C24.8609 49.4903 24.723 48.502 24.2835 47.6327C24.2584 47.51 24.2051 47.3946 24.1277 47.2956C24.0503 47.1965 23.951 47.1164 23.8373 47.0614C23.7237 47.0064 23.5987 46.978 23.4722 46.9784C23.3457 46.9788 23.2209 47.008 23.1076 47.0637C22.9943 47.1194 22.8955 47.2002 22.8188 47.2998C22.7421 47.3993 22.6895 47.515 22.6652 47.6379C22.6409 47.7607 22.6455 47.8875 22.6786 48.0083C22.7117 48.1292 22.7725 48.2408 22.8562 48.3347C23.0251 48.6806 23.123 49.0562 23.1443 49.4398C23.1655 49.8234 23.1097 50.2074 22.9801 50.5695C22.8504 50.9316 22.6495 51.2647 22.3889 51.5494C22.1283 51.8342 21.8133 52.0651 21.462 52.2286C21.3991 52.2683 21.341 52.3148 21.2887 52.3674C20.5776 52.7673 19.7739 52.9778 18.956 52.9784C18.138 52.9789 17.334 52.7695 16.6224 52.3705C15.9107 51.9716 15.3159 51.3968 14.896 50.7022C14.4761 50.0077 14.2455 49.2173 14.2267 48.4082C15.6292 48.0082 18.2775 47.0041 18.6652 45.0286C18.6998 44.8225 18.6532 44.6112 18.535 44.4381C18.4168 44.2649 18.2361 44.1432 18.03 44.098C17.8288 44.067 17.6231 44.1107 17.4525 44.2207C17.2819 44.3307 17.1585 44.4993 17.1059 44.6939C16.8667 45.8694 14.3752 46.7429 13.3852 46.9551C12.3547 46.9411 11.3502 46.6336 10.4917 46.0694C9.63332 45.5052 8.95737 44.7082 8.54481 43.7737C8.13225 42.8393 8.00054 41.807 8.16545 40.8005C8.33036 39.7939 8.7849 38.8556 9.47468 38.098C9.57506 37.9899 9.64414 37.8571 9.67463 37.7134C9.70512 37.5698 9.69589 37.4206 9.64793 37.2817C9.59992 37.1502 9.51856 37.033 9.41166 36.9416C9.30475 36.8501 9.17589 36.7873 9.03742 36.7593C8.09546 36.5764 7.23172 36.1152 6.56029 35.4364C5.88887 34.7576 5.44136 33.8932 5.27689 32.9574C5.11242 32.0216 5.23872 31.0585 5.63911 30.1953C6.0395 29.332 6.69515 28.6093 7.51942 28.1225C7.841 27.9086 8.2023 27.7599 8.58237 27.6851C8.96245 27.6103 9.35375 27.6109 9.73359 27.6868C10.1134 27.7628 10.4743 27.9125 10.7952 28.1274C11.1161 28.3424 11.3908 28.6182 11.6032 28.9389C11.6783 29.0433 11.7772 29.1287 11.8918 29.1883C12.0065 29.2478 12.1337 29.2798 12.2632 29.2817C12.4249 29.2805 12.5827 29.2322 12.7169 29.143C12.887 29.02 13.0031 28.8374 13.0414 28.6325C13.0797 28.4276 13.0375 28.2159 12.9232 28.0409C12.3355 27.1662 11.4559 26.5235 10.4381 26.2251C9.42027 25.9267 8.32886 25.9915 7.35442 26.4083C6.97507 25.7083 6.76013 24.9328 6.7256 24.1393C6.69107 23.3458 6.83783 22.5549 7.15497 21.8253C7.47211 21.0957 7.95146 20.4462 8.55734 19.9253C9.16322 19.4044 9.88003 19.0254 10.6544 18.8164C10.9687 19.3292 11.4105 19.7537 11.9376 20.0495C12.4648 20.3453 13.0597 20.5025 13.6657 20.5062C14.0795 20.5081 14.4903 20.4362 14.8784 20.294C15.0039 20.2823 15.1249 20.2423 15.2323 20.1771C15.3397 20.1119 15.4305 20.0233 15.4979 19.9179C15.5653 19.8126 15.6074 19.6934 15.621 19.5695C15.6346 19.4455 15.6194 19.3202 15.5764 19.203C15.5335 19.0858 15.464 18.9799 15.3733 18.8934C15.2825 18.8069 15.173 18.7421 15.053 18.704C14.9331 18.6659 14.8059 18.6555 14.6813 18.6736C14.5566 18.6917 14.4378 18.7377 14.3339 18.8083C13.848 18.9734 13.316 18.9426 12.8529 18.7226C12.3897 18.5027 12.0327 18.1112 11.8589 17.6328C11.862 17.6084 11.862 17.5837 11.8589 17.5593C11.4311 16.5775 11.3136 15.4905 11.5218 14.4413C11.7299 13.3921 12.2541 12.4298 13.0253 11.6809C13.7965 10.9319 14.7786 10.4314 15.8427 10.2451C16.9067 10.0587 18.0028 10.1953 18.987 10.6369H19.0695H19.152C21.4372 11.0777 22.1137 13.1512 21.759 15.0042C21.7267 15.209 21.7744 15.4184 21.8924 15.5897C22.0103 15.761 22.1898 15.8815 22.3942 15.9267H22.5427C22.7346 15.9309 22.9219 15.8688 23.0725 15.7511C23.2231 15.6334 23.3275 15.4674 23.3677 15.2818C23.8875 12.5226 22.6912 10.2042 20.4142 9.33076C20.856 8.43956 21.5401 7.68786 22.3897 7.16008C23.2393 6.63231 24.2208 6.34936 25.224 6.34302C26.3146 6.34121 27.3796 6.67056 28.2751 7.28659C29.1706 7.90261 29.8536 8.77567 30.2317 9.7879L30.141 16.4899ZM37.9373 46.1796C38.2183 46.1796 38.4929 46.2622 38.7265 46.4168C38.96 46.5715 39.1419 46.7913 39.249 47.0483C39.3562 47.3053 39.3838 47.5881 39.3284 47.8606C39.2729 48.1332 39.137 48.3834 38.9377 48.5794C38.7384 48.7755 38.4848 48.9086 38.209 48.9618C37.9332 49.0151 37.6476 48.9861 37.3885 48.8786C37.1294 48.771 36.9083 48.5898 36.7534 48.3578C36.5985 48.1259 36.5166 47.8536 36.5183 47.5756C36.5193 47.3912 36.5571 47.2088 36.6294 47.0388C36.7017 46.8689 36.8072 46.7147 36.9397 46.5851C37.0722 46.4555 37.2293 46.353 37.4019 46.2834C37.5744 46.2138 37.7592 46.1786 37.9455 46.1796H37.9373ZM46.5338 47.5756C46.5354 47.8536 46.4536 48.1259 46.2987 48.3578C46.1437 48.5898 45.9227 48.771 45.6636 48.8786C45.4044 48.9861 45.1189 49.0151 44.843 48.9618C44.5672 48.9086 44.3136 48.7755 44.1144 48.5794C43.9151 48.3834 43.7791 48.1332 43.7237 47.8606C43.6683 47.5881 43.6959 47.3053 43.803 47.0483C43.9102 46.7913 44.0921 46.5715 44.3256 46.4168C44.5591 46.2622 44.8338 46.1796 45.1148 46.1796C45.3011 46.1786 45.4859 46.2138 45.6585 46.2834C45.831 46.353 45.9881 46.4555 46.1206 46.5851C46.2531 46.7147 46.3586 46.8689 46.4309 47.0388C46.5032 47.2088 46.541 47.3912 46.542 47.5756H46.5338ZM53.3566 40.0409C53.0756 40.0425 52.8004 39.9615 52.566 39.8082C52.3315 39.6549 52.1484 39.4362 52.0397 39.1798C51.931 38.9234 51.9018 38.6408 51.9556 38.3679C52.0094 38.095 52.1439 37.8441 52.342 37.6469C52.5401 37.4497 52.7929 37.3152 53.0684 37.2603C53.3439 37.2055 53.6297 37.2328 53.8894 37.3388C54.1492 37.4449 54.3713 37.6248 54.5276 37.8559C54.6839 38.087 54.7673 38.3588 54.7673 38.6368C54.7673 39.0064 54.6201 39.3611 54.3576 39.6239C54.095 39.8868 53.7383 40.0366 53.3648 40.0409H53.3566Z" fill="white"></path></svg> 