<?xml version="1.0" encoding="UTF-8"?> <svg xmlns="http://www.w3.org/2000/svg" width="24" height="24" viewBox="0 0 24 24" fill="none"><rect width="24" height="24" rx="12" fill="white"></rect><path d="M16.7953 13.086V16.7992H14.7289V13.3124C14.7289 12.452 14.4276 11.8634 13.6958 11.8634C13.1361 11.8634 12.7917 12.2709 12.6626 12.6332C12.6195 12.769 12.5765 12.9502 12.5765 13.1766V16.7992H10.5101C10.5101 16.7992 10.5532 10.9124 10.5101 10.3237H12.5765V11.2294C12.8348 10.7766 13.3514 10.1426 14.4276 10.1426C15.7621 10.1426 16.7953 11.0936 16.7953 13.086ZM8.35764 7.19922C7.66885 7.19922 7.19531 7.69733 7.19531 8.33129C7.19531 8.96526 7.62581 9.46337 8.31459 9.46337C9.04643 9.46337 9.47693 8.96526 9.47693 8.33129C9.51998 7.65205 9.08948 7.19922 8.35764 7.19922ZM7.32446 16.7992H9.39083V10.3237H7.32446V16.7992Z" fill="black"></path></svg> 