<?xml version="1.0" encoding="UTF-8"?> <svg xmlns="http://www.w3.org/2000/svg" width="60" height="60" viewBox="0 0 60 60" fill="none"><g clip-path="url(#clip0_3568_936)"><path d="M22.5 39.375C31.8198 39.375 39.375 31.8198 39.375 22.5C39.375 13.1802 31.8198 5.625 22.5 5.625C13.1802 5.625 5.625 13.1802 5.625 22.5C5.625 31.8198 13.1802 39.375 22.5 39.375Z" stroke="url(#paint0_linear_3568_936)" stroke-width="1.5" stroke-linecap="round" stroke-linejoin="round"></path><path d="M37.5 54.375C46.8198 54.375 54.375 46.8198 54.375 37.5C54.375 28.1802 46.8198 20.625 37.5 20.625C28.1802 20.625 20.625 28.1802 20.625 37.5C20.625 46.8198 28.1802 54.375 37.5 54.375Z" stroke="url(#paint1_linear_3568_936)" stroke-width="1.5" stroke-linecap="round" stroke-linejoin="round"></path><path d="M38.6509 27.4009L53.6509 42.4009" stroke="url(#paint2_linear_3568_936)" stroke-width="1.5" stroke-linecap="round" stroke-linejoin="round"></path><path d="M34.4321 34.4321L49.4321 49.4321" stroke="url(#paint3_linear_3568_936)" stroke-width="1.5" stroke-linecap="round" stroke-linejoin="round"></path><path d="M27.4009 38.6509L42.4009 53.6509" stroke="url(#paint4_linear_3568_936)" stroke-width="1.5" stroke-linecap="round" stroke-linejoin="round"></path><path d="M17.5991 6.34912L32.5991 21.3491" stroke="url(#paint5_linear_3568_936)" stroke-width="1.5" stroke-linecap="round" stroke-linejoin="round"></path><path d="M10.5679 10.5679L25.5679 25.5679" stroke="url(#paint6_linear_3568_936)" stroke-width="1.5" stroke-linecap="round" stroke-linejoin="round"></path><path d="M6.34717 17.5969L21.3472 32.5969" stroke="url(#paint7_linear_3568_936)" stroke-width="1.5" stroke-linecap="round" stroke-linejoin="round"></path></g><defs><linearGradient id="paint0_linear_3568_936" x1="22.5" y1="5.625" x2="22.5" y2="39.375" gradientUnits="userSpaceOnUse"><stop stop-color="#99FF32"></stop><stop offset="1" stop-color="#34CCFF"></stop></linearGradient><linearGradient id="paint1_linear_3568_936" x1="37.5" y1="20.625" x2="37.5" y2="54.375" gradientUnits="userSpaceOnUse"><stop stop-color="#99FF32"></stop><stop offset="1" stop-color="#34CCFF"></stop></linearGradient><linearGradient id="paint2_linear_3568_936" x1="46.1509" y1="27.4009" x2="46.1509" y2="42.4009" gradientUnits="userSpaceOnUse"><stop stop-color="#99FF32"></stop><stop offset="1" stop-color="#34CCFF"></stop></linearGradient><linearGradient id="paint3_linear_3568_936" x1="41.9321" y1="34.4321" x2="41.9321" y2="49.4321" gradientUnits="userSpaceOnUse"><stop stop-color="#99FF32"></stop><stop offset="1" stop-color="#34CCFF"></stop></linearGradient><linearGradient id="paint4_linear_3568_936" x1="34.9009" y1="38.6509" x2="34.9009" y2="53.6509" gradientUnits="userSpaceOnUse"><stop stop-color="#99FF32"></stop><stop offset="1" stop-color="#34CCFF"></stop></linearGradient><linearGradient id="paint5_linear_3568_936" x1="25.0991" y1="6.34912" x2="25.0991" y2="21.3491" gradientUnits="userSpaceOnUse"><stop stop-color="#99FF32"></stop><stop offset="1" stop-color="#34CCFF"></stop></linearGradient><linearGradient id="paint6_linear_3568_936" x1="18.0679" y1="10.5679" x2="18.0679" y2="25.5679" gradientUnits="userSpaceOnUse"><stop stop-color="#99FF32"></stop><stop offset="1" stop-color="#34CCFF"></stop></linearGradient><linearGradient id="paint7_linear_3568_936" x1="13.8472" y1="17.5969" x2="13.8472" y2="32.5969" gradientUnits="userSpaceOnUse"><stop stop-color="#99FF32"></stop><stop offset="1" stop-color="#34CCFF"></stop></linearGradient><clipPath id="clip0_3568_936"><rect width="60" height="60" fill="white"></rect></clipPath></defs></svg> 