<?xml version="1.0" encoding="UTF-8"?> <svg xmlns="http://www.w3.org/2000/svg" width="60" height="60" viewBox="0 0 60 60" fill="none"><g clip-path="url(#clip0_2024_1460)"><path d="M22.5 39.375C31.8198 39.375 39.375 31.8198 39.375 22.5C39.375 13.1802 31.8198 5.625 22.5 5.625C13.1802 5.625 5.625 13.1802 5.625 22.5C5.625 31.8198 13.1802 39.375 22.5 39.375Z" stroke="white" stroke-width="1.5" stroke-linecap="round" stroke-linejoin="round"></path><path d="M37.5 54.375C46.8198 54.375 54.375 46.8198 54.375 37.5C54.375 28.1802 46.8198 20.625 37.5 20.625C28.1802 20.625 20.625 28.1802 20.625 37.5C20.625 46.8198 28.1802 54.375 37.5 54.375Z" stroke="white" stroke-width="1.5" stroke-linecap="round" stroke-linejoin="round"></path><path d="M38.6509 27.4009L53.6509 42.4009" stroke="white" stroke-width="1.5" stroke-linecap="round" stroke-linejoin="round"></path><path d="M34.4321 34.4321L49.4321 49.4321" stroke="white" stroke-width="1.5" stroke-linecap="round" stroke-linejoin="round"></path><path d="M27.4009 38.6509L42.4009 53.6509" stroke="white" stroke-width="1.5" stroke-linecap="round" stroke-linejoin="round"></path><path d="M17.5991 6.34912L32.5991 21.3491" stroke="white" stroke-width="1.5" stroke-linecap="round" stroke-linejoin="round"></path><path d="M10.5679 10.5679L25.5679 25.5679" stroke="white" stroke-width="1.5" stroke-linecap="round" stroke-linejoin="round"></path><path d="M6.34717 17.5969L21.3472 32.5969" stroke="white" stroke-width="1.5" stroke-linecap="round" stroke-linejoin="round"></path></g><defs><clipPath id="clip0_2024_1460"><rect width="60" height="60" fill="white"></rect></clipPath></defs></svg> 