<?xml version="1.0" encoding="UTF-8"?> <svg xmlns="http://www.w3.org/2000/svg" width="24" height="24" viewBox="0 0 24 24" fill="none"><rect width="24" height="24" rx="12" fill="white"></rect><g clip-path="url(#clip0_3657_517)"><path d="M12.0436 7.2002H12.1188C12.8138 7.20276 16.3354 7.22838 17.2849 7.48634C17.5719 7.56507 17.8335 7.71852 18.0434 7.93137C18.2534 8.14422 18.4043 8.409 18.4813 8.69926C18.5667 9.02384 18.6267 9.45349 18.6673 9.89681L18.6757 9.98564L18.6943 10.2077L18.7011 10.2966C18.7561 11.0773 18.7628 11.8084 18.7637 11.9682V12.0322C18.7628 12.1979 18.7552 12.9786 18.6943 13.7918L18.6876 13.8815L18.68 13.9703C18.6377 14.4589 18.5751 14.9441 18.4813 15.3011C18.4043 15.5914 18.2534 15.8562 18.0434 16.069C17.8335 16.2819 17.5719 16.4353 17.2849 16.514C16.3041 16.7805 12.5762 16.7993 12.0596 16.8002H11.9396C11.6783 16.8002 10.5978 16.7951 9.46477 16.7558L9.32104 16.7507L9.24748 16.7472L9.10289 16.7413L8.95831 16.7353C8.0198 16.6934 7.1261 16.6259 6.71434 16.5132C6.42739 16.4345 6.1659 16.2812 5.95596 16.0685C5.74602 15.8558 5.59499 15.5912 5.51794 15.3011C5.42409 14.9449 5.36152 14.4589 5.31925 13.9703L5.31248 13.8806L5.30572 13.7918C5.26375 13.213 5.24063 12.633 5.23639 12.0527L5.23639 11.9477C5.23808 11.764 5.24484 11.1294 5.2905 10.429L5.29642 10.341L5.29896 10.2966L5.30572 10.2077L5.32432 9.98564L5.33278 9.89681C5.37336 9.45349 5.43339 9.02299 5.51879 8.69926C5.5957 8.409 5.74668 8.14422 5.95663 7.93137C6.16657 7.71852 6.42814 7.56507 6.71518 7.48634C7.12694 7.3753 8.02064 7.30697 8.95916 7.26426L9.10289 7.25828L9.24832 7.25315L9.32104 7.25059L9.46562 7.24461C10.2703 7.21848 11.0753 7.20396 11.8804 7.20105L12.0436 7.2002ZM10.6476 9.94208V14.0575L14.1624 12.0006L10.6476 9.94208Z" fill="black"></path></g><defs><clipPath id="clip0_3657_517"><rect width="13.5273" height="9.6" fill="white" transform="translate(5.23639 7.2002)"></rect></clipPath></defs></svg> 