<?xml version="1.0" encoding="UTF-8"?> <svg xmlns="http://www.w3.org/2000/svg" width="32" height="32" viewBox="0 0 32 32" fill="none"><rect width="32" height="32" rx="2.66667" fill="#ECE8F3"></rect><path d="M24 17.811V23.9997H20.5561V18.1884C20.5561 16.7544 20.0538 15.7733 18.8341 15.7733C17.9013 15.7733 17.3274 16.4525 17.1121 17.0563C17.0404 17.2827 16.9686 17.5846 16.9686 17.962V23.9997H13.5247C13.5247 23.9997 13.5964 14.1884 13.5247 13.2072H16.9686V14.7167C17.3991 13.962 18.2601 12.9054 20.0538 12.9054C22.278 12.9054 24 14.4903 24 17.811ZM9.93722 7.99969C8.78924 7.99969 8 8.82988 8 9.88649C8 10.9431 8.71749 11.7733 9.86547 11.7733C11.0852 11.7733 11.8027 10.9431 11.8027 9.88649C11.8744 8.75441 11.1569 7.99969 9.93722 7.99969ZM8.21525 23.9997H11.6592V13.2072H8.21525V23.9997Z" fill="#401C86"></path></svg> 