<?xml version="1.0" encoding="UTF-8"?> <svg xmlns="http://www.w3.org/2000/svg" width="237" height="230" viewBox="0 0 237 230" fill="none"><rect width="163.76" height="437.602" transform="matrix(-0.804309 -0.594212 -0.594212 0.804309 391.907 97.7893)" fill="url(#paint0_linear_5096_5025)"></rect><rect x="177" y="170" width="40" height="40" rx="3.33333" fill="white"></rect><path d="M206.996 192.264V200H202.691V192.736C202.691 190.944 202.063 189.717 200.539 189.717C199.373 189.717 198.655 190.566 198.386 191.321C198.297 191.604 198.207 191.981 198.207 192.453V200H193.902C193.902 200 193.992 187.736 193.902 186.51H198.207V188.396C198.745 187.453 199.821 186.132 202.063 186.132C204.844 186.132 206.996 188.113 206.996 192.264ZM189.418 180C187.983 180 186.996 181.038 186.996 182.359C186.996 183.679 187.893 184.717 189.328 184.717C190.853 184.717 191.749 183.679 191.749 182.359C191.839 180.944 190.942 180 189.418 180ZM187.265 200H191.57V186.51H187.265V200Z" fill="url(#paint1_linear_5096_5025)"></path><defs><linearGradient id="paint0_linear_5096_5025" x1="81.8798" y1="0" x2="81.8798" y2="437.602" gradientUnits="userSpaceOnUse"><stop stop-color="#66CCFF"></stop><stop offset="1" stop-color="#CC65FF"></stop></linearGradient><linearGradient id="paint1_linear_5096_5025" x1="196.996" y1="180" x2="196.996" y2="200" gradientUnits="userSpaceOnUse"><stop stop-color="#66CCFF"></stop><stop offset="1" stop-color="#CC65FF"></stop></linearGradient></defs></svg> 