<?xml version="1.0" encoding="UTF-8"?> <svg xmlns="http://www.w3.org/2000/svg" width="24" height="24" viewBox="0 0 24 24" fill="none"><path d="M7.78001 5.41016L4.96582 6.58245" stroke="#401C86" stroke-miterlimit="10" stroke-linecap="round" stroke-linejoin="round"></path><path d="M13.407 6.93397L10.5928 5.52734" stroke="#401C86" stroke-miterlimit="10" stroke-linecap="round" stroke-linejoin="round"></path><path d="M19.2576 3.93359L15.8936 6.73625" stroke="#401C86" stroke-miterlimit="10" stroke-linecap="round" stroke-linejoin="round"></path><path d="M4.96732 12.793H2.15332V19.6139H4.96732V12.793Z" stroke="#401C86" stroke-miterlimit="10" stroke-linecap="round" stroke-linejoin="round"></path><path d="M10.5933 10.4492H7.7793V19.6141H10.5933V10.4492Z" stroke="#401C86" stroke-miterlimit="10" stroke-linecap="round" stroke-linejoin="round"></path><path d="M16.2202 13.2617H13.4062V19.6139H16.2202V13.2617Z" stroke="#401C86" stroke-miterlimit="10" stroke-linecap="round" stroke-linejoin="round"></path><path d="M21.8472 8.57422H19.0332V19.6142H21.8472V8.57422Z" stroke="#401C86" stroke-miterlimit="10" stroke-linecap="round" stroke-linejoin="round"></path><path d="M23.2968 22.457H0.703125" stroke="#401C86" stroke-miterlimit="10" stroke-linecap="round" stroke-linejoin="round"></path><path d="M3.55957 8.57422C4.33622 8.57422 4.96582 7.94462 4.96582 7.16797C4.96582 6.39132 4.33622 5.76172 3.55957 5.76172C2.78292 5.76172 2.15332 6.39132 2.15332 7.16797C2.15332 7.94462 2.78292 8.57422 3.55957 8.57422Z" stroke="#401C86" stroke-miterlimit="10" stroke-linecap="round" stroke-linejoin="round"></path><path d="M9.18652 6.23047C9.96317 6.23047 10.5928 5.60087 10.5928 4.82422C10.5928 4.04757 9.96317 3.41797 9.18652 3.41797C8.40987 3.41797 7.78027 4.04757 7.78027 4.82422C7.78027 5.60087 8.40987 6.23047 9.18652 6.23047Z" stroke="#401C86" stroke-miterlimit="10" stroke-linecap="round" stroke-linejoin="round"></path><path d="M20.4404 4.35547C21.2171 4.35547 21.8467 3.72587 21.8467 2.94922C21.8467 2.17257 21.2171 1.54297 20.4404 1.54297C19.6638 1.54297 19.0342 2.17257 19.0342 2.94922C19.0342 3.72587 19.6638 4.35547 20.4404 4.35547Z" stroke="#401C86" stroke-miterlimit="10" stroke-linecap="round" stroke-linejoin="round"></path><path d="M14.8135 9.04297C15.5901 9.04297 16.2197 8.41337 16.2197 7.63672C16.2197 6.86007 15.5901 6.23047 14.8135 6.23047C14.0368 6.23047 13.4072 6.86007 13.4072 7.63672C13.4072 8.41337 14.0368 9.04297 14.8135 9.04297Z" stroke="#401C86" stroke-miterlimit="10" stroke-linecap="round" stroke-linejoin="round"></path></svg> 