<?xml version="1.0" encoding="UTF-8"?> <svg xmlns="http://www.w3.org/2000/svg" width="220" height="60" viewBox="0 0 220 60" fill="none"><rect width="220" height="60" rx="4" fill="white"></rect><g clip-path="url(#clip0_6140_8983)"><path d="M47.1219 28.7106C46.6698 28.7106 46.489 28.9819 46.489 29.6147C46.489 30.2476 46.6698 30.5188 47.1219 30.5188H50.9189V36.3048C50.9189 37.0281 50.6477 37.5705 50.1957 37.9321C49.7437 38.2938 49.1108 38.4746 48.2971 38.4746H42.8727C42.5111 38.4746 42.1495 38.4746 41.8783 38.2938C41.5166 38.113 41.2454 37.9321 41.0646 37.6609C40.7934 37.3897 40.6126 37.1185 40.5222 36.7568C40.4317 36.3952 40.3413 36.0336 40.3413 35.5816V23.8287C40.3413 23.015 40.6126 22.2918 41.0646 21.7493C41.5166 21.2069 42.1495 20.9357 42.9631 20.9357H51.4614C51.9134 20.9357 52.0942 20.6644 52.0942 20.0316C52.0942 19.3987 51.9134 19.1275 51.5518 19.0371H43.144C42.5111 19.0371 41.8783 19.1275 41.3358 19.3987C40.7934 19.67 40.2509 20.0316 39.8893 20.4836C39.5277 20.9357 39.1661 21.4781 38.8948 22.0205C38.6236 22.563 38.5332 23.2862 38.5332 24.0095V35.4007C38.5332 36.124 38.6236 36.7568 38.8948 37.2993C39.1661 37.9321 39.4373 38.3842 39.8893 38.8362C40.3413 39.2882 40.7934 39.6499 41.3358 39.9211C41.8783 40.1923 42.5111 40.2827 43.144 40.2827H48.2067C48.8396 40.2827 49.4724 40.1923 50.0149 40.0115C50.5573 39.8307 51.0998 39.5595 51.4614 39.1978C51.9134 38.8362 52.1846 38.3842 52.4559 37.9321C52.7271 37.3897 52.8175 36.8473 52.8175 36.2144V28.7106H47.2123H47.1219Z" fill="#1B194E"></path><path d="M70.4474 28.349C70.8994 27.7162 71.0803 26.8121 71.0803 25.8176V23.8287C71.0803 23.1054 70.9898 22.4726 70.7186 21.9301C70.4474 21.3877 70.1762 20.8452 69.8146 20.3932C69.3625 19.9412 68.9105 19.67 68.368 19.3987C67.8256 19.1275 67.1928 19.0371 66.5599 19.0371H57.8809V39.5595C57.8809 40.0115 58.1521 40.2827 58.7849 40.2827C59.4178 40.2827 59.5986 40.0115 59.5986 39.5595V20.7548H66.8311C67.5544 20.7548 68.1872 21.0261 68.6393 21.4781C69.0913 21.9301 69.3625 22.6534 69.3625 23.467V25.9984C69.3625 26.9025 69.1817 27.6258 68.7297 28.0778C68.2776 28.5298 67.6448 28.801 66.7407 28.801H62.13V30.5188H66.5599C67.464 30.5188 68.0968 30.79 68.6393 31.3324C69.0913 31.8749 69.3625 32.5981 69.3625 33.5926V39.4691C69.3625 39.6499 69.3625 39.8307 69.6337 40.0115C69.8146 40.1923 69.9954 40.1923 70.2666 40.1923C70.809 40.1923 71.1707 39.9211 71.1707 39.4691V33.5926C71.1707 32.5981 70.9898 31.6941 70.5378 31.0612C70.0858 30.338 69.4529 29.9763 68.4585 29.7955C69.4529 29.4339 70.0858 28.9819 70.5378 28.349H70.4474Z" fill="#1B194E"></path><path d="M89.7045 22.0217C89.4332 21.3888 89.162 20.8464 88.71 20.3943C88.258 19.9423 87.8059 19.5807 87.1731 19.3095C86.6306 19.0382 85.9978 18.8574 85.2745 18.8574H80.3926C79.7597 18.8574 79.1269 19.0382 78.5844 19.3095C78.042 19.5807 77.4995 19.9423 77.0475 20.3943C76.5955 20.8464 76.2338 21.3888 76.053 22.0217C75.7818 22.6545 75.6914 23.2874 75.6914 23.9202V35.2211C75.6914 35.9443 75.7818 36.5772 76.053 37.21C76.3243 37.8429 76.5955 38.2949 77.0475 38.7469C77.4995 39.199 78.042 39.5606 78.5844 39.8318C79.2173 40.103 79.8501 40.1934 80.483 40.1934H85.0937C85.817 40.1934 86.4498 40.0126 86.9923 39.8318C87.6251 39.5606 88.0771 39.199 88.5292 38.7469C88.9812 38.2949 89.2524 37.7524 89.5237 37.21C89.7949 36.6676 89.8853 35.9443 89.8853 35.2211V24.0106C89.8853 23.2874 89.7949 22.6545 89.5237 22.1121L89.7045 22.0217ZM88.3484 35.4019C88.3484 35.7635 88.3484 36.2155 88.1676 36.5772C87.9867 36.9388 87.8059 37.3004 87.5347 37.5716C87.2635 37.8429 86.9923 38.0237 86.6306 38.2045C86.269 38.3853 85.9074 38.4757 85.4553 38.4757H80.3022C79.8501 38.4757 79.4885 38.4757 79.1269 38.2045C78.7652 38.0237 78.494 37.8429 78.2228 37.5716C77.9516 37.3004 77.7708 36.9388 77.59 36.5772C77.4091 36.2155 77.4091 35.8539 77.4091 35.4019V23.8298C77.4091 23.4682 77.4091 23.0161 77.59 22.6545C77.6804 22.2929 77.9516 21.9313 78.1324 21.66C78.4036 21.3888 78.6748 21.208 79.0365 21.0272C79.3981 20.8464 79.7597 20.756 80.1213 20.756H85.4553C85.817 20.756 86.1786 20.756 86.5402 21.0272C86.9019 21.208 87.1731 21.3888 87.4443 21.66C87.7155 21.9313 87.8963 22.2929 88.0771 22.6545C88.258 23.0161 88.258 23.3778 88.258 23.8298V35.4923L88.3484 35.4019Z" fill="#1B194E"></path><path d="M103.355 28.7106C102.903 28.7106 102.722 28.9819 102.722 29.6147C102.722 30.2476 102.903 30.5188 103.355 30.5188H107.152V36.3048C107.152 37.0281 106.881 37.5705 106.429 37.9321C105.977 38.2938 105.344 38.4746 104.531 38.4746H99.1061C98.7445 38.4746 98.3829 38.4746 98.1117 38.2938C97.8404 38.113 97.5692 37.9321 97.298 37.6609C97.0268 37.3897 96.846 37.1185 96.7556 36.7568C96.6651 36.3952 96.5747 36.0336 96.5747 35.5816V23.8287C96.5747 23.015 96.846 22.2918 97.298 21.7493C97.75 21.2069 98.3829 20.9357 99.1965 20.9357H107.695C108.147 20.9357 108.328 20.6644 108.328 20.0316C108.328 19.3987 108.147 19.1275 107.785 19.0371H99.3774C98.7445 19.0371 98.1117 19.1275 97.5692 19.3987C97.0268 19.67 96.4843 20.0316 96.1227 20.4836C95.7611 20.9357 95.3995 21.4781 95.1282 22.0205C94.857 22.563 94.7666 23.2862 94.7666 24.0095V35.4007C94.7666 36.124 94.857 36.7568 95.1282 37.2993C95.3995 37.9321 95.6707 38.3842 96.1227 38.8362C96.5747 39.2882 97.0268 39.6499 97.5692 39.9211C98.1117 40.1923 98.7445 40.2827 99.3774 40.2827H104.44C105.073 40.2827 105.706 40.1923 106.248 40.0115C106.791 39.8307 107.333 39.5595 107.695 39.1978C108.056 38.8362 108.418 38.3842 108.689 37.9321C108.96 37.3897 109.051 36.8473 109.051 36.2144V28.7106H103.446H103.355Z" fill="#1B194E"></path><path d="M144.852 19.0371H131.563C131.111 19.0371 130.93 19.3083 130.93 19.9412C130.93 20.574 131.111 20.8452 131.563 20.8452H137.258V39.4691C137.258 39.6499 137.258 39.8307 137.529 40.0115C137.71 40.1923 137.981 40.1923 138.253 40.1923C138.524 40.1923 138.795 40.1923 138.885 40.0115C139.066 39.8307 139.157 39.7403 139.157 39.4691V20.8452H144.852C145.304 20.8452 145.485 20.574 145.485 19.9412C145.485 19.3083 145.304 19.0371 144.852 19.0371Z" fill="#1B194E"></path><path d="M171.794 15.0605H170.076V44.1715H171.794V15.0605Z" fill="#A7A9AC"></path><path d="M33.8322 31.7862V39.6516C33.8322 40.1036 33.4706 40.4652 32.9282 40.4652C32.4761 40.4652 32.0241 40.1036 32.0241 39.6516V34.6792H24.3395V32.9614H32.0241V31.4245C32.0241 30.9725 32.0241 30.5205 31.8433 30.1588L28.8599 21.299C28.6791 20.8469 28.227 20.4853 27.6846 20.4853H25.9669C25.4244 20.4853 24.882 20.8469 24.7916 21.299L21.989 30.3397C21.8985 30.7013 21.8081 31.1533 21.8081 31.5149V39.6516C21.8081 40.1036 21.4465 40.4652 20.9041 40.4652C20.452 40.4652 20 40.1036 20 39.6516V31.8766C20 31.0629 20.0904 30.2492 20.3616 29.4356L21.2657 26.3618L23.1642 20.3949C23.4355 19.4908 24.4299 18.7676 25.5148 18.7676H28.1366C29.2215 18.7676 30.1256 19.4004 30.4872 20.3045L32.4761 26.3618L33.3802 29.1644C33.6514 29.978 33.8322 30.8821 33.8322 31.7862Z" fill="#1B194E"></path><path d="M127.494 31.7862V39.6516C127.494 40.1036 127.133 40.4652 126.59 40.4652C126.138 40.4652 125.686 40.1036 125.686 39.6516V34.6792H117.911V32.9614H125.686V31.4245C125.686 30.9725 125.686 30.5205 125.505 30.1588L122.522 21.299C122.341 20.8469 121.889 20.4853 121.347 20.4853H119.629C119.087 20.4853 118.544 20.8469 118.454 21.299L115.651 30.3397C115.561 30.7013 115.47 31.1533 115.47 31.5149V39.6516C115.47 40.1036 115.109 40.4652 114.566 40.4652C114.114 40.4652 113.662 40.1036 113.662 39.6516V31.8766C113.662 31.0629 113.753 30.2492 114.024 29.4356L114.928 26.3618L116.736 20.3949C117.007 19.4908 118.002 18.7676 119.087 18.7676H121.708C122.793 18.7676 123.697 19.4004 124.059 20.3045L126.048 26.3618L126.952 29.1644C127.223 29.978 127.404 30.8821 127.404 31.7862H127.494Z" fill="#1B194E"></path><path d="M186.077 22.5634H185.806C185.806 22.925 185.806 23.377 185.715 23.7387C185.535 24.1003 185.263 24.3715 184.902 24.5523V24.7331C185.444 24.5523 185.715 24.2811 185.987 23.8291C186.167 23.4674 186.258 23.0154 186.167 22.5634H186.077ZM185.625 22.5634H185.354C185.444 22.8346 185.354 23.1962 185.354 23.4674C185.173 23.7387 184.902 24.0099 184.631 24.1003V24.2811C185.083 24.1907 185.354 23.9195 185.535 23.5579C185.715 23.1962 185.715 22.8346 185.625 22.473V22.5634ZM185.173 22.5634H184.902C184.992 22.7442 185.083 23.1058 184.902 23.2866C184.811 23.5579 184.54 23.6483 184.269 23.6483L184.45 23.8291C184.721 23.8291 184.992 23.5579 185.173 23.2866C185.263 23.0154 185.263 22.7442 185.173 22.473V22.5634ZM180.743 25.5468L180.381 26.1797L181.014 26.5413L181.376 25.9084L180.743 25.5468ZM181.105 24.7331L180.743 25.366L181.376 25.7276L181.737 25.0948L181.105 24.7331ZM181.466 23.9195L181.105 24.5523L181.737 24.914L182.099 24.2811L181.466 23.9195ZM181.828 23.1058L181.466 23.7387L182.099 24.1003L182.461 23.4674L181.828 23.1058ZM179.839 25.0948L179.477 25.7276L180.11 26.0892L180.472 25.4564L179.839 25.0948ZM180.201 24.2811L179.839 24.914L180.472 25.2756L180.833 24.6427L180.201 24.2811ZM180.562 23.4674L180.201 24.1003L180.833 24.4619L181.195 23.8291L180.562 23.4674ZM183.455 22.473L183.636 22.1113C183.636 21.9305 183.636 21.7497 183.455 21.6593L182.28 21.0265L182.461 20.7552H182.732L183.094 20.2128L182.461 19.8512L182.099 20.484H182.37L182.19 20.9361L181.014 20.3032C180.833 20.3032 180.653 20.3032 180.562 20.484L180.11 21.3881C180.11 21.5689 180.11 21.7497 180.291 21.8401L181.466 22.473L181.285 22.7442H181.014L180.653 23.2866L181.285 23.6483L181.647 23.0154H181.376L181.557 22.5634L182.732 23.1962C182.913 23.1962 183.094 23.1962 183.184 23.0154L183.365 22.6538L184.269 23.1058V22.925L183.365 22.473H183.455ZM180.562 20.6648C180.562 20.484 180.833 20.484 181.014 20.484L183.274 21.6593C183.455 21.6593 183.455 21.9305 183.455 22.1113L180.562 20.6648ZM178.935 24.6427L178.573 25.2756L179.206 25.6372L179.568 25.0044L178.935 24.6427ZM179.296 23.8291L178.935 24.4619L179.568 24.8236L179.929 24.1907L179.296 23.8291ZM179.658 23.0154L179.296 23.6483L179.929 24.0099L180.291 23.377L179.658 23.0154ZM180.02 22.2018L179.658 22.8346L180.291 23.1962L180.653 22.5634L180.02 22.2018ZM183.094 20.1224L182.732 20.7552L183.365 21.1169L183.726 20.484L183.094 20.1224ZM183.455 19.3087L183.094 19.9416L183.726 20.3032L184.088 19.6704L183.455 19.3087ZM183.817 18.4951L183.455 19.1279L184.088 19.4895L184.45 18.8567L183.817 18.4951ZM184.178 17.6814L183.817 18.3143L184.45 18.6759L184.811 18.043L184.178 17.6814ZM182.551 18.8567L182.19 19.4895L182.822 19.8512L183.184 19.2183L182.551 18.8567ZM182.913 18.043L182.551 18.6759L183.184 19.0375L183.546 18.4047L182.913 18.043ZM183.274 17.2294L182.913 17.8622L183.546 18.2239L183.907 17.591L183.274 17.2294ZM181.285 19.2183L180.924 19.8512L181.557 20.2128L181.918 19.58L181.285 19.2183ZM181.647 18.4047L181.285 19.0375L181.918 19.3991L182.28 18.7663L181.647 18.4047ZM182.009 17.591L181.647 18.2239L182.28 18.5855L182.642 17.9526L182.009 17.591ZM182.37 16.7773L182.009 17.4102L182.642 17.7718L183.003 17.139L182.37 16.7773Z" fill="url(#paint0_linear_6140_8983)"></path><path d="M195.931 21.5684C196.28 21.5684 196.564 21.2851 196.564 20.9356C196.564 20.5861 196.28 20.3027 195.931 20.3027C195.581 20.3027 195.298 20.5861 195.298 20.9356C195.298 21.2851 195.581 21.5684 195.931 21.5684Z" fill="url(#paint1_linear_6140_8983)"></path><path d="M195.388 18.4922V19.3963C196.563 19.3963 197.467 20.4811 197.377 21.6564H198.281C198.371 20.0291 197.105 18.5826 195.478 18.4922H195.388Z" fill="url(#paint2_linear_6140_8983)"></path><path d="M195.478 16.7754V17.6795C197.557 17.8603 199.184 19.6684 199.094 21.8382H199.998C200.179 19.3068 198.19 16.9562 195.568 16.8658L195.478 16.7754Z" fill="url(#paint3_linear_6140_8983)"></path><path d="M198.011 40.9168V42.4537H177.76V40.9168L178.754 40.4648C178.935 40.4648 179.116 40.3744 179.297 40.3744H180.291C180.472 40.3744 180.743 40.3744 180.924 40.1935H181.014C181.286 39.9223 181.557 39.8319 181.828 39.8319H182.28V39.6511L180.743 38.3854C178.393 38.8374 178.393 36.3061 178.483 35.402C178.483 35.2212 178.573 35.1308 178.754 35.1308C179.568 35.1308 182.28 35.6732 181.286 37.9334L182.28 38.747V34.95L180.743 33.6843C178.393 34.1363 178.393 31.6049 178.483 30.7008C178.483 30.52 178.573 30.4296 178.754 30.4296C179.568 30.4296 182.28 30.9721 181.286 33.2322L182.28 34.0459V29.9776C180.472 28.8927 182.009 26.9037 182.551 26.3613C182.642 26.2709 182.823 26.2709 182.913 26.3613C183.546 26.9942 185.354 29.0735 182.913 30.2488V32.3282L183.455 31.6953C182.823 29.2543 185.535 29.2543 186.439 29.2543C186.62 29.2543 186.71 29.3447 186.71 29.5255C186.71 30.3392 186.258 32.961 183.998 32.1473L183.003 33.3226V36.7581L183.546 36.1252C182.913 33.6843 185.625 33.6843 186.529 33.6843C186.71 33.6843 186.8 33.7747 186.8 33.9555C186.8 34.7691 186.348 37.3909 184.088 36.5773L183.094 37.7526V39.7415H183.817C184.088 39.7415 184.359 39.8319 184.631 40.0127H184.721C184.902 40.1936 185.083 40.284 185.354 40.284H186.348C186.529 40.284 186.71 40.284 186.891 40.3744L187.885 40.8264L188.88 40.3744C189.061 40.3744 189.241 40.284 189.422 40.284H190.417C190.688 40.284 190.869 40.284 191.05 40.1031H191.14C191.411 39.8319 191.682 39.7415 191.954 39.7415H192.586V36.7581L190.869 35.3116C188.337 35.854 188.247 32.961 188.337 31.9665C188.337 31.7857 188.518 31.6953 188.609 31.6953C189.603 31.6953 192.496 32.2377 191.411 34.8595L192.496 35.7636V31.0625L190.778 29.6159C188.247 30.1584 188.157 27.2654 188.247 26.2709C188.247 26.0901 188.428 25.9997 188.518 25.9997C189.513 25.9997 192.406 26.5421 191.321 29.1639L192.406 30.068V25.2764L190.688 23.8299C188.066 24.3724 188.066 21.4793 188.157 20.4849C188.157 20.304 188.337 20.2136 188.428 20.2136C189.422 20.2136 192.315 20.7561 191.23 23.3779L192.315 24.2819V21.0273C189.874 19.852 191.773 17.5014 192.406 16.8686C192.496 16.7782 192.677 16.7782 192.858 16.8686C193.491 17.5014 195.479 19.7616 193.039 21.0273V25.9093L193.581 25.2764C192.858 22.5642 195.841 22.5642 196.836 22.5642C197.016 22.5642 197.107 22.745 197.107 22.8354C197.107 23.7395 196.564 26.6325 194.123 25.7285L193.039 26.9942V32.2377L193.581 31.6049C192.858 28.8927 195.841 28.8927 196.836 28.8927C197.016 28.8927 197.107 29.0735 197.107 29.1639C197.107 30.068 196.564 32.961 194.123 32.0569L193.039 33.3226V37.6622L193.671 36.9389C192.948 34.2267 196.022 34.2267 196.926 34.2267C197.107 34.2267 197.197 34.4075 197.197 34.4979C197.197 35.402 196.655 38.295 194.214 37.3909L193.129 38.6566V39.2895H193.671C193.943 39.2895 194.214 39.2895 194.485 39.5607H194.575C194.756 39.7415 194.937 39.8319 195.208 39.8319H196.203C196.384 39.8319 196.564 39.8319 196.745 39.9223L197.74 40.3744L198.011 40.9168Z" fill="url(#paint4_linear_6140_8983)"></path><path d="M160.492 38.2952H151.09V20.937H160.492C160.944 20.937 161.125 20.6658 161.125 20.033C161.125 19.4001 160.944 19.1289 160.492 19.1289H149.372V40.1033H160.492C160.944 40.1033 161.125 39.8321 161.125 39.1992C161.125 38.5664 160.944 38.2952 160.492 38.2952ZM153.621 28.712V30.5202H158.322C158.774 30.5202 158.955 30.2489 158.955 29.6161C158.955 28.9833 158.774 28.712 158.322 28.712H153.621Z" fill="#1B194E"></path></g><defs><linearGradient id="paint0_linear_6140_8983" x1="177.834" y1="23.4106" x2="185.826" y2="20.7984" gradientUnits="userSpaceOnUse"><stop stop-color="#33CC99"></stop><stop offset="1" stop-color="#CCFF66"></stop></linearGradient><linearGradient id="paint1_linear_6140_8983" x1="196.069" y1="20.4042" x2="195.982" y2="21.7575" gradientUnits="userSpaceOnUse"><stop stop-color="#33CC99"></stop><stop offset="1" stop-color="#CCFF66"></stop></linearGradient><linearGradient id="paint2_linear_6140_8983" x1="197.082" y1="18.746" x2="196.883" y2="21.8134" gradientUnits="userSpaceOnUse"><stop stop-color="#33CC99"></stop><stop offset="1" stop-color="#CCFF66"></stop></linearGradient><linearGradient id="paint3_linear_6140_8983" x1="198.004" y1="17.0853" x2="197.695" y2="21.8669" gradientUnits="userSpaceOnUse"><stop stop-color="#33CC99"></stop><stop offset="1" stop-color="#CCFF66"></stop></linearGradient><linearGradient id="paint4_linear_6140_8983" x1="177.76" y1="29.6159" x2="198.011" y2="29.6159" gradientUnits="userSpaceOnUse"><stop stop-color="#33CC99"></stop><stop offset="1" stop-color="#CCFF66"></stop></linearGradient><clipPath id="clip0_6140_8983"><rect width="180" height="30" fill="white" transform="translate(20 15)"></rect></clipPath></defs></svg> 