<?xml version="1.0" encoding="UTF-8"?> <svg xmlns="http://www.w3.org/2000/svg" width="24" height="24" viewBox="0 0 24 24" fill="none"><g clip-path="url(#clip0_6229_6326)"><mask id="mask0_6229_6326" style="mask-type:luminance" maskUnits="userSpaceOnUse" x="0" y="0" width="25" height="25"><path d="M23.502 23.5078V0.507812H0.501953V23.5078H23.502Z" fill="white" stroke="white"></path></mask><g mask="url(#mask0_6229_6326)"><path d="M18.0269 12.3298C18.0269 11.8259 17.7754 11.3556 17.3563 11.0762C15.7935 10.0346 11.9142 7.44838 10.2016 6.30664C9.69551 5.96924 9.0365 5.96924 8.53044 6.30664C6.81781 7.44838 2.93848 10.0346 1.37572 11.0762C0.956608 11.3556 0.705078 11.8259 0.705078 12.3298V23.3047H18.0269V12.3298Z" stroke="#401C86" stroke-miterlimit="10" stroke-linecap="round" stroke-linejoin="round"></path><path d="M14.6381 15.7711C11.7284 15.7711 9.36621 18.1333 9.36621 21.043C12.2759 21.043 14.6381 18.6804 14.6381 15.7711Z" stroke="#401C86" stroke-miterlimit="10" stroke-linecap="round" stroke-linejoin="round"></path><path d="M9.36541 10.5015C7.30788 12.5586 7.30788 15.8995 9.36541 17.957C11.4229 15.8995 11.4229 12.5586 9.36541 10.5015Z" stroke="#401C86" stroke-miterlimit="10" stroke-linecap="round" stroke-linejoin="round"></path><path d="M4.09375 15.7711C7.00347 15.7711 9.36564 18.1333 9.36564 21.043C6.45597 21.043 4.09375 18.6804 4.09375 15.7711Z" stroke="#401C86" stroke-miterlimit="10" stroke-linecap="round" stroke-linejoin="round"></path><path d="M9.36621 21.0453V23.3047" stroke="#401C86" stroke-miterlimit="10" stroke-linecap="round" stroke-linejoin="round"></path><path d="M17.2734 0.70939C20.5988 0.70939 23.2984 3.40892 23.2984 6.73438" stroke="#401C86" stroke-miterlimit="10" stroke-linecap="round" stroke-linejoin="round"></path><path d="M17.2734 3.72186C18.936 3.72186 20.286 5.07148 20.286 6.73438" stroke="#401C86" stroke-miterlimit="10" stroke-linecap="round" stroke-linejoin="round"></path><path d="M17.2734 6.9375C17.3852 6.9375 17.4766 6.84616 17.4766 6.73438C17.4766 6.62239 17.3854 6.53125 17.2734 6.53125C17.1615 6.53125 17.0703 6.62239 17.0703 6.73438C17.0703 6.84616 17.1616 6.9375 17.2734 6.9375Z" fill="black" stroke="#401C86"></path></g></g><defs><clipPath id="clip0_6229_6326"><rect width="24" height="24" fill="white"></rect></clipPath></defs></svg> 