<?xml version="1.0" encoding="UTF-8"?> <svg xmlns="http://www.w3.org/2000/svg" width="24" height="24" viewBox="0 0 24 24" fill="none"><g clip-path="url(#clip0_6231_6406)"><mask id="mask0_6231_6406" style="mask-type:luminance" maskUnits="userSpaceOnUse" x="0" y="0" width="25" height="25"><path d="M0.00195312 0.00781441H24.002V24.0078H0.00195312V0.00781441Z" fill="white"></path></mask><g mask="url(#mask0_6231_6406)"><path d="M23.2988 13.4197V23.3047H18.9315C18.6301 22.5627 18.2452 21.8469 17.7849 21.163C17.0991 20.1444 16.2455 19.1961 15.2499 18.3373C14.2913 17.5095 13.2005 16.7652 12.002 16.1206C15.1595 14.4233 19.0674 13.4197 23.2988 13.4197Z" stroke="#401C86" stroke-miterlimit="10" stroke-linecap="round" stroke-linejoin="round"></path><path d="M23.2989 16.3737V23.3047H18.9316C18.6302 22.5627 18.2453 21.8469 17.785 21.163C17.0992 20.1444 16.2456 19.1961 15.25 18.3373C17.4859 17.105 20.2745 16.3737 23.2989 16.3737Z" stroke="#401C86" stroke-miterlimit="10" stroke-linecap="round" stroke-linejoin="round"></path><path d="M23.2981 19.4066V23.3047H18.9307C18.6293 22.5627 18.2445 21.8469 17.7842 21.163C19.1529 20.083 21.1165 19.4066 23.2981 19.4066Z" stroke="#401C86" stroke-miterlimit="10" stroke-linecap="round" stroke-linejoin="round"></path><path d="M18.9315 23.3047H0.705078V13.4197C4.93648 13.4197 8.84445 14.4233 12.002 16.1206C13.2005 16.7652 14.2913 17.5095 15.2499 18.3373C16.2455 19.1961 17.0991 20.1444 17.7849 21.163C18.2452 21.8469 18.6301 22.5627 18.9315 23.3047Z" stroke="#401C86" stroke-miterlimit="10" stroke-linecap="round" stroke-linejoin="round"></path><path d="M0.705078 16.7268V23.3047H12.834C11.2902 19.5021 6.44436 16.7268 0.705078 16.7268Z" stroke="#401C86" stroke-miterlimit="10" stroke-linecap="round" stroke-linejoin="round"></path><path d="M0.705078 19.7296V23.3047H7.2972C6.45814 21.238 3.82437 19.7296 0.705078 19.7296Z" stroke="#401C86" stroke-miterlimit="10" stroke-linecap="round" stroke-linejoin="round"></path><path d="M3.5293 13.1797V10.1825" stroke="#401C86" stroke-miterlimit="10" stroke-linecap="round" stroke-linejoin="round"></path><path d="M3.5293 10.1836H2.58205C1.54541 10.1836 0.705078 9.34327 0.705078 8.30663V7.35938H1.65233C2.68897 7.35938 3.5293 8.1997 3.5293 9.23634V10.1836Z" stroke="#401C86" stroke-miterlimit="10" stroke-linecap="round" stroke-linejoin="round"></path><path d="M3.5293 10.1836H4.47655C5.51319 10.1836 6.35352 9.34327 6.35352 8.30663V7.35938H5.40627C4.36962 7.35938 3.5293 8.1997 3.5293 9.23634V10.1836Z" stroke="#401C86" stroke-miterlimit="10" stroke-linecap="round" stroke-linejoin="round"></path><path d="M17.6504 13.6992V10.702" stroke="#401C86" stroke-miterlimit="10" stroke-linecap="round" stroke-linejoin="round"></path><path d="M17.6504 10.6992H16.7031C15.6665 10.6992 14.8262 9.85889 14.8262 8.82225V7.875H15.7734C16.8101 7.875 17.6504 8.71533 17.6504 9.75197V10.6992Z" stroke="#401C86" stroke-miterlimit="10" stroke-linecap="round" stroke-linejoin="round"></path><path d="M17.6504 10.6992H18.5976C19.6343 10.6992 20.4746 9.85889 20.4746 8.82225V7.875H19.5274C18.4907 7.875 17.6504 8.71533 17.6504 9.75197V10.6992Z" stroke="#401C86" stroke-miterlimit="10" stroke-linecap="round" stroke-linejoin="round"></path><path d="M12.002 2.12109C12.002 1.34119 11.3697 0.708984 10.5898 0.708984C9.80994 0.708984 9.17773 1.34119 9.17773 2.12109C8.39783 2.12109 7.76562 2.7533 7.76562 3.5332C7.76562 4.31311 8.39783 4.94531 9.17773 4.94531H13.4141C14.194 4.94531 14.8262 4.31311 14.8262 3.5332C14.8262 2.7533 14.194 2.12109 13.4141 2.12109H12.002Z" stroke="#401C86" stroke-miterlimit="10" stroke-linejoin="round"></path></g></g><defs><clipPath id="clip0_6231_6406"><rect width="24" height="24" fill="white"></rect></clipPath></defs></svg> 