<?xml version="1.0" encoding="UTF-8"?> <svg xmlns="http://www.w3.org/2000/svg" width="24" height="24" viewBox="0 0 24 24" fill="none"><g clip-path="url(#clip0_6261_5839)"><path d="M5.97502 20.2836H5.22187C3.55922 20.2836 2.20936 18.9336 2.20936 17.2711C2.20936 16.0243 3.22177 15.0117 4.46873 15.0117H3.71564C2.05298 15.0118 0.703125 13.6618 0.703125 11.9993C0.703125 10.3367 2.05298 8.98673 3.71564 8.98673H4.46878C3.22181 8.98673 2.20941 7.97414 2.20941 6.72736C2.20941 5.06484 3.55927 3.71484 5.22192 3.71484H5.97506" stroke="#401C86" stroke-miterlimit="10" stroke-linecap="round" stroke-linejoin="round"></path><path d="M18.0254 20.2837H18.7785C20.4412 20.2837 21.791 18.9337 21.791 17.2711C21.791 16.0244 20.7786 15.0118 19.5317 15.0118H20.2848C21.9475 15.0118 23.2973 13.6618 23.2973 11.9992C23.2973 10.3367 21.9475 8.98673 20.2848 8.98673H19.5317C20.7786 8.98673 21.791 7.97414 21.791 6.72736C21.791 5.06484 20.4412 3.71484 18.7785 3.71484H18.0254" stroke="#401C86" stroke-miterlimit="10" stroke-linecap="round" stroke-linejoin="round"></path><path d="M7.48084 5.22188C6.64952 5.22188 5.97461 4.54706 5.97461 3.71564C5.97461 2.05312 7.32447 0.703125 8.98708 0.703125C10.6497 0.703125 11.9996 2.05312 11.9996 3.71564C11.9996 2.05312 13.3495 0.703125 15.0121 0.703125C16.6748 0.703125 18.0246 2.05312 18.0246 3.71564C18.0246 4.54711 17.3497 5.22188 16.5184 5.22188" stroke="#401C86" stroke-miterlimit="10" stroke-linecap="round" stroke-linejoin="round"></path><path d="M7.48084 18.7773C6.64952 18.7773 5.97461 19.4522 5.97461 20.2836C5.97461 21.9461 7.32447 23.2961 8.98712 23.2961C10.6498 23.2961 11.9996 21.9461 11.9996 20.2836C11.9996 21.9461 13.3495 23.2961 15.0121 23.2961C16.6748 23.2961 18.0246 21.9461 18.0246 20.2836C18.0246 19.4521 17.3497 18.7773 16.5184 18.7773" stroke="#401C86" stroke-miterlimit="10" stroke-linecap="round" stroke-linejoin="round"></path><path d="M8.23438 14.2609V11.2484C8.23438 10.8489 8.39305 10.4659 8.67556 10.1835C8.95803 9.90072 9.34114 9.74219 9.74061 9.74219C10.1401 9.74219 10.5232 9.90072 10.8057 10.1835C11.0882 10.4659 11.2468 10.8489 11.2468 11.2484C11.2468 12.5626 11.2468 14.2609 11.2468 14.2609" stroke="#401C86" stroke-miterlimit="10" stroke-linecap="round" stroke-linejoin="round"></path><path d="M8.23438 12.7539H11.2468" stroke="#401C86" stroke-miterlimit="10" stroke-linecap="round" stroke-linejoin="round"></path><path d="M13.5059 9.74219H15.7652" stroke="#401C86" stroke-miterlimit="10" stroke-linecap="round" stroke-linejoin="round"></path><path d="M13.5059 14.2578H15.7652" stroke="#401C86" stroke-miterlimit="10" stroke-linecap="round" stroke-linejoin="round"></path><path d="M14.6357 9.74219V14.2609" stroke="#401C86" stroke-miterlimit="10" stroke-linecap="round" stroke-linejoin="round"></path><path d="M12 3.71484V6.72731" stroke="#401C86" stroke-miterlimit="10" stroke-linecap="round" stroke-linejoin="round"></path><path d="M12 20.2859V17.2734" stroke="#401C86" stroke-miterlimit="10" stroke-linecap="round" stroke-linejoin="round"></path></g><defs><clipPath id="clip0_6261_5839"><rect width="24" height="24" fill="white"></rect></clipPath></defs></svg> 