<?xml version="1.0" encoding="UTF-8"?> <svg xmlns="http://www.w3.org/2000/svg" width="24" height="24" viewBox="0 0 24 24" fill="none"><g clip-path="url(#clip0_6262_5882)"><path fill-rule="evenodd" clip-rule="evenodd" d="M0.703125 1.35938H14.3906V3.20902V22.6406H12.5409H2.55277H0.703125V3.20902V1.35938Z" stroke="#401C86" stroke-miterlimit="22.9256" stroke-linecap="round" stroke-linejoin="round"></path><path fill-rule="evenodd" clip-rule="evenodd" d="M4.54688 1.35938H10.5469V2.76562C10.5469 3.53972 9.91472 4.17188 9.14062 4.17188H5.95312C5.17903 4.17188 4.54688 3.54014 4.54688 2.76562V1.35938Z" stroke="#401C86" stroke-miterlimit="22.9256" stroke-linecap="round" stroke-linejoin="round"></path><path d="M17.2859 10.3672C17.6281 10.8448 17.8122 11.4177 17.8122 12.0054C17.8122 12.5935 17.6279 13.1667 17.2852 13.6446" stroke="#401C86" stroke-miterlimit="22.9256" stroke-linecap="round" stroke-linejoin="round"></path><path d="M19.5146 8.75C20.1982 9.69795 20.5661 10.837 20.5661 12.0057C20.5661 13.1667 20.2031 14.2985 19.5279 15.2429" stroke="#401C86" stroke-miterlimit="22.9256" stroke-linecap="round" stroke-linejoin="round"></path><path d="M21.7539 7.1875C22.7572 8.59384 23.2965 10.2784 23.2965 12.006C23.2965 13.7296 22.7598 15.4103 21.7608 16.8149" stroke="#401C86" stroke-miterlimit="22.9256" stroke-linecap="round" stroke-linejoin="round"></path><path d="M3.46973 13.4705V10.5328L5.10252 13.4089C5.1328 13.4621 5.1652 13.436 5.1652 13.3713L5.1426 10.5273" stroke="#401C86" stroke-miterlimit="10" stroke-linecap="round" stroke-linejoin="round"></path><path d="M7.93012 10.5508H6.95508V13.4724" stroke="#401C86" stroke-miterlimit="10" stroke-linecap="round" stroke-linejoin="round"></path><path d="M6.95508 12.2578H7.85269" stroke="#401C86" stroke-miterlimit="10" stroke-linecap="round" stroke-linejoin="round"></path><path d="M11.4885 10.7787C11.3014 10.62 11.0759 10.5273 10.8332 10.5273C10.1859 10.5273 9.66113 11.1862 9.66113 11.9989C9.66113 12.8117 10.1859 13.4705 10.8332 13.4705C11.191 13.4705 11.4406 13.214 11.5716 13.0551" stroke="#401C86" stroke-miterlimit="10" stroke-linecap="round" stroke-linejoin="round"></path></g><defs><clipPath id="clip0_6262_5882"><rect width="24" height="24" fill="white"></rect></clipPath></defs></svg> 