<?xml version="1.0" encoding="UTF-8"?> <svg xmlns="http://www.w3.org/2000/svg" width="24" height="24" viewBox="0 0 24 24" fill="none"><path d="M11.9996 3.61453C12.8036 3.61453 13.4554 2.96279 13.4554 2.15883C13.4554 1.35487 12.8036 0.703125 11.9996 0.703125C11.1957 0.703125 10.5439 1.35487 10.5439 2.15883C10.5439 2.96279 11.1957 3.61453 11.9996 3.61453Z" stroke="#401C86" stroke-miterlimit="10"></path><path d="M3.47719 8.53641C4.28115 8.53641 4.93289 7.88467 4.93289 7.0807C4.93289 6.27674 4.28115 5.625 3.47719 5.625C2.67322 5.625 2.02148 6.27674 2.02148 7.0807C2.02148 7.88467 2.67322 8.53641 3.47719 8.53641Z" stroke="#401C86" stroke-miterlimit="10"></path><path d="M3.47719 18.3763C4.28115 18.3763 4.93289 17.7245 4.93289 16.9205C4.93289 16.1166 4.28115 15.4648 3.47719 15.4648C2.67322 15.4648 2.02148 16.1166 2.02148 16.9205C2.02148 17.7245 2.67322 18.3763 3.47719 18.3763Z" stroke="#401C86" stroke-miterlimit="10"></path><path d="M11.9996 23.2981C12.8036 23.2981 13.4554 22.6464 13.4554 21.8424C13.4554 21.0385 12.8036 20.3867 11.9996 20.3867C11.1957 20.3867 10.5439 21.0385 10.5439 21.8424C10.5439 22.6464 11.1957 23.2981 11.9996 23.2981Z" stroke="#401C86" stroke-miterlimit="10"></path><path d="M20.5231 18.3763C21.327 18.3763 21.9788 17.7245 21.9788 16.9205C21.9788 16.1166 21.327 15.4648 20.5231 15.4648C19.7191 15.4648 19.0674 16.1166 19.0674 16.9205C19.0674 17.7245 19.7191 18.3763 20.5231 18.3763Z" stroke="#401C86" stroke-miterlimit="10"></path><path d="M20.5231 8.53641C21.327 8.53641 21.9788 7.88467 21.9788 7.0807C21.9788 6.27674 21.327 5.625 20.5231 5.625C19.7191 5.625 19.0674 6.27674 19.0674 7.0807C19.0674 7.88467 19.7191 8.53641 20.5231 8.53641Z" stroke="#401C86" stroke-miterlimit="10"></path><path d="M19.2621 6.35162L13.2607 2.88672" stroke="#401C86" stroke-miterlimit="10"></path><path d="M10.7396 2.88672L4.73828 6.35162" stroke="#401C86" stroke-miterlimit="10"></path><path d="M3.47754 8.53516V15.465" stroke="#401C86" stroke-miterlimit="10"></path><path d="M4.73828 17.6484L10.7396 21.1133" stroke="#401C86" stroke-miterlimit="10"></path><path d="M13.2607 21.1133L19.2621 17.6484" stroke="#401C86" stroke-miterlimit="10"></path><path d="M20.5225 15.4649V8.53516" stroke="#401C86" stroke-miterlimit="10"></path><path d="M8.36973 15.3383C7.74839 14.9817 7.36523 14.3201 7.36523 13.6037V10.3963C7.36523 9.67987 7.74839 9.0182 8.36973 8.66162L11.0046 7.14945C11.6211 6.79563 12.3791 6.79563 12.9956 7.14945L15.6306 8.66162C16.2519 9.0182 16.635 9.67987 16.635 10.3963V13.6037C16.635 14.3201 16.2519 14.9817 15.6306 15.3383L12.9956 16.8505C12.3791 17.2043 11.6211 17.2043 11.0046 16.8505L8.36973 15.3383Z" stroke="#401C86" stroke-miterlimit="10" stroke-linejoin="round"></path><path d="M7.36523 9.23828L11.0046 11.3269C11.6212 11.6807 12.3791 11.6807 12.9956 11.3269L16.635 9.23828" stroke="#401C86" stroke-miterlimit="10" stroke-linejoin="round"></path><path d="M12 11.8984V17.4222" stroke="#401C86" stroke-miterlimit="10" stroke-linejoin="round"></path></svg> 