<?xml version="1.0" encoding="UTF-8"?> <svg xmlns="http://www.w3.org/2000/svg" width="24" height="24" viewBox="0 0 24 24" fill="none"><g clip-path="url(#clip0_6271_18620)"><mask id="mask0_6271_18620" style="mask-type:luminance" maskUnits="userSpaceOnUse" x="0" y="0" width="24" height="24"><path d="M0 1.90735e-06H24V24H0V1.90735e-06Z" fill="white"></path></mask><g mask="url(#mask0_6271_18620)"><path d="M19.0312 14.7656C21.3612 14.7656 23.25 12.8768 23.25 10.5469C23.25 8.36691 21.5964 6.5737 19.4752 6.35184C19.4905 6.18961 19.5 6.02564 19.5 5.85938C19.5 3.01167 17.1915 0.703125 14.3438 0.703125C12.4787 0.703125 10.85 1.69659 9.94453 3.17991C9.31139 2.80031 8.57316 2.57812 7.78125 2.57812C5.45128 2.57812 3.5625 4.46691 3.5625 6.79688C3.5625 7.29487 3.6533 7.77061 3.81173 8.21419C2.10239 8.32762 0.75 9.7463 0.75 11.4844C0.75 13.2965 2.21906 14.7656 4.03125 14.7656H19.0312Z" stroke="#401C86" stroke-miterlimit="10" stroke-linecap="round" stroke-linejoin="round"></path><path d="M13.4062 21.8906C13.4062 22.6673 12.7766 23.2969 12 23.2969C11.2234 23.2969 10.5938 22.6673 10.5938 21.8906C10.5938 21.114 11.2234 20.4844 12 20.4844C12.7766 20.4844 13.4062 21.114 13.4062 21.8906Z" stroke="#401C86" stroke-miterlimit="10" stroke-linecap="round" stroke-linejoin="round"></path><path d="M21.375 21.8906C21.375 22.6673 20.7454 23.2969 19.9688 23.2969C19.1921 23.2969 18.5625 22.6673 18.5625 21.8906C18.5625 21.114 19.1921 20.4844 19.9688 20.4844C20.7454 20.4844 21.375 21.114 21.375 21.8906Z" stroke="#401C86" stroke-miterlimit="10" stroke-linecap="round" stroke-linejoin="round"></path><path d="M12 14.7656V20.4844" stroke="#401C86" stroke-miterlimit="10" stroke-linecap="round" stroke-linejoin="round"></path><path d="M19.4999 5.85938C19.4999 7.10592 19.0576 8.24911 18.3213 9.14062" stroke="#401C86" stroke-miterlimit="10" stroke-linecap="round" stroke-linejoin="round"></path><path d="M7.78125 2.57812C10.1112 2.57812 12 4.46691 12 6.79688" stroke="#401C86" stroke-miterlimit="10" stroke-linecap="round" stroke-linejoin="round"></path><path d="M15.75 14.7651V20.4839L18.6344 21.4453" stroke="#401C86" stroke-miterlimit="10" stroke-linecap="round" stroke-linejoin="round"></path><path d="M2.625 21.8906C2.625 22.6673 3.25462 23.2969 4.03125 23.2969C4.80788 23.2969 5.4375 22.6673 5.4375 21.8906C5.4375 21.114 4.80788 20.4844 4.03125 20.4844C3.25462 20.4844 2.625 21.114 2.625 21.8906Z" stroke="#401C86" stroke-miterlimit="10" stroke-linecap="round" stroke-linejoin="round"></path><path d="M8.24959 14.7651V20.4839L5.36523 21.4453" stroke="#401C86" stroke-miterlimit="10" stroke-linecap="round" stroke-linejoin="round"></path></g></g><defs><clipPath id="clip0_6271_18620"><rect width="24" height="24" fill="white"></rect></clipPath></defs></svg> 