<?xml version="1.0" encoding="UTF-8"?> <svg xmlns="http://www.w3.org/2000/svg" width="24" height="24" viewBox="0 0 24 24" fill="none"><g clip-path="url(#clip0_6232_11207)"><mask id="mask0_6232_11207" style="mask-type:luminance" maskUnits="userSpaceOnUse" x="0" y="0" width="25" height="25"><path d="M0.00195312 0.00781441H24.002V24.0078H0.00195312V0.00781441Z" fill="white"></path></mask><g mask="url(#mask0_6232_11207)"><path d="M2.83733 16.6495C3.33345 16.6495 3.78992 16.8189 4.15212 17.1031C4.48236 17.3621 4.94417 17.3418 5.25031 17.0546C6.16691 16.1947 7.5957 16.2013 8.50442 17.0691C8.8633 17.4118 9.43747 17.373 9.74689 16.985C10.8731 15.5732 13.0047 15.5313 14.1852 16.8984C14.4886 17.2498 15.0224 17.2893 15.3744 16.9865C16.3206 16.172 17.7372 16.2335 18.6105 17.1261C18.9234 17.4459 19.4301 17.4663 19.7676 17.1725C20.142 16.8468 20.6313 16.6495 21.1665 16.6495C22.3442 16.6495 23.2988 17.6041 23.2988 18.7818V20.4922H0.705078V18.7818C0.705078 17.6041 1.65973 16.6495 2.83733 16.6495Z" stroke="#401C86" stroke-miterlimit="22.926" stroke-linecap="round" stroke-linejoin="round"></path><path d="M6.452 0.710939H17.552C18.3151 0.710939 18.9395 1.34375 18.9395 2.11719V21.8984C18.9395 22.6719 18.3151 23.3047 17.552 23.3047H6.452C5.68887 23.3047 5.06445 22.6719 5.06445 21.8984V2.11719C5.06445 1.34375 5.68887 0.710939 6.452 0.710939Z" stroke="#401C86" stroke-miterlimit="22.926" stroke-linecap="round" stroke-linejoin="round"></path><path d="M9.23633 0.710938H14.7676V2.11719C14.7676 2.89067 14.1348 3.52344 13.3613 3.52344H10.6426C9.86914 3.52344 9.23633 2.89067 9.23633 2.11719V0.710938Z" stroke="#401C86" stroke-miterlimit="22.926" stroke-linecap="round" stroke-linejoin="round"></path><path d="M12.002 9.8493C13.0171 10.2902 13.6895 11.0593 13.6895 11.9344C13.6895 12.8095 13.0171 13.5787 12.002 14.0195C10.9868 13.5787 10.3145 12.8095 10.3145 11.9344C10.3145 11.0593 10.9868 10.2902 12.002 9.8493Z" stroke="#401C86" stroke-miterlimit="22.926" stroke-linecap="round" stroke-linejoin="round"></path><path d="M12.002 15.6367V14.4882" stroke="#401C86" stroke-miterlimit="22.926" stroke-linecap="round" stroke-linejoin="round"></path><path d="M7.73633 6.33541H9.18945L9.80323 7.39844" stroke="#401C86" stroke-miterlimit="22.926" stroke-linecap="round" stroke-linejoin="round"></path><path d="M14.627 9.10156L15.377 8.35156H16.127" stroke="#401C86" stroke-miterlimit="22.926" stroke-linecap="round" stroke-linejoin="round"></path></g></g><defs><clipPath id="clip0_6232_11207"><rect width="24" height="24" fill="white"></rect></clipPath></defs></svg> 