<?xml version="1.0" encoding="UTF-8"?> <svg xmlns="http://www.w3.org/2000/svg" width="24" height="24" viewBox="0 0 24 24" fill="none"><g clip-path="url(#clip0_6232_11262)"><path d="M20.4844 23.2969H3.51562C1.96233 23.2969 0.703125 22.0377 0.703125 20.4844C0.703125 18.9311 1.96233 17.6719 3.51562 17.6719H20.4844C22.0377 17.6719 23.2969 18.9311 23.2969 20.4844C23.2969 22.0377 22.0377 23.2969 20.4844 23.2969Z" stroke="#401C86" stroke-miterlimit="10" stroke-linecap="round" stroke-linejoin="round"></path><circle cx="4.47949" cy="20.4844" r="0.703125" fill="#401C86"></circle><circle cx="7.4873" cy="20.4844" r="0.703125" fill="#401C86"></circle><circle cx="10.4951" cy="20.4844" r="0.703125" fill="#401C86"></circle><circle cx="13.5039" cy="20.4844" r="0.703125" fill="#401C86"></circle><circle cx="16.5117" cy="20.4844" r="0.703125" fill="#401C86"></circle><circle cx="19.5195" cy="20.4844" r="0.703125" fill="#401C86"></circle><path d="M10.5941 17.67V13.1616C10.5941 12.3356 10.266 11.543 9.68191 10.9594C9.09785 10.3753 8.76973 9.58313 8.76973 8.75719V7.78125H5.96988V8.75719C5.96988 9.58313 5.64176 10.3753 5.0577 10.9594C4.76613 11.2514 4.53785 11.5955 4.3827 11.97C4.22754 12.3441 4.14551 12.7486 4.14551 13.1616V17.67" stroke="#401C86" stroke-miterlimit="10" stroke-linecap="round" stroke-linejoin="round"></path><path d="M19.8548 17.67V13.1616C19.8548 12.7486 19.7728 12.3441 19.6177 11.97C19.4625 11.5955 19.2342 11.2514 18.9427 10.9594C18.3586 10.3753 18.0305 9.58313 18.0305 8.75719V7.78125H15.2306V8.75719C15.2306 9.58313 14.9025 10.3753 14.3184 10.9594C13.7344 11.543 13.4062 12.3356 13.4062 13.1616V17.67" stroke="#401C86" stroke-miterlimit="10" stroke-linecap="round" stroke-linejoin="round"></path><path d="M5.16406 7.78125H9.57481" stroke="#401C86" stroke-miterlimit="10" stroke-linecap="round" stroke-linejoin="round"></path><path d="M14.4248 7.78125H18.8356" stroke="#401C86" stroke-miterlimit="10" stroke-linecap="round" stroke-linejoin="round"></path><path d="M16.6309 3.51562C17.4075 3.51562 18.0371 2.88603 18.0371 2.10938C18.0371 1.33272 17.4075 0.703125 16.6309 0.703125C15.8542 0.703125 15.2246 1.33272 15.2246 2.10938C15.2246 2.88603 15.8542 3.51562 16.6309 3.51562Z" stroke="#401C86" stroke-miterlimit="10" stroke-linecap="round" stroke-linejoin="round"></path><path d="M23.2972 2.10938H18.0371" stroke="#401C86" stroke-miterlimit="10" stroke-linecap="round" stroke-linejoin="round"></path><path d="M15.2243 2.10938H0.703125" stroke="#401C86" stroke-miterlimit="10" stroke-linecap="round" stroke-linejoin="round"></path><path d="M16.6309 3.51562V4.97063" stroke="#401C86" stroke-miterlimit="10" stroke-linecap="round" stroke-linejoin="round"></path></g><defs><clipPath id="clip0_6232_11262"><rect width="24" height="24" fill="white"></rect></clipPath></defs></svg> 