<?xml version="1.0" encoding="UTF-8"?> <svg xmlns="http://www.w3.org/2000/svg" width="220" height="60" viewBox="0 0 220 60" fill="none"><path d="M0 4C0 1.79086 1.79086 0 4 0H216C218.209 0 220 1.79086 220 4V56C220 58.2091 218.209 60 216 60H4C1.79086 60 0 58.2091 0 56V4Z" fill="white"></path><g clip-path="url(#clip0_6143_10059)"><path d="M32.852 22.5747C32.595 21.925 32.2523 21.3681 31.8239 20.8113C31.3956 20.3472 30.8815 19.8831 30.2818 19.6047C29.6821 19.3263 29.0824 19.1406 28.397 19.1406H20.001V40.766H28.4827C29.168 40.766 29.7678 40.6732 30.3675 40.3948C30.9672 40.1164 31.4812 39.7451 31.9096 39.281C32.338 38.817 32.6807 38.2601 32.9377 37.6104C33.1947 36.9607 33.2804 36.311 33.2804 35.5685V24.6166C33.2804 23.8741 33.1947 23.1316 32.9377 22.4819L32.852 22.5747ZM31.4812 35.847C31.4812 36.8679 31.2242 37.6104 30.6245 38.1673C30.1104 38.7242 29.4251 39.0026 28.5683 39.0026H21.6288V21.0897H28.5683C28.9967 21.0897 29.3394 21.0897 29.6821 21.3681C30.0248 21.5538 30.3675 21.7394 30.6245 22.1106C30.8815 22.3891 31.1385 22.7603 31.2242 23.2244C31.3956 23.5956 31.4812 24.0597 31.4812 24.5238V35.847Z" fill="#1B194E"></path><path d="M61.7242 39.0016H59.3253V20.9959H61.7242C62.1525 20.9959 62.3239 20.7174 62.3239 20.1606C62.3239 19.6037 62.1525 19.2324 61.7242 19.2324H55.213C54.7846 19.2324 54.6133 19.5109 54.6133 20.1606C54.6133 20.8102 54.7846 21.0887 55.213 21.0887H57.6119V39.0016H55.213C54.7846 39.0016 54.6133 39.28 54.6133 39.9297C54.6133 40.5794 54.7846 40.8578 55.213 40.8578H61.7242C62.1525 40.8578 62.3239 40.5794 62.3239 39.9297C62.3239 39.28 62.1525 39.0016 61.7242 39.0016Z" fill="#1B194E"></path><path d="M78.516 28.7004C78.9444 28.0507 79.1158 27.1225 79.1158 26.1016V24.0597C79.1158 23.3172 79.0301 22.6675 78.7731 22.1106C78.516 21.5538 78.259 20.9969 77.9163 20.5328C77.5736 20.0688 77.0596 19.7903 76.5455 19.5119C76.0315 19.2334 75.4318 19.1406 74.8321 19.1406H66.6074V40.2092C66.6074 40.6732 66.8644 40.9517 67.4642 40.9517C68.0639 40.9517 68.2352 40.6732 68.2352 40.2092V20.9041H75.0891C75.7745 20.9041 76.3742 21.1825 76.8026 21.6466C77.2309 22.1106 77.488 22.8531 77.488 23.6885V26.2872C77.488 27.2154 77.3166 27.9579 76.8882 28.4219C76.4599 28.886 75.8602 29.1644 75.0034 29.1644H70.6341V30.9279H74.8321C75.6888 30.9279 76.2885 31.2063 76.8026 31.7632C77.2309 32.3201 77.488 33.0626 77.488 34.0835V40.1164C77.488 40.302 77.488 40.4876 77.745 40.6732C77.9163 40.8589 78.0877 40.8589 78.4304 40.8589C78.9444 40.8589 79.2871 40.5804 79.2871 40.1164V34.0835C79.2871 33.0626 79.1158 32.1344 78.6874 31.4847C78.259 30.7422 77.6593 30.371 76.7169 30.1854C77.6593 29.8141 78.3447 29.35 78.6874 28.7004H78.516Z" fill="#1B194E"></path><path d="M95.2223 19.0488C94.6226 19.0488 94.3655 19.3273 94.3655 19.7913V24.3392C94.3655 24.8032 94.3655 25.2673 94.2799 25.5457C94.2799 25.917 94.0228 26.1954 93.7658 26.5667L89.9962 30.6504H89.2251L85.4555 26.5667C85.1128 26.1954 84.9415 25.917 84.8558 25.5457C84.8558 25.1745 84.7701 24.8032 84.7701 24.3392V19.7913C84.7701 19.3273 84.5131 19.0488 83.9134 19.0488C83.3137 19.0488 83.0566 19.3273 83.0566 19.7913V24.5248C83.0566 25.917 83.3993 26.9379 84.0847 27.5876L88.7111 32.5995V40.2102C88.7111 40.6742 88.9681 40.9527 89.6535 40.9527C90.3389 40.9527 90.5102 40.6742 90.5102 40.2102V32.5995L95.1366 27.5876C95.565 27.2164 95.822 26.7523 95.9077 26.2882C96.079 25.8242 96.079 25.2673 96.079 24.5248V19.7913C96.079 19.3273 95.822 19.0488 95.2223 19.0488Z" fill="#1B194E"></path><path d="M112.442 19.0488C111.843 19.0488 111.586 19.3273 111.586 19.7913V29.3511L111.757 32.3211L110.215 30.0008L102.333 19.8841C102.076 19.5129 101.819 19.3273 101.733 19.2345C101.647 19.2345 101.39 19.1416 101.133 19.1416C100.876 19.1416 100.619 19.1416 100.534 19.4201C100.448 19.6985 100.362 19.7913 100.362 19.977V40.3958C100.362 40.8599 100.619 41.1383 101.219 41.1383C101.819 41.1383 102.076 40.8599 102.076 40.3958V24.896L101.904 21.7404L103.361 23.9679L111.671 34.7342V40.303C111.671 40.7671 111.928 41.0455 112.528 41.0455C113.128 41.0455 113.385 40.7671 113.385 40.303V19.7913C113.385 19.3273 113.128 19.0488 112.528 19.0488H112.442Z" fill="#1B194E"></path><path d="M129.063 38.9088H120.153V31.0197V29.1634V21.0887H129.063C129.492 21.0887 129.663 20.8102 129.663 20.1606C129.663 19.5109 129.492 19.2324 129.063 19.2324H118.525V40.6722H129.063C129.492 40.6722 129.663 40.3938 129.663 39.7441C129.663 39.0944 129.492 38.816 129.063 38.816V38.9088ZM122.552 29.0706V30.9269H127.007C127.435 30.9269 127.607 30.6484 127.607 29.9987C127.607 29.349 127.435 29.0706 127.007 29.0706H122.552Z" fill="#1B194E"></path><path d="M146.37 24.2453C146.541 23.7813 146.541 23.3172 146.541 22.6675V19.8831C146.541 19.4191 146.284 19.1406 145.684 19.1406C145.084 19.1406 144.827 19.4191 144.827 19.8831V22.5747C144.827 23.0388 144.827 23.41 144.656 23.5956C144.485 23.7813 144.399 24.1525 144.142 24.431L140.544 29.0716H140.03L135.917 24.8022C135.575 24.431 135.403 24.1525 135.318 23.8741C135.318 23.5956 135.232 23.2244 135.232 22.7603V19.9759C135.232 19.5119 134.975 19.2334 134.375 19.2334C133.776 19.2334 133.519 19.5119 133.519 19.9759V22.5747C133.519 23.5028 133.604 24.1525 133.776 24.6166C133.947 25.0807 134.29 25.5447 134.632 25.916L138.402 29.9069L134.718 34.4548C134.461 34.7332 134.29 35.0116 134.118 35.2901C133.947 35.5685 133.861 35.847 133.776 36.1254C133.69 36.4038 133.604 36.6823 133.604 37.0535C133.604 37.332 133.604 37.796 133.604 38.1673V40.5804C133.604 41.0445 133.861 41.3229 134.461 41.3229C135.061 41.3229 135.318 41.0445 135.318 40.5804V38.3529C135.318 38.0745 135.318 37.796 135.318 37.5176C135.318 37.2391 135.318 37.0535 135.489 36.8679C135.489 36.6823 135.66 36.4966 135.746 36.311C135.832 36.1254 136.003 35.9398 136.174 35.7541L139.516 31.5776H140.03L143.971 35.7541C144.313 36.1254 144.57 36.4966 144.656 36.8679C144.742 37.2391 144.827 37.6104 144.827 38.1673V40.766C144.827 41.2301 145.084 41.5085 145.684 41.5085C146.284 41.5085 146.541 41.2301 146.541 40.766V38.0745C146.541 37.7032 146.541 37.332 146.541 37.0535C146.541 36.7751 146.455 36.4966 146.284 36.2182C146.198 35.9398 146.027 35.6613 145.856 35.4757C145.684 35.1973 145.427 34.9188 145.17 34.6404L141.572 30.8351L145.513 26.1016C145.941 25.6375 146.198 25.1735 146.37 24.7094V24.2453Z" fill="#1B194E"></path><path d="M156.65 15.0566H155.022V44.9424H156.65V15.0566Z" fill="#A7A9AC"></path><path d="M50.7575 32.2264V40.3011C50.7575 40.7652 50.4148 41.1364 49.9007 41.1364C49.4724 41.1364 49.044 40.7652 49.044 40.3011V35.1964H41.6761V33.433H49.044V31.8551C49.044 31.3911 49.044 30.927 48.8726 30.5558L46.0454 21.4601C45.8741 20.996 45.4457 20.6248 44.9317 20.6248H43.3039C42.7898 20.6248 42.2758 20.996 42.1901 21.4601L39.5342 30.7414C39.4486 31.1126 39.3629 31.5767 39.3629 31.948V40.3011C39.3629 40.7652 39.0202 41.1364 38.5061 41.1364C38.0778 41.1364 37.6494 40.7652 37.6494 40.3011V32.3192C37.6494 31.4839 37.7351 30.6486 37.9921 29.8133L38.8488 26.6576L40.5623 20.532C40.8193 19.6038 41.7617 18.8613 42.7898 18.8613H45.2744C46.3024 18.8613 47.1592 19.511 47.5019 20.4391L49.3867 26.6576L50.2434 29.5348C50.5004 30.3701 50.6718 31.2983 50.6718 32.2264H50.7575Z" fill="#1B194E"></path><path style="mix-blend-mode:multiply" d="M200.001 31.3914C199.402 37.9811 191.605 43.1787 182.01 43.1787C172.415 43.1787 164.618 37.9811 164.019 31.3914C169.33 30.1848 175.499 29.5352 182.01 29.5352C188.521 29.5352 194.69 30.1848 200.001 31.3914Z" fill="url(#paint0_linear_6143_10059)"></path><mask id="mask0_6143_10059" style="mask-type:luminance" maskUnits="userSpaceOnUse" x="166" y="29" width="31" height="13"><path d="M181.838 41.8783C190.118 41.8783 196.83 39.1357 196.83 35.7526C196.83 32.3695 190.118 29.627 181.838 29.627C173.557 29.627 166.845 32.3695 166.845 35.7526C166.845 39.1357 173.557 41.8783 181.838 41.8783Z" fill="white"></path></mask><g mask="url(#mask0_6143_10059)"><path d="M187.836 40.3936C187.836 40.3936 187.836 40.3936 187.75 40.3008L187.836 40.3936Z" fill="white"></path><path d="M192.976 38.167C192.976 38.167 193.147 38.167 193.061 38.0742L192.976 38.167Z" fill="white"></path><path d="M193.061 32.6905H193.147C193.147 32.6905 193.147 32.5977 192.976 32.5977L193.061 32.6905Z" fill="white"></path><path d="M194.604 37.4238H194.433C194.433 37.4238 194.433 37.5166 194.433 37.6095L194.604 37.4238Z" fill="white"></path><path d="M180.895 31.6699C180.895 31.6699 180.895 31.6699 180.81 31.6699C180.81 31.6699 180.81 31.6699 180.81 31.7627L180.895 31.6699Z" fill="white"></path><path d="M186.122 33.9902C186.122 33.9902 186.122 33.9902 186.208 33.9902V34.083L186.122 33.9902Z" fill="white"></path><path d="M187.492 34.6388C187.492 34.6388 187.578 34.6388 187.664 34.6388C187.664 34.6388 187.749 34.6388 187.664 34.4531L187.492 34.6388Z" fill="white"></path><path d="M183.038 38.4463C183.038 38.4463 183.038 38.4463 182.953 38.3535C182.953 38.3535 182.867 38.3535 182.781 38.3535L183.038 38.4463Z" fill="white"></path><path d="M168.387 32.6905V32.5977C168.387 32.5977 168.387 32.5977 168.302 32.5977L168.387 32.6905Z" fill="white"></path><path d="M178.925 35.8467C178.925 35.8467 178.925 35.8467 179.01 35.8467V35.7539L178.925 35.8467Z" fill="white"></path><path d="M178.84 34.5469C178.84 34.5469 178.754 34.5469 178.754 34.6397C178.754 34.6397 178.84 34.7325 178.925 34.7325L178.84 34.5469Z" fill="white"></path></g><path d="M180.297 26.3791C180.297 26.3791 180.297 27.4929 180.297 27.7713C180.297 28.0497 180.211 28.2354 180.211 28.421C180.211 28.6066 180.297 29.9988 180.382 30.2772C180.382 30.5557 180.382 30.9269 180.382 30.9269C180.382 30.9269 180.468 31.391 180.382 31.391C180.382 31.391 180.297 31.2054 180.211 31.2054C180.211 31.2054 180.04 31.4838 180.125 31.6694C180.125 31.7622 180.211 31.7622 180.125 31.8551C179.954 31.8551 179.44 32.1335 178.926 31.8551L179.44 31.391C179.44 31.391 179.525 31.2054 179.611 31.1126C179.611 31.1126 179.783 29.8132 179.611 29.3491C179.525 28.885 179.183 28.421 179.183 28.3282C179.183 28.2354 179.183 27.1216 179.183 27.0288C179.183 26.936 179.868 25.5438 180.468 26.4719L180.297 26.3791Z" fill="url(#paint1_linear_6143_10059)"></path><path d="M192.719 25.5445C192.719 25.0804 192.462 23.8739 192.547 23.5954C192.547 23.317 192.547 22.4817 192.547 22.0176C192.547 21.5535 192.633 20.1613 192.633 20.0685C192.633 19.9757 192.976 18.3979 191.862 17.6554C191.862 17.6554 191.605 17.4698 191.519 17.4698C191.519 17.4698 191.091 17.2841 191.005 17.2841C190.92 17.2841 191.005 17.1913 189.806 17.2841C189.806 17.2841 189.378 17.2841 189.292 17.2841C189.121 17.2841 188.692 17.0985 188.092 17.2841C187.493 17.4698 187.75 17.2841 186.55 17.2841C185.351 17.2841 185.008 16.7273 183.552 16.9129C182.095 17.0985 181.496 16.9129 181.153 16.9129C180.81 16.9129 178.925 17.3769 178.497 17.5626C178.069 17.6554 176.869 18.0266 176.184 18.4907C175.413 18.9548 174.984 19.5116 174.899 19.6045C174.899 19.6045 174.642 19.8829 174.556 20.2541C174.47 20.6254 174.128 21.1823 174.042 21.5535C174.042 21.9248 174.042 22.296 173.785 22.8529C173.614 23.317 172.5 26.5654 172.414 27.0295C172.414 27.0295 172.243 27.3079 172.157 27.4936H171.9C171.9 27.5864 171.557 27.4936 171.557 27.4936C171.557 27.4936 171.472 27.5864 171.3 27.5864C171.129 27.5864 170.872 27.4936 170.872 27.5864C170.872 27.6792 171.129 27.8648 171.3 27.9576C171.472 27.9576 171.386 28.2361 171.472 28.3289L171.215 29.0714C171.215 29.0714 171.215 29.257 171.215 29.4426C171.215 29.6283 171.215 29.9067 171.472 30.1851C171.472 30.1851 171.472 31.0205 171.472 31.2989C171.472 31.5773 171.386 32.4126 171.472 32.6911C171.472 32.6911 171.215 32.8767 171.472 33.4336C171.472 33.4336 171.643 33.6192 171.729 33.6192C171.729 33.6192 172.5 33.712 172.757 33.3408C172.757 33.3408 173.014 33.1551 173.014 32.7839C173.014 32.7839 174.642 31.2061 174.642 29.8139V29.6283C174.642 29.3498 174.899 28.8858 174.984 28.7929C175.07 28.7001 175.241 27.9576 175.413 27.772C175.584 27.4936 176.012 27.0295 176.184 27.0295C176.355 27.0295 176.355 27.4007 176.698 27.2151C176.698 27.2151 176.955 27.6792 177.041 27.772C177.041 27.772 176.784 29.1642 176.698 29.3498C176.698 29.5354 176.698 29.8139 176.698 29.8139V30.3708C176.698 30.4636 176.184 31.9486 176.184 32.1342C176.184 32.227 176.012 32.5983 175.927 32.6911C175.927 32.6911 175.67 32.9695 175.755 33.1551C175.755 33.1551 175.327 33.6192 175.327 33.712C175.327 33.8048 176.269 33.8048 176.612 33.4336C176.612 33.4336 176.612 32.9695 176.698 32.7839C176.698 32.7839 176.869 33.0623 176.869 33.1551C176.869 33.248 177.041 33.0623 177.041 32.7839V32.5983C177.041 32.5983 177.041 32.4126 177.126 32.3198C177.126 31.8558 177.555 30.0923 177.812 29.9067C178.069 29.7211 177.983 29.257 178.069 29.1642C178.154 28.9786 178.754 27.4007 178.925 27.3079C179.097 27.2151 179.611 26.6582 179.696 26.6582C179.782 26.6582 180.982 26.3798 181.239 26.4726C181.496 26.5654 182.438 26.9367 182.609 26.9367C182.781 26.9367 183.038 27.3079 184.237 27.2151C185.351 27.2151 185.779 27.5864 186.636 26.6582H187.064C187.064 26.6582 187.921 27.1223 188.349 27.0295C188.349 27.0295 188.178 27.4936 188.349 27.5864C188.521 27.5864 188.521 27.3079 188.521 27.1223C188.521 27.1223 188.863 27.1223 188.949 27.1223C188.949 27.1223 188.949 27.4936 189.035 27.4936C189.206 27.4936 189.121 27.2151 189.121 27.2151C189.121 27.2151 189.635 27.1223 189.806 26.9367C189.806 26.9367 190.32 28.3289 190.577 28.6073C190.577 28.6073 191.005 29.8139 191.005 29.9995C191.005 30.1851 191.091 31.3917 191.005 31.763C191.005 32.1342 190.92 32.5055 190.92 32.6911C190.92 32.8767 190.577 33.0623 190.577 33.248C190.577 33.248 190.234 33.5264 190.149 33.8977C190.149 33.8977 190.748 34.2689 191.434 33.712C191.434 33.712 191.519 33.4336 191.605 33.1551C191.605 33.1551 191.605 33.1551 191.605 33.0623C191.605 33.0623 191.776 33.0623 191.776 33.1551C191.776 33.1551 191.862 33.0623 191.776 32.8767C191.776 32.8767 191.776 32.8767 191.776 32.7839C191.776 32.5055 191.776 30.0923 191.776 29.9067C191.776 29.7211 191.948 28.6073 192.033 28.4217C192.033 28.1432 192.033 27.8648 191.862 27.4936C191.691 27.1223 191.177 25.8229 191.262 25.266C191.348 24.7092 192.033 20.6254 192.033 20.347C192.033 20.0685 192.119 20.347 192.119 20.6254C192.119 20.9038 192.033 24.3379 192.119 25.1732C192.119 26.1014 192.119 26.1014 192.119 26.3798C192.119 26.6582 192.205 27.2151 192.633 27.4936C193.061 27.772 192.462 26.1014 192.547 25.7301L192.719 25.5445Z" fill="url(#paint2_linear_6143_10059)"></path><path d="M189.977 26.8443C189.977 26.8443 189.806 27.4012 189.977 27.6796C190.149 27.9581 189.977 28.1437 189.806 28.3293C189.635 28.5149 189.035 29.6287 188.949 29.9071C188.778 30.1856 188.007 31.5778 188.007 31.7634C188.007 31.949 188.007 32.3203 187.836 32.4131C187.836 32.4131 187.75 32.0418 187.664 32.0418C187.664 32.0418 187.407 32.4131 187.407 32.5059C187.407 32.5987 186.722 32.97 186.122 32.6915C186.122 32.6915 186.379 32.2275 186.722 32.0418C186.722 32.0418 186.722 31.6706 187.064 31.5778C187.064 31.5778 187.15 31.2993 187.236 31.2065C187.236 31.2065 187.236 31.1137 187.579 30.7424C187.836 30.3712 188.35 29.1646 188.35 28.6078C188.35 28.0509 188.35 26.7515 188.178 26.6587C188.093 26.5659 189.806 25.6377 189.977 26.8443Z" fill="url(#paint3_linear_6143_10059)"></path></g><defs><linearGradient id="paint0_linear_6143_10059" x1="200.001" y1="36.3105" x2="163.933" y2="36.3105" gradientUnits="userSpaceOnUse"><stop stop-color="#FF6666"></stop><stop offset="1" stop-color="#9999FF"></stop></linearGradient><linearGradient id="paint1_linear_6143_10059" x1="178.754" y1="28.9779" x2="180.468" y2="28.9779" gradientUnits="userSpaceOnUse"><stop stop-color="#FF6666"></stop><stop offset="1" stop-color="#9999FF"></stop></linearGradient><linearGradient id="paint2_linear_6143_10059" x1="170.958" y1="25.3589" x2="192.976" y2="25.3589" gradientUnits="userSpaceOnUse"><stop stop-color="#FF6666"></stop><stop offset="1" stop-color="#9999FF"></stop></linearGradient><linearGradient id="paint3_linear_6143_10059" x1="186.122" y1="29.5359" x2="190.063" y2="29.5359" gradientUnits="userSpaceOnUse"><stop stop-color="#FF6666"></stop><stop offset="1" stop-color="#9999FF"></stop></linearGradient><clipPath id="clip0_6143_10059"><rect width="180" height="30" fill="white" transform="translate(20 15)"></rect></clipPath></defs></svg> 