<?xml version="1.0" encoding="UTF-8"?> <svg xmlns="http://www.w3.org/2000/svg" width="24" height="24" viewBox="0 0 24 24" fill="none"><g clip-path="url(#clip0_6232_11296)"><mask id="mask0_6232_11296" style="mask-type:luminance" maskUnits="userSpaceOnUse" x="0" y="0" width="25" height="25"><path d="M0.00195312 0.00781441H24.002V24.0078H0.00195312V0.00781441Z" fill="white"></path></mask><g mask="url(#mask0_6232_11296)"><path d="M18.0264 3.34455C19.4799 3.34455 20.6623 4.5258 20.6623 5.98047" stroke="#401C86" stroke-miterlimit="10" stroke-linecap="round" stroke-linejoin="round"></path><path d="M18.0264 0.708578C20.9372 0.708578 23.2983 3.07075 23.2983 5.98047" stroke="#401C86" stroke-miterlimit="10" stroke-linecap="round" stroke-linejoin="round"></path><path fill-rule="evenodd" clip-rule="evenodd" d="M18.0264 5.27734C18.4131 5.27734 18.7295 5.59234 18.7295 5.98047C18.7295 6.36859 18.4131 6.68359 18.0264 6.68359C17.6396 6.68359 17.3232 6.36859 17.3232 5.98047C17.3232 5.59234 17.6396 5.27734 18.0264 5.27734Z" fill="#401C86"></path><path d="M12.755 0.710939L0.705078 13.5141H6.73006L5.22383 23.3047L17.2738 10.5015H11.2488L12.755 0.710939Z" stroke="#401C86" stroke-miterlimit="10" stroke-linecap="round" stroke-linejoin="round"></path></g></g><defs><clipPath id="clip0_6232_11296"><rect width="24" height="24" fill="white"></rect></clipPath></defs></svg> 