<?xml version="1.0" encoding="UTF-8"?> <svg xmlns="http://www.w3.org/2000/svg" width="25" height="25" viewBox="0 0 25 25" fill="none"><g clip-path="url(#clip0_6232_11365)"><mask id="mask0_6232_11365" style="mask-type:luminance" maskUnits="userSpaceOnUse" x="0" y="0" width="25" height="25"><path d="M0.334961 0.339846H24.335V24.3398H0.334961V0.339846Z" fill="white"></path></mask><g mask="url(#mask0_6232_11365)"><path d="M18.2379 21.9646C18.0775 22.9294 17.243 23.6367 16.2649 23.6367H8.40499C7.42697 23.6367 6.5924 22.9294 6.43205 21.9646L3.89746 6.71485H20.7725L18.2379 21.9646Z" stroke="#401C86" stroke-miterlimit="10" stroke-linejoin="round"></path><path d="M13.7412 17.9648H15.3125C15.5659 17.9648 15.7997 17.8285 15.9244 17.608C16.0491 17.3874 16.0451 17.1172 15.9147 16.8998L15.19 15.6921" stroke="#401C86" stroke-miterlimit="10" stroke-linecap="round" stroke-linejoin="round"></path><path d="M13.6981 13.207L12.9373 11.9391C12.8103 11.7273 12.5814 11.5977 12.3344 11.5977C12.0875 11.5977 11.8586 11.7273 11.7315 11.9391L10.9707 13.207" stroke="#401C86" stroke-miterlimit="10" stroke-linecap="round" stroke-linejoin="round"></path><path d="M9.47916 15.6921L8.75447 16.8999C8.62421 17.117 8.62079 17.3874 8.74538 17.6078C8.87002 17.8282 9.1035 17.9648 9.35672 17.9648H10.928" stroke="#401C86" stroke-miterlimit="10" stroke-linecap="round" stroke-linejoin="round"></path><path d="M1.78809 6.71484H22.8818" stroke="#401C86" stroke-miterlimit="10" stroke-linecap="round" stroke-linejoin="round"></path><path d="M20.7725 6.71484H3.89746L4.92717 2.56168C5.14837 1.6695 5.94921 1.04297 6.8684 1.04297H17.8015C18.7207 1.04297 19.5215 1.6695 19.7427 2.56167L20.7725 6.71484Z" stroke="#401C86" stroke-miterlimit="10" stroke-linejoin="round"></path><path d="M9.52246 1.04297V3.85547H15.1475V1.04297" stroke="#401C86" stroke-miterlimit="10" stroke-linejoin="round"></path></g></g><defs><clipPath id="clip0_6232_11365"><rect width="24" height="24" fill="white" transform="translate(0.333008 0.332031)"></rect></clipPath></defs></svg> 