<?xml version="1.0" encoding="UTF-8"?> <svg xmlns="http://www.w3.org/2000/svg" width="24" height="24" viewBox="0 0 24 24" fill="none"><path d="M21.0037 14.5774C21.0043 14.5492 21.0048 14.521 21.0048 14.4926C21.0048 12.1064 19.0703 10.1719 16.6841 10.1719C14.9843 10.1719 13.514 11.1535 12.8086 12.5807C12.3594 12.2059 11.7815 11.9802 11.1507 11.9802C9.73249 11.9802 8.58119 13.1203 8.56184 14.5339C7.1397 14.7713 6.05566 16.0073 6.05566 17.4968C6.05566 19.156 7.4007 20.501 9.05988 20.501H20.293C21.9522 20.501 23.2972 19.156 23.2972 17.4968C23.2972 16.0825 22.3198 14.8967 21.0037 14.5774Z" stroke="#401C86" stroke-miterlimit="10" stroke-linecap="round" stroke-linejoin="round"></path><path d="M7.19841 8.26925C10.7857 8.26925 13.6937 7.20162 13.6937 5.88462C13.6937 4.56763 10.7857 3.5 7.19841 3.5C3.61116 3.5 0.703125 4.56763 0.703125 5.88462C0.703125 7.20162 3.61116 8.26925 7.19841 8.26925Z" stroke="#401C86" stroke-miterlimit="10" stroke-linecap="round" stroke-linejoin="round"></path><path d="M9.10692 12.9793C8.50945 13.0458 7.85508 13.0838 7.19841 13.0838C3.61116 13.0838 0.703125 12.0162 0.703125 10.6992" stroke="#401C86" stroke-miterlimit="10" stroke-linecap="round" stroke-linejoin="round"></path><path d="M13.6941 10.6992C13.6941 11.2754 13.15 11.7989 12.2236 12.2111" stroke="#401C86" stroke-miterlimit="10" stroke-linecap="round" stroke-linejoin="round"></path><path d="M6.11184 18.0794C3.072 17.8804 0.703125 16.9042 0.703125 15.7309V5.88281" stroke="#401C86" stroke-miterlimit="10" stroke-linecap="round" stroke-linejoin="round"></path><path d="M13.6934 5.88281V11.3697" stroke="#401C86" stroke-miterlimit="10" stroke-linecap="round" stroke-linejoin="round"></path></svg> 