<?xml version="1.0" encoding="UTF-8"?> <svg xmlns="http://www.w3.org/2000/svg" width="24" height="24" viewBox="0 0 24 24" fill="none"><g clip-path="url(#clip0_6232_11404)"><mask id="mask0_6232_11404" style="mask-type:luminance" maskUnits="userSpaceOnUse" x="0" y="0" width="25" height="25"><path d="M0.00195312 0.00781441H24.002V24.0078H0.00195312V0.00781441Z" fill="white"></path></mask><g mask="url(#mask0_6232_11404)"><path d="M8.08882 6.19335C6.43647 5.33202 6.11739 4.78364 5.92333 4.47473C4.89625 2.83964 6.35074 1.42017 8.19438 0.351089H11.6802C11.2262 0.803198 9.65519 1.62346 9.8801 2.60967C9.98585 3.07317 10.4492 3.36314 10.7557 3.55209C10.9973 3.70096 11.2511 3.8241 11.5099 3.93276C13.9215 4.94451 16.5121 5.38092 18.7969 6.77685C20.3575 7.73029 21.5213 9.19514 21.8851 11.1366C22.137 12.4807 21.9998 13.8684 21.7291 15.2151L21.3427 16.8633" stroke="#401C86" stroke-miterlimit="10" stroke-linecap="round" stroke-linejoin="round"></path><path d="M21.3502 16.8278C21.2533 17.2015 21.154 17.5689 21.0582 17.9281C20.5329 19.8993 19.8987 21.759 19.2825 23.6602H2.87402C3.10676 23.2955 7.34562 18.15 9.15059 16.1046C10.0983 15.0306 12.392 12.2204 12.0075 10.0404C11.6111 7.79297 9.71215 7.04419 8.06234 6.17588L8.03379 6.16083" stroke="#401C86" stroke-miterlimit="10" stroke-linecap="round" stroke-linejoin="round"></path><path d="M11.6795 0.350627H13.4905C13.4905 0.350627 11.7776 1.65361 11.4937 1.97719C11.1454 2.37427 11.6844 2.62045 12.017 2.74585C12.6712 2.99255 13.3359 3.18178 13.9965 3.40702C14.7131 3.65138 15.4266 3.90492 16.136 4.16949C16.5784 4.33453 17.02 4.50202 17.457 4.68122C18.3172 5.0341 19.1627 5.43286 19.9439 5.94005C20.5018 6.30225 21.0297 6.72234 21.4996 7.21181C22.5391 8.29449 23.1728 9.71311 23.4586 11.2386C23.8849 13.5144 23.4979 15.878 22.9344 17.993C22.4091 19.9641 21.9022 21.7589 21.2858 23.6602L19.2825 23.66" stroke="#401C86" stroke-miterlimit="10" stroke-linecap="round" stroke-linejoin="round"></path><path d="M8.19434 0.350627H6.26989C4.81836 1.19231 3.76002 3.00042 4.56102 4.80338C5.21741 6.28064 6.81251 6.9382 8.02803 7.73133C8.70209 8.17111 9.43587 8.5582 9.99514 9.17325C10.5094 9.73885 10.6488 10.4606 10.4416 11.2142C9.9215 13.1058 8.24136 14.7188 7.01853 16.1045C5.21356 18.15 0.597969 23.2955 0.365234 23.6602H3.15641" stroke="#401C86" stroke-miterlimit="10" stroke-linecap="round" stroke-linejoin="round"></path><path d="M8.58721 1.81749C7.9837 2.28366 7.76648 3.4763 8.2634 4.08286C8.72826 4.65033 9.51009 4.9028 10.147 5.21602C11.0547 5.6625 11.9385 6.1365 12.8442 6.59522C13.4893 6.92199 14.0837 7.32591 14.7351 7.66027C16.18 8.40178 17.262 9.98757 17.2369 11.6368C17.2068 13.6084 16.0198 15.2633 15.0968 16.9392C14.1519 18.6545 12.1094 22.0901 11.1073 23.6602" stroke="#401C86" stroke-miterlimit="10" stroke-linecap="round" stroke-linejoin="round" stroke-dasharray="0.94 1.87"></path></g></g><defs><clipPath id="clip0_6232_11404"><rect width="24" height="24" fill="white"></rect></clipPath></defs></svg> 