<?xml version="1.0" encoding="UTF-8"?> <svg xmlns="http://www.w3.org/2000/svg" width="25" height="25" viewBox="0 0 25 25" fill="none"><g clip-path="url(#clip0_6232_11495)"><mask id="mask0_6232_11495" style="mask-type:luminance" maskUnits="userSpaceOnUse" x="0" y="0" width="25" height="25"><path d="M0.334961 0.339846H24.335V24.3398H0.334961V0.339846Z" fill="white"></path></mask><g mask="url(#mask0_6232_11495)"><path d="M16.3662 9.81186C18.6318 9.81186 19.1003 9.6454 19.6475 11.6833C17.3819 11.6833 16.887 11.7519 16.3662 9.81186Z" stroke="#401C86" stroke-miterlimit="22.926" stroke-linecap="round" stroke-linejoin="round"></path><path d="M22.9287 9.81186C20.6631 9.81186 20.1945 9.6454 19.6475 11.6833C21.9131 11.6833 22.4079 11.7519 22.9287 9.81186Z" stroke="#401C86" stroke-miterlimit="22.926" stroke-linecap="round" stroke-linejoin="round"></path><path d="M16.3662 13.0932C18.6318 13.0932 19.1003 12.9267 19.6475 14.9645C17.3819 14.9645 16.887 15.0332 16.3662 13.0932Z" stroke="#401C86" stroke-miterlimit="22.926" stroke-linecap="round" stroke-linejoin="round"></path><path d="M22.9287 13.0932C20.6631 13.0932 20.1945 12.9267 19.6475 14.9645C21.9131 14.9645 22.4079 15.0332 22.9287 13.0932Z" stroke="#401C86" stroke-miterlimit="22.926" stroke-linecap="round" stroke-linejoin="round"></path><path d="M16.3662 16.3744C18.6318 16.3744 19.1003 16.2079 19.6475 18.2458C17.3819 18.2458 16.887 18.3144 16.3662 16.3744Z" stroke="#401C86" stroke-miterlimit="22.926" stroke-linecap="round" stroke-linejoin="round"></path><path d="M22.9287 16.3744C20.6631 16.3744 20.1945 16.2079 19.6475 18.2458C21.9131 18.2458 22.4079 18.3144 22.9287 16.3744Z" stroke="#401C86" stroke-miterlimit="22.926" stroke-linecap="round" stroke-linejoin="round"></path><path d="M19.6475 5.68561C20.2079 6.05034 20.585 6.73195 20.585 7.51275C20.585 8.2935 20.2079 8.50636 19.6475 8.87109C19.087 8.50636 18.71 8.2935 18.71 7.51275C18.71 6.73195 19.087 6.05034 19.6475 5.68561Z" stroke="#401C86" stroke-miterlimit="22.926" stroke-linecap="round" stroke-linejoin="round"></path><path d="M19.6475 8.95608V19.9219" stroke="#401C86" stroke-miterlimit="22.926" stroke-linecap="round" stroke-linejoin="round"></path><path d="M14.3975 20.1211H22.9288C23.4444 20.1211 23.8663 20.543 23.8663 21.0586C23.8663 21.5742 23.4444 21.9961 22.9288 21.9961H13.9287" stroke="#401C86" stroke-miterlimit="22.926" stroke-linecap="round" stroke-linejoin="round"></path><path d="M16.9951 2.46484C17.6984 1.76158 18.6522 1.36647 19.6467 1.36647C20.6413 1.36647 21.5951 1.76158 22.2984 2.46484" stroke="#401C86" stroke-miterlimit="22.926" stroke-linecap="round" stroke-linejoin="round"></path><path d="M18.3213 3.79297C18.6729 3.44136 19.1499 3.24378 19.6471 3.24378C20.1444 3.24378 20.6213 3.44136 20.973 3.79297" stroke="#401C86" stroke-miterlimit="22.926" stroke-linecap="round" stroke-linejoin="round"></path><path d="M1.74121 0.808594H12.9912C13.5068 0.808594 13.9287 1.23047 13.9287 1.74609V22.9336C13.9287 23.4492 13.5068 23.8711 12.9912 23.8711H1.74121C1.22559 23.8711 0.803711 23.4492 0.803711 22.9336V1.74609C0.803711 1.23047 1.22559 0.808594 1.74121 0.808594Z" stroke="#401C86" stroke-miterlimit="22.926" stroke-linecap="round" stroke-linejoin="round"></path><path d="M13.697 21.9961H9.47519H1.03418" stroke="#401C86" stroke-miterlimit="22.926" stroke-linecap="round" stroke-linejoin="round"></path><path d="M10.6218 0.858656L10.1781 1.74609C9.94759 2.20716 9.7561 2.68359 9.24062 2.68359H5.49076C4.97523 2.68359 4.78384 2.2073 4.55326 1.74609L4.10645 0.852469" stroke="#401C86" stroke-miterlimit="22.926" stroke-linecap="round" stroke-linejoin="round"></path><path d="M7.03804 5.49609H12.0537M2.67871 5.49609H3.95601" stroke="#401C86" stroke-miterlimit="22.926" stroke-linecap="round" stroke-linejoin="round"></path><path d="M11.6495 9.24609H12.0537M2.67871 9.24609H8.7081" stroke="#401C86" stroke-miterlimit="22.926" stroke-linecap="round" stroke-linejoin="round"></path><path d="M7.91699 12.9961H12.0537M2.67871 12.9961H4.95801" stroke="#401C86" stroke-miterlimit="22.926" stroke-linecap="round" stroke-linejoin="round"></path><path d="M5.02246 4.55859H5.95996C6.47559 4.55859 6.89746 4.98042 6.89746 5.49609C6.89746 6.01172 6.47559 6.43359 5.95996 6.43359H5.02246C4.50684 6.43359 4.08496 6.01172 4.08496 5.49609C4.08496 4.98042 4.50684 4.55859 5.02246 4.55859Z" stroke="#401C86" stroke-miterlimit="22.926" stroke-linecap="round" stroke-linejoin="round"></path><path d="M9.70996 8.30859H10.6475C11.1631 8.30859 11.585 8.73042 11.585 9.24609C11.585 9.76172 11.1631 10.1836 10.6475 10.1836H9.70996C9.19434 10.1836 8.77246 9.76172 8.77246 9.24609C8.77246 8.73042 9.19434 8.30859 9.70996 8.30859Z" stroke="#401C86" stroke-miterlimit="22.926" stroke-linecap="round" stroke-linejoin="round"></path><path d="M5.95996 12.0586H6.89746C7.41309 12.0586 7.83496 12.4804 7.83496 12.996C7.83496 13.5117 7.41309 13.9336 6.89746 13.9336H5.95996C5.44434 13.9336 5.02246 13.5117 5.02246 12.9961C5.02246 12.4805 5.44434 12.0586 5.95996 12.0586Z" stroke="#401C86" stroke-miterlimit="22.926" stroke-linecap="round" stroke-linejoin="round"></path><path d="M4.7986 17.7712C5.47796 17.6049 6.23279 17.766 6.76571 18.2545C7.29868 18.743 7.47441 19.435 7.293 20.0577C6.61365 20.224 5.85882 20.063 5.3259 19.5744C4.79293 19.0859 4.61719 18.3939 4.7986 17.7712Z" stroke="#401C86" stroke-miterlimit="22.926" stroke-linecap="round" stroke-linejoin="round"></path><path d="M9.93263 17.7712C9.25327 17.6049 8.49845 17.766 7.96552 18.2545C7.43256 18.743 7.25687 19.435 7.43823 20.0577C8.11759 20.224 8.87241 20.063 9.40538 19.5744C9.9383 19.0859 10.114 18.3939 9.93263 17.7712Z" stroke="#401C86" stroke-miterlimit="22.926" stroke-linecap="round" stroke-linejoin="round"></path><path d="M8.31734 17.9922C8.36075 17.8405 8.38391 17.6813 8.38391 17.5172C8.38391 16.8263 7.97441 16.2231 7.36578 15.9003C6.75716 16.2231 6.34766 16.8263 6.34766 17.5172C6.34766 17.6813 6.37081 17.8405 6.41422 17.9922" stroke="#401C86" stroke-miterlimit="22.926" stroke-linecap="round" stroke-linejoin="round"></path></g></g><defs><clipPath id="clip0_6232_11495"><rect width="24" height="24" fill="white" transform="translate(0.333008 0.332031)"></rect></clipPath></defs></svg> 