<?xml version="1.0" encoding="UTF-8"?> <svg xmlns="http://www.w3.org/2000/svg" width="220" height="60" viewBox="0 0 220 60" fill="none"><rect width="220" height="60" rx="4" fill="white"></rect><g clip-path="url(#clip0_6140_9229)"><path d="M31.0502 19.1426H20V40.1138C20 40.5777 20.274 40.8561 20.9132 40.8561C21.5525 40.8561 21.7352 40.5777 21.7352 40.1138V20.9984H31.0502C31.5069 20.9984 31.6895 20.7201 31.6895 20.0705C31.6895 19.421 31.5069 19.1426 31.0502 19.1426ZM28.9498 28.9786H24.2922V30.8345H28.9498C29.4064 30.8345 29.589 30.5561 29.589 29.9066C29.589 29.257 29.4064 28.9786 28.9498 28.9786Z" fill="#1B194E"></path><path d="M66.6667 28.7002C67.1233 28.0507 67.306 27.1228 67.306 26.102V24.0606C67.306 23.3183 67.2147 22.6687 66.9407 22.1119C66.6667 21.5552 66.3927 20.9984 66.0275 20.5345C65.5708 20.0705 65.1142 19.7921 64.5663 19.5137C64.0183 19.2354 63.379 19.1426 62.7398 19.1426H53.9727V40.2066C53.9727 40.6705 54.2466 40.9489 54.8859 40.9489C55.5252 40.9489 55.7078 40.6705 55.7078 40.2066V20.9056H63.0138C63.7443 20.9056 64.3836 21.184 64.8402 21.648C65.2969 22.1119 65.5708 22.8543 65.5708 23.6894V26.2876C65.5708 27.2156 65.3882 27.9579 64.9316 28.4219C64.4749 28.8858 63.8357 29.1642 62.9224 29.1642H58.2649V30.9273H62.7398C63.653 30.9273 64.2923 31.2057 64.8402 31.7624C65.2969 32.3192 65.5708 33.0615 65.5708 34.0822V40.1138C65.5708 40.2994 65.5708 40.4849 65.8448 40.6705C66.0275 40.8561 66.2101 40.8561 66.4841 40.8561C67.032 40.8561 67.3973 40.5777 67.3973 40.1138V34.0822C67.3973 33.0615 67.2147 32.1336 66.758 31.484C66.3014 30.7417 65.6622 30.3705 64.6576 30.1849C65.6622 29.8138 66.3927 29.3498 66.758 28.7002H66.6667Z" fill="#1B194E"></path><path d="M87.8537 19.3272C87.7624 19.1416 87.4884 19.0488 87.0318 19.0488C86.5752 19.0488 86.7578 19.0488 86.6665 19.0488C86.6665 19.0488 86.4838 19.0488 86.3925 19.1416C86.3925 19.1416 86.2099 19.3272 86.1186 19.42C86.0272 19.5128 85.9359 19.6984 85.7533 19.9768L80.2738 28.0497H80.0912L74.6117 19.9768C74.4291 19.7912 74.3377 19.6056 74.2464 19.42C74.1551 19.3272 74.0638 19.2344 73.9724 19.1416C73.9724 19.1416 73.7898 19.0488 73.6985 19.0488C73.6071 19.0488 73.5158 19.0488 73.3332 19.0488C72.9679 19.0488 72.6939 19.0488 72.6026 19.3272C72.5112 19.6056 72.4199 19.6984 72.4199 19.884V40.2056C72.4199 40.6696 72.6939 40.9479 73.3332 40.9479C73.9724 40.9479 74.2464 40.6696 74.2464 40.2056V24.4308L73.9724 21.3686L75.1596 23.8741L79.3606 29.72C79.6345 30.0912 79.9085 30.2768 80.2738 30.2768C80.6391 30.2768 80.8217 30.0912 81.0957 29.72L85.2966 23.8741L86.4839 21.3686L86.2099 24.4308V40.2056C86.2099 40.6696 86.4838 40.9479 87.2144 40.9479C87.945 40.9479 88.1277 40.6696 88.1277 40.2056V19.884C88.1277 19.6984 88.1277 19.42 87.945 19.3272H87.8537Z" fill="#1B194E"></path><path d="M104.383 39.0002H95.5243V19.8849C95.5243 19.421 95.159 19.1426 94.5197 19.1426C93.8804 19.1426 93.6064 19.421 93.6064 19.8849V40.8561H104.383C104.839 40.8561 105.022 40.5777 105.022 39.9282C105.022 39.2786 104.839 39.0002 104.383 39.0002Z" fill="#1B194E"></path><path d="M115.616 39.0012H113.059V20.9994H115.616C116.073 20.9994 116.255 20.721 116.255 20.1643C116.255 19.6075 116.073 19.2363 115.616 19.2363H108.675C108.219 19.2363 108.036 19.5147 108.036 20.1643C108.036 20.8138 108.219 21.0922 108.675 21.0922H111.232V39.0012H108.675C108.219 39.0012 108.036 39.2796 108.036 39.9291C108.036 40.5787 108.219 40.8571 108.675 40.8571H115.616C116.073 40.8571 116.255 40.5787 116.255 39.9291C116.255 39.2796 116.073 39.0012 115.616 39.0012Z" fill="#1B194E"></path><path d="M150.411 38.9084H140.913V21.0922H150.411C150.867 21.0922 151.05 20.8138 151.05 20.1643C151.05 19.5147 150.867 19.2363 150.411 19.2363H139.178V40.7643H150.411C150.867 40.7643 151.05 40.4859 151.05 39.8363C151.05 39.1868 150.867 38.9084 150.411 38.9084ZM143.47 29.0724V30.9282H148.219C148.675 30.9282 148.858 30.6499 148.858 30.0003C148.858 29.3508 148.675 29.0724 148.219 29.0724H143.47Z" fill="#1B194E"></path><path d="M161.735 15.0586H160V44.9379H161.735V15.0586Z" fill="#A7A9AC"></path><path d="M196.986 30.3691C195.89 30.3691 194.702 30.3691 193.607 30.5547C188.036 31.1115 183.013 33.1529 179.36 36.1223C177.807 37.4214 176.529 38.8133 175.707 40.298C176.346 40.7619 177.077 41.2259 177.807 41.5971C178.629 40.4836 179.634 39.4628 180.821 38.5349C184.657 35.38 189.862 33.3385 195.616 32.7818C196.803 32.689 197.899 32.5962 199.086 32.5962C200.273 32.5962 199.269 32.5962 199.451 32.5962C199.634 31.9466 199.817 31.2971 199.999 30.6475C198.995 30.5547 197.99 30.4619 196.986 30.4619V30.3691Z" fill="url(#paint0_linear_6140_9229)"></path><path d="M181.461 39.2785C180.456 40.1137 179.543 41.0416 178.812 41.9695C179.726 42.3407 180.639 42.6191 181.644 42.8047C182.1 42.3407 182.648 41.784 183.196 41.32C187.032 38.165 192.237 36.1236 197.991 35.5668C198.356 34.9173 198.721 34.1749 199.086 33.5254C197.991 33.5254 196.895 33.5254 195.799 33.711C190.228 34.2677 185.205 36.3092 181.552 39.2785H181.461Z" fill="url(#paint1_linear_6140_9229)"></path><path d="M182.922 43.0834C183.47 43.0834 184.109 43.1761 184.748 43.1761C189.863 43.1761 194.429 40.6707 197.26 36.7734C192.054 37.5158 187.305 39.3716 183.926 42.2482C183.561 42.5266 183.287 42.805 183.013 43.0834H182.922Z" fill="url(#paint2_linear_6140_9229)"></path><path d="M178.721 35.2884C178.904 35.1028 179.086 35.01 179.269 34.8245C176.803 34.0821 174.155 33.7109 171.415 33.7109C168.675 33.7109 170.776 33.7109 170.41 33.7109C170.684 34.2677 170.958 34.8245 171.232 35.3812C173.424 35.3812 175.525 35.7524 177.534 36.3091C177.899 35.938 178.264 35.5668 178.721 35.2884Z" fill="url(#paint3_linear_6140_9229)"></path><path d="M171.963 36.4941C172.785 37.7004 173.789 38.7212 174.885 39.6491C175.342 38.814 175.981 37.9788 176.712 37.2365C175.159 36.8653 173.607 36.6797 171.963 36.5869V36.4941Z" fill="url(#paint4_linear_6140_9229)"></path><path d="M180.365 33.9891C181.278 33.3395 182.191 32.8755 183.196 32.3188C180.182 31.0197 176.529 30.2773 172.693 30.2773C168.858 30.2773 170.41 30.2773 169.314 30.4629C169.497 31.2053 169.68 31.9476 169.954 32.5972C170.41 32.5972 170.867 32.5972 171.415 32.5972C174.611 32.5972 177.625 33.0611 180.365 33.9891Z" fill="url(#paint5_linear_6140_9229)"></path><path d="M183.104 27.3083C183.652 28.1434 184.018 30.3704 183.561 31.8551C183.926 31.6695 184.383 31.5767 184.748 31.484C184.748 31.2056 184.748 30.9272 184.748 30.6488C184.748 29.8137 185.114 29.0713 185.205 28.793C186.118 28.793 188.584 28.793 190.136 27.2155C191.963 25.3596 191.598 21.9263 191.598 21.9263C191.598 21.9263 188.219 21.5551 186.301 23.411C185.388 24.3389 185.022 25.638 184.84 26.6587C186.94 23.7821 189.315 23.5038 189.315 23.5038C186.392 24.8029 184.748 28.1434 184.748 28.1434C184.566 28.4218 184.474 28.7002 184.383 28.9785C184.292 28.329 184.018 27.5867 183.652 26.9371C183.652 26.9371 182.83 24.4317 180.73 22.483C180.73 22.483 182.283 23.0398 183.744 25.174C183.744 24.0605 183.561 22.8542 182.83 21.8335C181.278 19.6993 177.808 19.5137 177.808 19.5137C177.808 19.5137 176.894 22.8542 178.538 24.9885C179.725 26.5659 181.917 27.1227 182.922 27.2155L183.104 27.3083Z" fill="url(#paint6_linear_6140_9229)"></path><path d="M175.616 25.453C174.977 24.8034 174.612 23.8755 174.612 22.9476C174.612 22.0196 174.977 21.0917 175.616 20.4421L174.338 19.143C173.333 20.1638 172.785 21.4629 172.785 22.9476C172.785 24.3394 173.333 25.7313 174.338 26.7521L175.616 25.453ZM173.424 27.68C172.146 26.3809 171.507 24.7106 171.507 22.9476C171.507 21.1845 172.237 19.5142 173.516 18.2151L172.237 16.916C170.593 18.4935 169.771 20.6277 169.771 22.9476C169.771 25.2674 170.593 27.4016 172.146 28.9791L173.424 27.68Z" fill="url(#paint7_linear_6140_9229)"></path><path d="M193.789 25.453C194.428 24.8034 194.794 23.8755 194.794 22.9476C194.794 22.0196 194.428 21.0917 193.789 20.4421L195.068 19.143C196.072 20.1638 196.62 21.4629 196.62 22.9476C196.62 24.3394 196.072 25.7313 195.068 26.7521L193.789 25.453ZM195.981 27.68C197.259 26.3809 197.899 24.7106 197.899 22.9476C197.899 21.1845 197.168 19.5142 195.89 18.2151L197.168 16.916C198.812 18.4935 199.634 20.6277 199.634 22.9476C199.634 25.2674 198.812 27.4016 197.259 28.9791L195.981 27.68Z" fill="url(#paint8_linear_6140_9229)"></path><path d="M120.274 27.7733V19.7004C120.274 19.2364 120.64 18.8652 121.188 18.8652C121.644 18.8652 122.101 19.2364 122.101 19.7004V28.2373C122.101 28.7013 122.101 29.1652 122.284 29.5364L125.297 38.6301C125.48 39.0941 125.937 39.4652 126.484 39.4652H128.22C128.768 39.4652 129.316 39.0941 129.407 38.6301L132.238 29.3508C132.329 28.9797 132.421 28.5157 132.421 28.1445V19.7004C132.421 19.2364 132.786 18.8652 133.334 18.8652C133.79 18.8652 134.247 19.2364 134.247 19.7004V27.6806C134.247 28.5157 134.156 29.3508 133.882 30.186L132.968 33.3409L131.142 39.4652C130.868 40.3932 129.863 41.1355 128.768 41.1355H126.119C125.023 41.1355 124.11 40.486 123.745 39.558L121.736 33.3409L120.822 30.4643C120.548 29.6292 120.366 28.7013 120.366 27.7733H120.274Z" fill="#1B194E"></path><path d="M48.8583 32.2274V40.3004C48.8583 40.7644 48.4931 41.1355 47.9451 41.1355C47.4885 41.1355 47.0319 40.7644 47.0319 40.3004V35.1968H39.178V33.4337H47.0319V31.8562C47.0319 31.3923 47.0319 30.9283 46.8492 30.5571L43.8355 21.4634C43.6529 20.9995 43.1962 20.6283 42.6483 20.6283H40.9131C40.3652 20.6283 39.8173 20.9995 39.7259 21.4634L36.8949 30.7427C36.8036 31.1139 36.7122 31.5779 36.7122 31.949V40.3004C36.7122 40.7644 36.3469 41.1355 35.799 41.1355C35.3424 41.1355 34.8857 40.7644 34.8857 40.3004V32.3202C34.8857 31.4851 34.9771 30.6499 35.251 29.8148L36.1643 26.6598L37.9908 20.5355C38.2647 19.6076 39.2693 18.8652 40.3652 18.8652H43.0136C44.1095 18.8652 45.0227 19.5148 45.388 20.4427L47.3972 26.6598L48.3104 29.5364C48.5844 30.3715 48.767 31.2995 48.767 32.2274H48.8583Z" fill="#1B194E"></path></g><defs><linearGradient id="paint0_linear_6140_9229" x1="175.707" y1="35.9367" x2="199.999" y2="35.9367" gradientUnits="userSpaceOnUse"><stop stop-color="#33CC99"></stop><stop offset="1" stop-color="#CCFF66"></stop></linearGradient><linearGradient id="paint1_linear_6140_9229" x1="178.812" y1="38.165" x2="199.086" y2="38.165" gradientUnits="userSpaceOnUse"><stop stop-color="#33CC99"></stop><stop offset="1" stop-color="#CCFF66"></stop></linearGradient><linearGradient id="paint2_linear_6140_9229" x1="182.922" y1="39.9284" x2="197.168" y2="39.9284" gradientUnits="userSpaceOnUse"><stop stop-color="#33CC99"></stop><stop offset="1" stop-color="#CCFF66"></stop></linearGradient><linearGradient id="paint3_linear_6140_9229" x1="170.41" y1="35.01" x2="179.269" y2="35.01" gradientUnits="userSpaceOnUse"><stop stop-color="#33CC99"></stop><stop offset="1" stop-color="#CCFF66"></stop></linearGradient><linearGradient id="paint4_linear_6140_9229" x1="171.963" y1="38.0716" x2="176.712" y2="38.0716" gradientUnits="userSpaceOnUse"><stop stop-color="#33CC99"></stop><stop offset="1" stop-color="#CCFF66"></stop></linearGradient><linearGradient id="paint5_linear_6140_9229" x1="169.406" y1="32.1332" x2="183.196" y2="32.1332" gradientUnits="userSpaceOnUse"><stop stop-color="#33CC99"></stop><stop offset="1" stop-color="#CCFF66"></stop></linearGradient><linearGradient id="paint6_linear_6140_9229" x1="177.716" y1="25.638" x2="191.598" y2="25.638" gradientUnits="userSpaceOnUse"><stop stop-color="#33CC99"></stop><stop offset="1" stop-color="#CCFF66"></stop></linearGradient><linearGradient id="paint7_linear_6140_9229" x1="169.68" y1="22.8548" x2="175.616" y2="22.8548" gradientUnits="userSpaceOnUse"><stop stop-color="#33CC99"></stop><stop offset="1" stop-color="#CCFF66"></stop></linearGradient><linearGradient id="paint8_linear_6140_9229" x1="193.698" y1="22.8548" x2="199.634" y2="22.8548" gradientUnits="userSpaceOnUse"><stop stop-color="#33CC99"></stop><stop offset="1" stop-color="#CCFF66"></stop></linearGradient><clipPath id="clip0_6140_9229"><rect width="180" height="30" fill="white" transform="translate(20 15)"></rect></clipPath></defs></svg> 