<?xml version="1.0" encoding="UTF-8"?> <svg xmlns="http://www.w3.org/2000/svg" width="60" height="60" viewBox="0 0 60 60" fill="none"><g clip-path="url(#clip0_6616_5698)"><mask id="mask0_6616_5698" style="mask-type:luminance" maskUnits="userSpaceOnUse" x="0" y="0" width="60" height="60"><path d="M0 3.8147e-06H60V60H0V3.8147e-06Z" fill="white"></path></mask><g mask="url(#mask0_6616_5698)"><path d="M25.8984 58.2422H34.1016V40.2539H25.8984V58.2422Z" stroke="#401C86" stroke-width="2" stroke-miterlimit="10" stroke-linecap="round" stroke-linejoin="round"></path><path d="M30 40.2539V8.78906C30 6.8475 31.5741 5.27344 33.5156 5.27344H45.3704" stroke="#401C86" stroke-width="2" stroke-miterlimit="10" stroke-linecap="round" stroke-linejoin="round"></path><path d="M54.7461 8.78906H45.3711V1.75781H51.2305C53.172 1.75781 54.7461 3.33187 54.7461 5.27344V8.78906Z" stroke="#401C86" stroke-width="2" stroke-miterlimit="10" stroke-linecap="round" stroke-linejoin="round"></path><path d="M30.0013 8.78906C30.0013 6.8475 28.4272 5.27344 26.4857 5.27344H14.6309" stroke="#401C86" stroke-width="2" stroke-miterlimit="10" stroke-linecap="round" stroke-linejoin="round"></path><path d="M5.25586 8.78906H14.6309V1.75781H8.77148C6.82992 1.75781 5.25586 3.33187 5.25586 5.27344V8.78906Z" stroke="#401C86" stroke-width="2" stroke-miterlimit="10" stroke-linecap="round" stroke-linejoin="round"></path><path d="M21.6797 58.2422H38.3203" stroke="#401C86" stroke-width="2" stroke-miterlimit="10" stroke-linecap="round" stroke-linejoin="round"></path><path d="M54.6895 15.421L58.5428 19.8086" stroke="#401C86" stroke-width="2" stroke-miterlimit="10" stroke-linecap="round" stroke-linejoin="round"></path><path d="M50.0586 22.7734V15.4196" stroke="#401C86" stroke-width="2" stroke-miterlimit="10" stroke-linecap="round" stroke-linejoin="round"></path><path d="M45.4276 15.421L41.5742 19.8086" stroke="#401C86" stroke-width="2" stroke-miterlimit="10" stroke-linecap="round" stroke-linejoin="round"></path><path d="M14.5742 15.421L18.4276 19.8086" stroke="#401C86" stroke-width="2" stroke-miterlimit="10" stroke-linecap="round" stroke-linejoin="round"></path><path d="M9.94336 22.7734V15.4196" stroke="#401C86" stroke-width="2" stroke-miterlimit="10" stroke-linecap="round" stroke-linejoin="round"></path><path d="M5.31223 15.421L1.45898 19.8086" stroke="#401C86" stroke-width="2" stroke-miterlimit="10" stroke-linecap="round" stroke-linejoin="round"></path></g></g><defs><clipPath id="clip0_6616_5698"><rect width="60" height="60" fill="white"></rect></clipPath></defs></svg> 