<?xml version="1.0" encoding="UTF-8"?> <svg xmlns="http://www.w3.org/2000/svg" width="60" height="60" viewBox="0 0 60 60" fill="none"><g clip-path="url(#clip0_6616_5684)"><path d="M20.7422 50.0391C22.6838 50.0391 24.2578 48.4651 24.2578 46.5234C24.2578 44.5818 22.6838 43.0078 20.7422 43.0078C18.8006 43.0078 17.2266 44.5818 17.2266 46.5234C17.2266 48.4651 18.8006 50.0391 20.7422 50.0391Z" stroke="#401C86" stroke-width="2" stroke-miterlimit="10" stroke-linecap="round" stroke-linejoin="round"></path><path d="M8.35208 14.5977L6.27939 20.2924C5.61529 22.1169 6.55607 24.1344 8.38056 24.7984L41.4167 36.8225C43.2411 37.4866 45.2586 36.5458 45.9226 34.7213L47.9267 29.2153" stroke="#401C86" stroke-width="2" stroke-miterlimit="10" stroke-linecap="round" stroke-linejoin="round"></path><path d="M47.9266 29.2133L9.38447 15.1852C7.55998 14.5211 6.61919 12.5037 7.2833 10.6792L9.6881 4.07197C10.3522 2.24748 12.3696 1.30669 14.1941 1.9708L58.2423 18.0029L50.7322 21.5049L47.9266 29.2133Z" stroke="#401C86" stroke-width="2" stroke-miterlimit="10" stroke-linecap="round" stroke-linejoin="round"></path><path d="M5.27344 55.8984H1.75781V37.1484H5.27344C7.21512 37.1484 8.78906 38.7224 8.78906 40.6641V52.3828C8.78906 54.3245 7.21512 55.8984 5.27344 55.8984Z" stroke="#401C86" stroke-width="2" stroke-miterlimit="10" stroke-linecap="round" stroke-linejoin="round"></path><path d="M1.75781 58.2422V34.8047" stroke="#401C86" stroke-width="2" stroke-miterlimit="10" stroke-linecap="round" stroke-linejoin="round"></path><path d="M56.1385 27.2133L49.5312 24.8086L46.325 33.6183L52.9323 36.023L56.1385 27.2133Z" stroke="#401C86" stroke-width="2" stroke-miterlimit="10" stroke-linecap="round" stroke-linejoin="round"></path><path d="M21.7227 43.1489L25.2702 30.9453" stroke="#401C86" stroke-width="2" stroke-miterlimit="10" stroke-linecap="round" stroke-linejoin="round"></path><path d="M17.2266 46.5234H8.78906" stroke="#401C86" stroke-width="2" stroke-miterlimit="10" stroke-linecap="round" stroke-linejoin="round"></path></g><defs><clipPath id="clip0_6616_5684"><rect width="60" height="60" fill="white"></rect></clipPath></defs></svg> 