<?xml version="1.0" encoding="UTF-8"?> <svg xmlns="http://www.w3.org/2000/svg" width="24" height="24" viewBox="0 0 24 24" fill="none"><g clip-path="url(#clip0_6271_18686)"><path d="M15.3376 11.7227H13.502" stroke="#401C86" stroke-miterlimit="10" stroke-linecap="round" stroke-linejoin="round"></path><path d="M10.4987 11.7227H8.66309" stroke="#401C86" stroke-miterlimit="10" stroke-linecap="round" stroke-linejoin="round"></path><path d="M8.66309 14.6367H15.3375" stroke="#401C86" stroke-miterlimit="10" stroke-linecap="round" stroke-linejoin="round"></path><path d="M8.30445 2.12742C9.17164 1.04484 10.5047 0.351562 11.9998 0.351562C14.6133 0.351562 16.7319 2.47022 16.7319 5.08373C16.7319 8.27109 13.1857 12.728 11.9998 12.728C10.8138 12.728 7.26758 8.27156 7.26758 5.08373C7.26758 4.56117 7.35228 4.05839 7.5087 3.58833" stroke="#401C86" stroke-miterlimit="10" stroke-linecap="round" stroke-linejoin="round"></path><path d="M12.0002 7.63131C13.4075 7.63131 14.5483 6.4905 14.5483 5.08323C14.5483 3.67597 13.4075 2.53516 12.0002 2.53516C10.593 2.53516 9.45215 3.67597 9.45215 5.08323C9.45215 6.4905 10.593 7.63131 12.0002 7.63131Z" stroke="#401C86" stroke-miterlimit="10" stroke-linecap="round" stroke-linejoin="round"></path><path d="M3.99128 16.457L3.24156 16.9473C2.8075 17.2311 2.8075 17.8671 3.24156 18.1509L11.3584 23.458C11.748 23.7127 12.2514 23.7127 12.641 23.458L20.7578 18.1509C21.1919 17.8671 21.1919 17.2311 20.7578 16.9473L20.008 16.4571" stroke="#401C86" stroke-miterlimit="10" stroke-linecap="round" stroke-linejoin="round"></path><path d="M6.74707 18.2592C8.00104 19.0791 10.1047 20.4546 11.3586 21.2745C11.7482 21.5292 12.2517 21.5292 12.6412 21.2745L20.7581 15.9673C21.1921 15.6834 21.1921 15.0474 20.7581 14.7637L20.0083 14.2734" stroke="#401C86" stroke-miterlimit="10" stroke-linecap="round" stroke-linejoin="round"></path><path d="M3.99128 14.2734L3.24156 14.7637C2.8075 15.0475 2.8075 15.6835 3.24156 15.9673L6.74687 18.2592" stroke="#401C86" stroke-miterlimit="10" stroke-linecap="round" stroke-linejoin="round"></path><path d="M17.2349 10.2768L15.4375 9.10156" stroke="#401C86" stroke-miterlimit="10" stroke-linecap="round" stroke-linejoin="round"></path><path d="M8.56192 9.10156L3.24156 12.5803C2.8075 12.8641 2.8075 13.5001 3.24156 13.7839L11.3584 19.091C11.748 19.3458 12.2514 19.3458 12.641 19.091L20.7578 13.7839C21.1919 13.5001 21.1919 12.8641 20.7578 12.5803L18.64 11.1956L17.2349 10.2768" stroke="#401C86" stroke-miterlimit="10" stroke-linecap="round" stroke-linejoin="round"></path><path d="M9.49797 10.5352C8.79681 11.1987 8.35938 12.1381 8.35938 13.1796C8.35938 15.19 9.98913 16.8197 11.9995 16.8197C14.0099 16.8197 15.6396 15.19 15.6396 13.1796C15.6396 12.138 15.2021 11.1987 14.5009 10.5352" stroke="#401C86" stroke-miterlimit="10" stroke-linecap="round" stroke-linejoin="round"></path><path d="M10.6414 11.8672C10.5785 12.2743 10.5439 12.7168 10.5439 13.1795C10.5439 15.1899 11.1958 16.8196 12 16.8196C12.8042 16.8196 13.4561 15.1899 13.4561 13.1795C13.4561 12.7168 13.4215 12.2743 13.3586 11.8672" stroke="#401C86" stroke-miterlimit="10" stroke-linecap="round" stroke-linejoin="round"></path></g><defs><clipPath id="clip0_6271_18686"><rect width="24" height="24" fill="white"></rect></clipPath></defs></svg> 