<?xml version="1.0" encoding="UTF-8"?> <svg xmlns="http://www.w3.org/2000/svg" width="60" height="60" viewBox="0 0 60 60" fill="none"><g clip-path="url(#clip0_6569_5241)"><mask id="mask0_6569_5241" style="mask-type:luminance" maskUnits="userSpaceOnUse" x="0" y="0" width="60" height="60"><path d="M0 3.8147e-06H60V60H0V3.8147e-06Z" fill="white"></path></mask><g mask="url(#mask0_6569_5241)"><path d="M4.10156 38.3203H11.3121C12.6066 38.3203 13.6559 39.3696 13.6559 40.6641V55.8984C13.6559 57.1929 12.6066 58.2422 11.3121 58.2422H4.10156C2.80711 58.2422 1.75781 57.1929 1.75781 55.8984V40.6641C1.75781 39.3696 2.80711 38.3203 4.10156 38.3203Z" stroke="#401C86" stroke-width="2" stroke-miterlimit="10" stroke-linecap="round" stroke-linejoin="round"></path><path d="M13.6553 40.6641C17.5714 37.8444 22.8259 37.7498 26.841 40.4266L27.1972 40.6641H36.5721C38.5138 40.6641 40.0877 42.2381 40.0877 44.1797C40.0877 46.1213 38.5138 47.6953 36.5722 47.6953H26.0254H37.4529C39.1963 47.6953 40.8775 47.0477 42.1703 45.878L53.1284 35.9636C54.3375 34.8695 56.1922 34.9158 57.3452 36.0689C58.5093 37.2328 58.5439 39.1089 57.4237 40.3151L45.7339 52.9029C43.9601 54.813 41.471 55.8984 38.8643 55.8984H13.6553V40.6641Z" stroke="#401C86" stroke-width="2" stroke-miterlimit="10" stroke-linecap="round" stroke-linejoin="round"></path><path d="M36.8012 3.57527L49.5964 26.7664C50.8891 29.1096 49.1943 31.9805 46.5182 31.9805H20.9279C18.2518 31.9805 16.557 29.1096 17.8496 26.7664L30.6449 3.57527C31.9816 1.15219 35.4643 1.15219 36.8012 3.57527Z" stroke="#401C86" stroke-width="2" stroke-miterlimit="10" stroke-linecap="round" stroke-linejoin="round"></path><path d="M33.7227 19.0898V11.4727" stroke="#401C86" stroke-width="2" stroke-miterlimit="10" stroke-linecap="round" stroke-linejoin="round"></path><path d="M35.4805 24.9492C35.4805 25.92 34.6936 26.707 33.7227 26.707C32.7519 26.707 31.9648 25.92 31.9648 24.9492C31.9648 23.9783 32.7519 23.1914 33.7227 23.1914C34.6936 23.1914 35.4805 23.9783 35.4805 24.9492Z" fill="#401C86"></path></g></g><defs><clipPath id="clip0_6569_5241"><rect width="60" height="60" fill="white"></rect></clipPath></defs></svg> 