<?xml version="1.0" encoding="UTF-8"?> <svg xmlns="http://www.w3.org/2000/svg" width="60" height="60" viewBox="0 0 60 60" fill="none"><g clip-path="url(#clip0_6569_5193)"><path d="M13.4307 11.6524V1.75781H20.5382H29.8994H47.4386L58.2426 12.5777V58.2422H13.4307V36.5467" stroke="#401C86" stroke-width="2" stroke-miterlimit="10" stroke-linecap="round" stroke-linejoin="round"></path><path d="M58.2425 12.5777H47.4385V1.75781L58.2425 12.5777Z" stroke="#401C86" stroke-width="2" stroke-miterlimit="10" stroke-linecap="round" stroke-linejoin="round"></path><path d="M51.2217 21.5586H42.8574" stroke="#401C86" stroke-width="2" stroke-miterlimit="10" stroke-linecap="round" stroke-linejoin="round"></path><path d="M51.2213 28.5898H34.168" stroke="#401C86" stroke-width="2" stroke-miterlimit="10" stroke-linecap="round" stroke-linejoin="round"></path><path d="M51.2214 35.6211H39.3467" stroke="#401C86" stroke-width="2" stroke-miterlimit="10" stroke-linecap="round" stroke-linejoin="round"></path><path d="M51.2213 49.8047H20.4512" stroke="#401C86" stroke-width="2" stroke-miterlimit="10" stroke-linecap="round" stroke-linejoin="round"></path><path d="M51.2214 42.7734H39.3467" stroke="#401C86" stroke-width="2" stroke-miterlimit="10" stroke-linecap="round" stroke-linejoin="round"></path><path d="M40.5 42.7734H20.4512" stroke="#401C86" stroke-width="2" stroke-miterlimit="10" stroke-linecap="round" stroke-linejoin="round"></path><path d="M22.2587 35.6215C29.6573 35.6215 35.6551 29.6148 35.6551 22.2053C35.6551 14.7957 29.6573 8.78906 22.2587 8.78906C14.8601 8.78906 8.8623 14.7957 8.8623 22.2053C8.8623 29.6148 14.8601 35.6215 22.2587 35.6215Z" stroke="#401C86" stroke-width="2" stroke-miterlimit="10" stroke-linecap="round" stroke-linejoin="round"></path><path d="M15.5974 33.8461L7.7504 41.7047C6.37895 43.0781 4.15685 43.0781 2.78552 41.7047C1.41524 40.3324 1.41524 38.1059 2.78552 36.7336L10.6325 28.875" stroke="#401C86" stroke-width="2" stroke-miterlimit="10" stroke-linecap="round" stroke-linejoin="round"></path><path d="M17.9121 21.9837L20.9558 25.0275L26.6043 19.3789" stroke="#401C86" stroke-width="2" stroke-miterlimit="10" stroke-linecap="round" stroke-linejoin="round"></path></g><defs><clipPath id="clip0_6569_5193"><rect width="60" height="60" fill="white"></rect></clipPath></defs></svg> 