<?xml version="1.0" encoding="UTF-8"?> <svg xmlns="http://www.w3.org/2000/svg" width="60" height="60" viewBox="0 0 60 60" fill="none"><path d="M7.06366 22.7801C6.89374 22.5484 6.73378 22.3063 6.58683 22.0518C4.41019 18.2816 5.70183 13.4607 9.47198 11.2841C13.2421 9.10746 18.063 10.3992 20.2396 14.1693M13.4132 34.0069C9.05984 34.0069 5.53073 37.536 5.53073 41.8894C5.53073 46.2428 9.05984 49.7719 13.4132 49.7719C16.3312 49.7719 18.879 48.1863 20.2417 45.8297M14.2333 49.7297C14.2332 49.7443 14.2332 49.759 14.2332 49.7737C14.2332 54.1271 17.7623 57.6562 22.1157 57.6562C26.4691 57.6562 29.9982 54.1271 29.9982 49.7737M52.9362 22.7801C53.1062 22.5484 53.2661 22.3063 53.4131 22.0518C55.5897 18.2816 54.2981 13.4607 50.5279 11.2841C46.7578 9.10746 41.9369 10.3992 39.7603 14.1693M52.9366 37.2188C53.1996 37.1031 53.4591 36.9734 53.7137 36.8264C57.4838 34.6498 58.7756 29.8288 56.5988 26.0587C54.6226 22.6357 50.4665 21.2557 46.8963 22.6598M13.1036 22.6597C9.53339 21.2557 5.37734 22.6357 3.40109 26.0586C1.22444 29.8288 2.5162 34.6496 6.28624 36.8263C6.54077 36.9732 6.80034 37.1031 7.06331 37.2186M39.7582 45.8297C41.1209 48.1862 43.6686 49.7719 46.5867 49.7719C50.9401 49.7719 54.4692 46.2428 54.4692 41.8894C54.4692 37.536 50.9401 34.0069 46.5867 34.0069M45.7648 10.2704C45.765 10.2558 45.765 10.241 45.765 10.2262C45.765 5.87285 42.2359 2.34375 37.8825 2.34375C33.5291 2.34375 30 5.87285 30 10.2262M30 10.2262C30 5.87285 26.4708 2.34375 22.1175 2.34375C17.7641 2.34375 14.235 5.87285 14.235 10.2262C14.235 10.241 14.235 10.2557 14.2351 10.2704M30 10.2262V15.9375M30.0018 49.7737C30.0018 54.1271 33.5309 57.6562 37.8843 57.6562C42.2377 57.6562 45.7668 54.1271 45.7668 49.7737C45.7668 49.7591 45.7668 49.7443 45.7667 49.7297M20.625 37.793V27.6562C20.625 25.0675 22.7237 22.9688 25.3125 22.9688C27.9012 22.9688 30 25.0675 30 27.6562L29.9981 37.793M20.625 32.3438H30M39.375 37.793V22.9688M29.9981 44.0625V49.7737" stroke="#401C86" stroke-width="2" stroke-miterlimit="10" stroke-linecap="round" stroke-linejoin="round"></path></svg> 