<?xml version="1.0" encoding="UTF-8"?> <svg xmlns="http://www.w3.org/2000/svg" width="60" height="60" viewBox="0 0 60 60" fill="none"><g clip-path="url(#clip0_6569_5258)"><path fill-rule="evenodd" clip-rule="evenodd" d="M24.7585 22.1591H58.8279V58.8277H1.17188V16.6406H20.8273L24.7585 22.1591Z" stroke="#401C86" stroke-width="2" stroke-miterlimit="22.9256" stroke-linecap="round" stroke-linejoin="round"></path><path d="M52.2654 29.9453H7.73438V51.039H52.2654V29.9453Z" stroke="#401C86" stroke-width="2" stroke-miterlimit="22.9256" stroke-linecap="round" stroke-linejoin="round"></path><path d="M17.4756 41.6639H13.1982M13.0078 45.1797V38.1484C13.0078 36.8594 14.0625 35.8047 15.3516 35.8047C16.6406 35.8047 17.6953 36.8594 17.6953 38.1484V45.1797" stroke="#401C86" stroke-width="2" stroke-miterlimit="22.9256" stroke-linecap="round" stroke-linejoin="round"></path><path d="M44.9414 36.1641V45.1801" stroke="#401C86" stroke-width="2" stroke-miterlimit="22.9256" stroke-linecap="round" stroke-linejoin="round"></path><path d="M42.8906 35.8047H46.9922" stroke="#401C86" stroke-width="2" stroke-miterlimit="22.9256" stroke-linecap="round" stroke-linejoin="round"></path><path fill-rule="evenodd" clip-rule="evenodd" d="M30.5859 35.8047H32.9297C34.2188 35.8047 35.2734 36.8594 35.2734 38.1484V42.8359C35.2734 44.125 34.2189 45.1797 32.9297 45.1797H30.5859V35.8047Z" stroke="#401C86" stroke-width="2" stroke-miterlimit="22.9256" stroke-linecap="round" stroke-linejoin="round"></path><path d="M39.375 35.8047V45.1797" stroke="#401C86" stroke-width="2" stroke-miterlimit="22.9256" stroke-linecap="round" stroke-linejoin="round"></path><path d="M26.4844 35.8047V42.8359C26.4844 44.125 25.4297 45.1797 24.1406 45.1797C22.8516 45.1797 21.7969 44.125 21.7969 42.8359V35.8047" stroke="#401C86" stroke-width="2" stroke-miterlimit="22.9256" stroke-linecap="round" stroke-linejoin="round"></path><path d="M7.73438 16.0551V1.17188H41.7186L52.2654 11.7187V21.5736" stroke="#401C86" stroke-width="2" stroke-miterlimit="22.9256" stroke-linecap="round" stroke-linejoin="round"></path><path d="M51.6797 11.7188H41.7188V1.75781" stroke="#401C86" stroke-width="2" stroke-miterlimit="22.9256" stroke-linecap="round" stroke-linejoin="round"></path></g><defs><clipPath id="clip0_6569_5258"><rect width="60" height="60" fill="white"></rect></clipPath></defs></svg> 