<?xml version="1.0" encoding="UTF-8"?> <svg xmlns="http://www.w3.org/2000/svg" width="24" height="24" viewBox="0 0 24 24" fill="none"><g clip-path="url(#clip0_6232_11639)"><mask id="mask0_6232_11639" style="mask-type:luminance" maskUnits="userSpaceOnUse" x="0" y="0" width="25" height="25"><path d="M0.00195312 0.00781441H24.002V24.0078H0.00195312V0.00781441Z" fill="white"></path></mask><g mask="url(#mask0_6232_11639)"><path d="M6.77637 23.3047V6.33603H9.58891V23.3047" stroke="#401C86" stroke-miterlimit="22.926" stroke-linecap="round" stroke-linejoin="round"></path></g><path d="M6.93945 9.14453H9.42383" stroke="#401C86" stroke-miterlimit="22.926" stroke-linecap="round" stroke-linejoin="round"></path><mask id="mask1_6232_11639" style="mask-type:luminance" maskUnits="userSpaceOnUse" x="0" y="0" width="25" height="25"><path d="M0.00195312 0.00781441H24.002V24.0078H0.00195312V0.00781441Z" fill="white"></path></mask><g mask="url(#mask1_6232_11639)"><path d="M3.02511 0.710938H8.18005H13.3387C13.5107 1.64862 13.6846 2.58678 13.856 3.524C14.0274 4.46098 14.1989 5.39881 14.3709 6.33594H8.18127H1.99414C2.16491 5.39881 2.33759 4.46098 2.50902 3.524C2.68039 2.58678 2.8543 1.64862 3.02511 0.710938Z" stroke="#401C86" stroke-miterlimit="22.926" stroke-linecap="round" stroke-linejoin="round"></path><path d="M5.60342 0.710938C5.43153 2.58594 5.25973 4.46094 5.08789 6.33594" stroke="#401C86" stroke-miterlimit="22.926" stroke-linecap="round" stroke-linejoin="round"></path><path d="M8.18164 0.710938V6.33594" stroke="#401C86" stroke-miterlimit="22.926" stroke-linecap="round" stroke-linejoin="round"></path><path d="M10.7598 0.710938C10.9316 2.58594 11.1034 4.46094 11.2752 6.33594" stroke="#401C86" stroke-miterlimit="22.926" stroke-linecap="round" stroke-linejoin="round"></path><path d="M2.7959 3.52344H13.2449" stroke="#401C86" stroke-miterlimit="22.926" stroke-linecap="round" stroke-linejoin="round"></path><path d="M9.58887 20.7305V15.9406C9.58887 13.204 11.8209 10.9719 14.5576 10.9719H17.6513" stroke="#401C86" stroke-miterlimit="22.926" stroke-linecap="round" stroke-linejoin="round"></path><path d="M14.5576 10.9719H22.0099V12.5273C22.0099 13.56 21.1676 14.4023 20.1349 14.4023H16.4326C15.4 14.4023 14.5576 13.56 14.5576 12.5273V10.9719Z" stroke="#401C86" stroke-miterlimit="22.926" stroke-linecap="round" stroke-linejoin="round"></path><path d="M18.2832 16.9297V18.6641" stroke="#401C86" stroke-miterlimit="22.926" stroke-linecap="round" stroke-linejoin="round"></path><path d="M15.5721 16.9269L14.8936 17.6055" stroke="#401C86" stroke-miterlimit="22.926" stroke-linecap="round" stroke-linejoin="round"></path><path d="M21.002 16.9269L21.6805 17.6055" stroke="#401C86" stroke-miterlimit="22.926" stroke-linecap="round" stroke-linejoin="round"></path></g></g><defs><clipPath id="clip0_6232_11639"><rect width="24" height="24" fill="white"></rect></clipPath></defs></svg> 