<?xml version="1.0" encoding="UTF-8"?> <svg xmlns="http://www.w3.org/2000/svg" width="24" height="24" viewBox="0 0 24 24" fill="none"><g clip-path="url(#clip0_6271_18731)"><path d="M8.2832 11.4089C9.27274 10.5395 10.5694 10.0117 11.987 10.0117C13.4046 10.0117 14.7013 10.5395 15.6908 11.4089" stroke="#401C86" stroke-miterlimit="10" stroke-linecap="round" stroke-linejoin="round"></path><path d="M10.1357 13.5189C10.6305 13.0842 11.2788 12.8203 11.9876 12.8203C12.6964 12.8203 13.3448 13.0842 13.8395 13.5189" stroke="#401C86" stroke-miterlimit="10" stroke-linecap="round" stroke-linejoin="round"></path><circle cx="11.9874" cy="15.6319" r="0.702234" fill="#401C86"></circle><path d="M6.47427 3.92578H0.702148V8.31956H6.47427V3.92578Z" stroke="#401C86" stroke-miterlimit="10" stroke-linecap="round" stroke-linejoin="round"></path><path d="M1.95215 3.87911V2.35138C1.95215 1.44755 2.68486 0.714844 3.58868 0.714844C4.4925 0.714844 5.22521 1.44755 5.22521 2.35138V3.87911" stroke="#401C86" stroke-miterlimit="10" stroke-linecap="round" stroke-linejoin="round"></path><path d="M21.2785 19.2519H20.0535C20.0503 18.0206 19.0513 17.0234 17.8193 17.0234C16.5853 17.0234 15.5849 18.0238 15.5849 19.2578C15.5849 19.2621 15.5852 19.2664 15.5853 19.2707C14.5992 19.4038 13.8389 20.2483 13.8389 21.2708C13.8389 22.3859 14.7428 23.2898 15.8578 23.2898H21.2785C22.3935 23.2898 23.2974 22.3859 23.2974 21.2708C23.2974 20.1558 22.3935 19.2519 21.2785 19.2519Z" stroke="#401C86" stroke-miterlimit="10" stroke-linecap="round" stroke-linejoin="round"></path><path d="M23.2824 3.60556C23.2824 1.99196 21.9621 0.686746 20.3428 0.711278C18.8137 0.734451 17.5524 1.96636 17.4952 3.4946C17.455 4.57089 18.0031 5.52172 18.843 6.05298V7.61643C18.843 8.4696 19.5346 9.16121 20.3878 9.16121C21.241 9.16121 21.9326 8.4696 21.9326 7.61643V6.05298C22.7435 5.54012 23.2824 4.63606 23.2824 3.60556Z" stroke="#401C86" stroke-miterlimit="10" stroke-linecap="round" stroke-linejoin="round"></path><path d="M18.8428 6.05469H21.9324" stroke="#401C86" stroke-miterlimit="10" stroke-linecap="round" stroke-linejoin="round"></path><path d="M7.72322 23.288H0.702148V18.2256L4.21266 15.0664L7.72322 18.2256V23.288Z" stroke="#401C86" stroke-miterlimit="10" stroke-linecap="round" stroke-linejoin="round"></path></g><defs><clipPath id="clip0_6271_18731"><rect width="24" height="24" fill="white"></rect></clipPath></defs></svg> 