<?xml version="1.0" encoding="UTF-8"?> <svg xmlns="http://www.w3.org/2000/svg" width="60" height="60" viewBox="0 0 60 60" fill="none"><g clip-path="url(#clip0_6632_6468)"><mask id="mask0_6632_6468" style="mask-type:luminance" maskUnits="userSpaceOnUse" x="0" y="0" width="60" height="60"><path d="M0 3.8147e-06H60V60H0V3.8147e-06Z" fill="white"></path></mask><g mask="url(#mask0_6632_6468)"><path d="M22.8516 12.4219C22.8516 14.3634 21.2775 15.9375 19.3359 15.9375C17.3944 15.9375 15.8203 14.3634 15.8203 12.4219C15.8203 10.4803 17.3944 8.90625 19.3359 8.90625C21.2775 8.90625 22.8516 10.4803 22.8516 12.4219Z" stroke="#401C86" stroke-width="2" stroke-miterlimit="10" stroke-linecap="round" stroke-linejoin="round"></path><path d="M22.8516 26.4844C22.8516 28.4259 21.2775 30 19.3359 30C17.3944 30 15.8203 28.4259 15.8203 26.4844C15.8203 24.5428 17.3944 22.9688 19.3359 22.9688C21.2775 22.9688 22.8516 24.5428 22.8516 26.4844Z" stroke="#401C86" stroke-width="2" stroke-miterlimit="10" stroke-linecap="round" stroke-linejoin="round"></path><path d="M22.8516 40.5469C22.8516 42.4884 21.2775 44.0625 19.3359 44.0625C17.3944 44.0625 15.8203 42.4884 15.8203 40.5469C15.8203 38.6053 17.3944 37.0312 19.3359 37.0312C21.2775 37.0312 22.8516 38.6053 22.8516 40.5469Z" stroke="#401C86" stroke-width="2" stroke-miterlimit="10" stroke-linecap="round" stroke-linejoin="round"></path><path d="M29.8828 51.0938H8.78906V1.75782H29.8828V51.0938Z" stroke="#401C86" stroke-width="2" stroke-miterlimit="10" stroke-linecap="round" stroke-linejoin="round"></path><path d="M8.78906 44.0625C4.90582 44.0625 1.75781 40.9145 1.75781 37.0312H8.78906" stroke="#401C86" stroke-width="2" stroke-miterlimit="10" stroke-linecap="round" stroke-linejoin="round"></path><path d="M8.78906 30C4.90582 30 1.75781 26.852 1.75781 22.9688H8.78906" stroke="#401C86" stroke-width="2" stroke-miterlimit="10" stroke-linecap="round" stroke-linejoin="round"></path><path d="M8.78906 15.9375C4.90582 15.9375 1.75781 12.7895 1.75781 8.90625H8.78906" stroke="#401C86" stroke-width="2" stroke-miterlimit="10" stroke-linecap="round" stroke-linejoin="round"></path><path d="M19.3359 60V51.0938" stroke="#401C86" stroke-width="2" stroke-miterlimit="10" stroke-linecap="round" stroke-linejoin="round"></path><path d="M51.2109 37.0312H36.9141V26.4844H51.2109V37.0312Z" stroke="#401C86" stroke-width="2" stroke-miterlimit="10" stroke-linecap="round" stroke-linejoin="round"></path><path d="M51.2109 30L58.2422 26.4844V37.0312L51.2109 33.5156" stroke="#401C86" stroke-width="2" stroke-miterlimit="10" stroke-linecap="round" stroke-linejoin="round"></path><path d="M29.8828 44.0625H44.0625V37.0312" stroke="#401C86" stroke-width="2" stroke-miterlimit="10" stroke-linecap="round" stroke-linejoin="round"></path></g></g><defs><clipPath id="clip0_6632_6468"><rect width="60" height="60" fill="white"></rect></clipPath></defs></svg> 