<?xml version="1.0" encoding="UTF-8"?> <svg xmlns="http://www.w3.org/2000/svg" width="24" height="24" viewBox="0 0 24 24" fill="none"><g clip-path="url(#clip0_6241_9048)"><g clip-path="url(#clip1_6241_9048)"><mask id="mask0_6241_9048" style="mask-type:luminance" maskUnits="userSpaceOnUse" x="0" y="0" width="25" height="25"><path d="M0.334961 0.339846H24.335V24.3398H0.334961V0.339846Z" fill="white"></path></mask><g mask="url(#mask0_6241_9048)"><path d="M12.3346 1.04375C13.581 1.04375 14.5939 2.05592 14.5939 3.30313C14.5939 4.54991 13.581 5.5625 12.3346 5.5625C11.0882 5.5625 10.0752 4.54991 10.0752 3.30313C10.0752 2.05592 11.0882 1.04375 12.3346 1.04375Z" stroke="#401C86" stroke-width="0.7" stroke-miterlimit="10" stroke-linecap="round" stroke-linejoin="round"></path><path d="M14.5939 14.5977H10.0752V9.8202C10.0752 9.8202 10.463 9.43119 10.9187 8.97594C11.8262 8.06994 12.3346 6.8412 12.3346 5.56016C13.581 5.56016 14.5939 6.5712 14.5939 7.81878V14.5977Z" stroke="#401C86" stroke-width="0.7" stroke-miterlimit="10" stroke-linecap="round" stroke-linejoin="round"></path><path d="M12.3351 5.55963C10.8891 5.55963 9.49967 6.13427 8.47911 7.15703C7.24409 8.39214 5.56836 10.0675 4.49136 11.1433C4.20894 11.4258 4.05078 11.809 4.05078 12.2086C4.05078 12.6078 4.20894 12.9911 4.49136 13.2735C4.77378 13.5559 5.15787 13.7148 5.55702 13.7148C5.9562 13.7148 6.3403 13.5559 6.62272 13.2735C7.77875 12.1144 9.63898 10.2561 10.9193 8.97545C11.8268 8.06941 12.3351 6.84072 12.3351 5.55963Z" stroke="#401C86" stroke-width="0.7" stroke-miterlimit="10" stroke-linecap="round" stroke-linejoin="round"></path><path d="M10.0759 14.599V14.6306C10.0759 15.607 9.91778 16.577 9.60522 17.503C9.45086 17.9654 9.31905 18.3646 9.31905 18.3646C9.31905 18.3646 6.96175 19.8724 5.46302 20.8318C4.78525 21.266 4.57056 22.1562 4.96971 22.8536C4.9735 22.8585 4.97725 22.863 4.98105 22.8679C5.18435 23.2215 5.5233 23.4768 5.91864 23.5758C6.31403 23.6752 6.73202 23.6094 7.07852 23.3936C8.7843 22.3332 11.5294 20.624 11.5294 20.624C11.5294 20.624 12.8399 18.6892 13.7474 17.3517C14.301 16.5394 14.5946 15.5803 14.5946 14.599H10.0759Z" stroke="#401C86" stroke-width="0.7" stroke-miterlimit="10" stroke-linecap="round" stroke-linejoin="round"></path><path d="M14.5945 14.5992C14.5945 15.1641 14.8167 15.7059 15.2196 16.1051C16.3531 17.2419 18.7744 19.6628 20.179 21.0652C20.4614 21.3476 20.6195 21.7309 20.6195 22.1305C20.6195 22.53 20.4614 22.913 20.179 23.1954C19.8965 23.4778 19.5125 23.6367 19.1132 23.6367C18.7141 23.6367 18.33 23.4778 18.0476 23.1954C16.3267 21.4741 13.126 18.2722 13.126 18.2722C13.126 18.2722 13.4234 17.8343 13.7473 17.3519C14.3008 16.5397 14.5945 15.5805 14.5945 14.5992Z" stroke="#401C86" stroke-width="0.7" stroke-miterlimit="10" stroke-linecap="round" stroke-linejoin="round"></path><path d="M12.335 5.55981C13.781 5.55981 15.1667 6.13445 16.191 7.15722C17.4261 8.39233 19.1018 10.0676 20.1788 11.1435C20.4612 11.4259 20.6193 11.8092 20.6193 12.2088C20.6193 12.6079 20.4612 12.9913 20.1788 13.2737C19.5876 13.8619 18.6349 13.8619 18.0474 13.2737C16.7106 11.9377 14.5943 9.81986 14.5943 9.81986V7.81844C14.5943 7.21933 14.3571 6.64469 13.9316 6.22108C13.5098 5.7978 12.9337 5.55981 12.335 5.55981Z" stroke="#401C86" stroke-width="0.7" stroke-miterlimit="10" stroke-linecap="round" stroke-linejoin="round"></path></g></g></g><defs><clipPath id="clip0_6241_9048"><rect width="24" height="24" fill="white"></rect></clipPath><clipPath id="clip1_6241_9048"><rect width="24" height="24" fill="white" transform="translate(0.333008 0.332031)"></rect></clipPath></defs></svg> 