<?xml version="1.0" encoding="UTF-8"?> <svg xmlns="http://www.w3.org/2000/svg" width="24" height="24" viewBox="0 0 24 24" fill="none"><path d="M14.891 17.6523H9.11328" stroke="#401C86" stroke-miterlimit="10" stroke-linecap="round" stroke-linejoin="round"></path><path d="M3.64637 17.6516H0.702148V14.8711H23.2966V17.6516H20.3576" stroke="#401C86" stroke-miterlimit="10" stroke-linecap="round" stroke-linejoin="round"></path><path d="M17.7408 20.364C19.249 20.2993 20.4192 19.0241 20.3544 17.5159C20.2897 16.0077 19.0145 14.8375 17.5063 14.9023C15.998 14.967 14.8279 16.2422 14.8927 17.7504C14.9574 19.2586 16.2326 20.4288 17.7408 20.364Z" stroke="#401C86" stroke-miterlimit="10" stroke-linecap="round" stroke-linejoin="round"></path><circle cx="17.6237" cy="17.6325" r="0.702779" fill="#401C86"></circle><path d="M6.49556 20.3646C8.00378 20.3001 9.17419 19.0252 9.10973 17.517C9.04527 16.0088 7.77036 14.8384 6.26213 14.9028C4.75391 14.9673 3.5835 16.2422 3.64796 17.7504C3.71242 19.2586 4.98734 20.429 6.49556 20.3646Z" stroke="#401C86" stroke-miterlimit="10" stroke-linecap="round" stroke-linejoin="round"></path><circle cx="6.37856" cy="17.6325" r="0.702779" fill="#401C86"></circle><path d="M12.7049 3.63672V8.63301H0.734375V11.6447L3.07697 14.8722" stroke="#401C86" stroke-miterlimit="10" stroke-linecap="round" stroke-linejoin="round"></path><path d="M19.3818 6.43097V3.63672" stroke="#401C86" stroke-miterlimit="10" stroke-linecap="round" stroke-linejoin="round"></path><path d="M23.2964 14.8709V9.18641L20.9345 6.42969H15.5137V14.8709" stroke="#401C86" stroke-miterlimit="10" stroke-linecap="round" stroke-linejoin="round"></path><path d="M12.7051 3.63672H21.3855" stroke="#401C86" stroke-miterlimit="10" stroke-linecap="round" stroke-linejoin="round"></path><path d="M23.2968 9.23438H19.0703V12.0501H23.2968" stroke="#401C86" stroke-miterlimit="10" stroke-linecap="round" stroke-linejoin="round"></path><path d="M1.35449 8.63489L4.19203 5.27073C5.67583 3.51392 8.38331 3.51392 9.86712 5.27073L12.7047 8.63489" stroke="#401C86" stroke-miterlimit="10" stroke-linecap="round" stroke-linejoin="round"></path><path d="M12.7148 11.4375V12.0758" stroke="#401C86" stroke-miterlimit="10" stroke-linecap="round" stroke-linejoin="round"></path><path d="M9.90332 11.4375V12.0758" stroke="#401C86" stroke-miterlimit="10" stroke-linecap="round" stroke-linejoin="round"></path><path d="M7.09277 11.4375V12.0758" stroke="#401C86" stroke-miterlimit="10" stroke-linecap="round" stroke-linejoin="round"></path><path d="M4.28125 11.4375V12.0758" stroke="#401C86" stroke-miterlimit="10" stroke-linecap="round" stroke-linejoin="round"></path></svg> 