<?xml version="1.0" encoding="UTF-8"?> <svg xmlns="http://www.w3.org/2000/svg" width="60" height="60" viewBox="0 0 60 60" fill="none"><g clip-path="url(#clip0_6569_5474)"><mask id="mask0_6569_5474" style="mask-type:luminance" maskUnits="userSpaceOnUse" x="0" y="0" width="60" height="60"><path d="M0 3.8147e-06H60V60H0V3.8147e-06Z" fill="white"></path></mask><g mask="url(#mask0_6569_5474)"><path d="M31.7012 18.1678L40.5469 31.7578L49.3927 18.1678C50.4687 16.5148 51.0938 14.4241 51.0938 12.3047C51.0938 6.47988 46.3718 1.75781 40.5469 1.75781C34.722 1.75781 30 6.47988 30 12.3047C30 14.4241 30.6251 16.5148 31.7012 18.1678Z" stroke="#401C86" stroke-width="2" stroke-miterlimit="10" stroke-linecap="round" stroke-linejoin="round"></path><path d="M40.5469 15.9375C38.6088 15.9375 37.0312 14.2427 37.0312 12.3047C37.0312 10.3666 38.6088 8.78906 40.5469 8.78906C42.4849 8.78906 44.0625 10.3666 44.0625 12.3047C44.0625 14.2427 42.4849 15.9375 40.5469 15.9375Z" stroke="#401C86" stroke-width="2" stroke-miterlimit="10" stroke-linecap="round" stroke-linejoin="round"></path><path d="M33.2409 20.5335L19.4531 15.9375L1.75781 22.9688V57.5391L19.4531 51.2109L40.5469 58.125L58.2422 51.2109V15.9375L48.2814 19.875" stroke="#401C86" stroke-width="2" stroke-miterlimit="10" stroke-linecap="round" stroke-linejoin="round"></path><path d="M19.4531 15.9375V51.2109" stroke="#401C86" stroke-width="2" stroke-miterlimit="10" stroke-linecap="round" stroke-linejoin="round"></path><path d="M40.5469 31.7578V58.125" stroke="#401C86" stroke-width="2" stroke-miterlimit="10" stroke-linecap="round" stroke-linejoin="round"></path></g></g><defs><clipPath id="clip0_6569_5474"><rect width="60" height="60" fill="white"></rect></clipPath></defs></svg> 