<?xml version="1.0" encoding="UTF-8"?> <svg xmlns="http://www.w3.org/2000/svg" width="60" height="60" viewBox="0 0 60 60" fill="none"><mask id="mask0_6569_5643" style="mask-type:luminance" maskUnits="userSpaceOnUse" x="0" y="0" width="60" height="60"><path d="M0 3.8147e-06H60V60H0V3.8147e-06Z" fill="white"></path></mask><g mask="url(#mask0_6569_5643)"><path d="M1.8457 36.5625H58.0957" stroke="#401C86" stroke-width="2" stroke-miterlimit="10" stroke-linecap="round" stroke-linejoin="round"></path><path d="M1.8457 43.9453H58.0957" stroke="#401C86" stroke-width="2" stroke-miterlimit="10" stroke-linecap="round" stroke-linejoin="round"></path><path d="M1.8457 51.2422H58.0957" stroke="#401C86" stroke-width="2" stroke-miterlimit="10" stroke-linecap="round" stroke-linejoin="round"></path></g><path d="M13.1592 36.5742V26.402" stroke="#401C86" stroke-width="2" stroke-miterlimit="10" stroke-linecap="round" stroke-linejoin="round"></path><mask id="mask1_6569_5643" style="mask-type:luminance" maskUnits="userSpaceOnUse" x="0" y="0" width="60" height="60"><path d="M0 3.8147e-06H60V60H0V3.8147e-06Z" fill="white"></path></mask><g mask="url(#mask1_6569_5643)"><path d="M13.1582 26.4016C13.1582 26.4016 16.054 28.7478 19.4046 27.85C22.7553 26.9522 24.09 23.4725 24.09 23.4725C24.09 23.4725 21.1941 21.126 17.8435 22.0239C14.493 22.9217 13.1582 26.4016 13.1582 26.4016Z" stroke="#401C86" stroke-width="2" stroke-miterlimit="10" stroke-linecap="round" stroke-linejoin="round"></path><path d="M13.1584 26.4016C13.1584 26.4016 10.2626 28.7478 6.91195 27.85C3.56133 26.9522 2.22656 23.4725 2.22656 23.4725C2.22656 23.4725 5.1225 21.126 8.47313 22.0239C11.8236 22.9217 13.1584 26.4016 13.1584 26.4016Z" stroke="#401C86" stroke-width="2" stroke-miterlimit="10" stroke-linecap="round" stroke-linejoin="round"></path><path d="M46.8408 36.5742V26.402" stroke="#401C86" stroke-width="2" stroke-miterlimit="10" stroke-linecap="round" stroke-linejoin="round"></path><path d="M46.84 26.4016C46.84 26.4016 43.9442 28.7478 40.5936 27.85C37.243 26.9522 35.9082 23.4725 35.9082 23.4725C35.9082 23.4725 38.8041 21.126 42.1548 22.0239C45.5053 22.9217 46.84 26.4016 46.84 26.4016Z" stroke="#401C86" stroke-width="2" stroke-miterlimit="10" stroke-linecap="round" stroke-linejoin="round"></path><path d="M46.8408 26.4016C46.8408 26.4016 49.7366 28.7478 53.0873 27.85C56.4379 26.9522 57.7727 23.4725 57.7727 23.4725C57.7727 23.4725 54.8767 21.126 51.5261 22.0239C48.1756 22.9217 46.8408 26.4016 46.8408 26.4016Z" stroke="#401C86" stroke-width="2" stroke-miterlimit="10" stroke-linecap="round" stroke-linejoin="round"></path><path d="M29.999 36.5742V13.3418" stroke="#401C86" stroke-width="2" stroke-miterlimit="10" stroke-linecap="round" stroke-linejoin="round"></path><path d="M29.999 13.3391C29.999 13.3391 32.8948 15.6853 36.2455 14.7875C39.5961 13.8897 40.9309 10.41 40.9309 10.41C40.9309 10.41 38.0349 8.06351 34.6843 8.9614C31.3338 9.85917 29.999 13.3391 29.999 13.3391Z" stroke="#401C86" stroke-width="2" stroke-miterlimit="10" stroke-linecap="round" stroke-linejoin="round"></path><path d="M29.9992 13.3391C29.9992 13.3391 27.1034 15.6853 23.7528 14.7875C20.4021 13.8897 19.0674 10.41 19.0674 10.41C19.0674 10.41 21.9633 8.06351 25.3139 8.9614C28.6645 9.85917 29.9992 13.3391 29.9992 13.3391Z" stroke="#401C86" stroke-width="2" stroke-miterlimit="10" stroke-linecap="round" stroke-linejoin="round"></path></g></svg> 