<?xml version="1.0" encoding="UTF-8"?> <svg xmlns="http://www.w3.org/2000/svg" width="60" height="60" viewBox="0 0 60 60" fill="none"><g clip-path="url(#clip0_6569_5444)"><mask id="mask0_6569_5444" style="mask-type:luminance" maskUnits="userSpaceOnUse" x="0" y="0" width="60" height="60"><path d="M0 3.8147e-06H60V60H0V3.8147e-06Z" fill="white"></path></mask><g mask="url(#mask0_6569_5444)"><path d="M33.4091 40.8997C41.7714 41.3502 48.0924 43.4266 48.0924 45.9201C48.0924 48.7429 39.992 51.0312 29.9998 51.0312C20.0075 51.0312 11.9072 48.7429 11.9072 45.9201C11.9072 43.4266 18.2281 41.3502 26.5904 40.8997" stroke="#401C86" stroke-width="2" stroke-miterlimit="10" stroke-linecap="round" stroke-linejoin="round"></path><path d="M5.96414 43.6076C3.29813 45.0722 1.75781 46.7984 1.75781 48.647C1.75781 53.9463 14.4023 58.2422 30 58.2422C45.5978 58.2422 58.2422 53.9463 58.2422 48.647C58.2422 46.7984 56.702 45.0722 54.036 43.6076" stroke="#401C86" stroke-width="2" stroke-miterlimit="10" stroke-linecap="round" stroke-linejoin="round"></path><path d="M29.9999 20.0286C27.3434 20.0286 25.1898 17.8751 25.1898 15.2187C25.1898 12.5621 27.3434 10.4086 29.9999 10.4086C32.6564 10.4086 34.81 12.5621 34.81 15.2187C34.81 17.8751 32.6564 20.0286 29.9999 20.0286ZM29.9999 1.75779C21.946 1.75779 15.417 8.28666 15.417 16.3404C15.417 21.9327 23.5878 36.0042 27.6972 42.7277C28.75 44.4501 31.2498 44.4501 32.3027 42.7277C36.4121 36.0042 44.5829 21.9327 44.5829 16.3404C44.5829 8.28666 38.0539 1.75779 29.9999 1.75779Z" stroke="#401C86" stroke-width="2" stroke-miterlimit="10" stroke-linecap="round" stroke-linejoin="round"></path></g></g><defs><clipPath id="clip0_6569_5444"><rect width="60" height="60" fill="white"></rect></clipPath></defs></svg> 