<?xml version="1.0" encoding="UTF-8"?> <svg xmlns="http://www.w3.org/2000/svg" width="24" height="24" viewBox="0 0 24 24" fill="none"><g clip-path="url(#clip0_6232_11736)"><mask id="mask0_6232_11736" style="mask-type:luminance" maskUnits="userSpaceOnUse" x="0" y="0" width="25" height="25"><path d="M0.00195312 0.00781441H24.002V24.0078H0.00195312V0.00781441Z" fill="white"></path></mask><g mask="url(#mask0_6232_11736)"><path d="M3.67676 9.47731V21.1484H20.3262V9.47731L12.608 4.7045C12.2364 4.47472 11.7665 4.47472 11.395 4.7045L3.67676 9.47731Z" stroke="#401C86" stroke-miterlimit="10" stroke-linecap="round"></path><path d="M2.74023 21.1484H21.2623" stroke="#401C86" stroke-miterlimit="10" stroke-linecap="round"></path><path d="M23.2988 11.3125L12.6085 4.70177C12.2369 4.47198 11.767 4.47198 11.3954 4.70177L0.705078 11.3125" stroke="#401C86" stroke-miterlimit="10" stroke-linecap="round"></path><path d="M8.54875 6.46231V3.63936C8.54875 3.21153 8.20122 2.8647 7.77255 2.8647H6.76258C6.33386 2.8647 5.98633 3.21153 5.98633 3.63936V8.04688" stroke="#401C86" stroke-miterlimit="10"></path><path d="M12.002 18.304V18.6523" stroke="#401C86" stroke-miterlimit="10" stroke-linecap="round"></path><path d="M10.4248 16.1543C10.8664 15.8301 11.4115 15.6386 12.0013 15.6386C12.597 15.6386 13.1471 15.834 13.591 16.1641" stroke="#401C86" stroke-miterlimit="10" stroke-linecap="round"></path><path d="M8.91406 14.0918C9.77886 13.4569 10.8464 13.0818 12.0015 13.0818C13.1625 13.0818 14.235 13.4607 15.1021 14.1016" stroke="#401C86" stroke-miterlimit="10" stroke-linecap="round"></path><path d="M7.42188 12.0508C8.70911 11.1015 10.3002 10.5404 12.0223 10.5404C13.7386 10.5404 15.3247 11.0977 16.6096 12.041" stroke="#401C86" stroke-miterlimit="10" stroke-linecap="round"></path></g></g><defs><clipPath id="clip0_6232_11736"><rect width="24" height="24" fill="white"></rect></clipPath></defs></svg> 