<?xml version="1.0" encoding="UTF-8"?> <svg xmlns="http://www.w3.org/2000/svg" width="24" height="24" viewBox="0 0 24 24" fill="none"><g clip-path="url(#clip0_6245_9289)"><path d="M12.9725 18.7702V15.859C12.9725 15.4622 12.7038 15.1406 12.3725 15.1406C12.0411 15.1406 11.7725 15.4623 11.7725 15.859V18.7702C11.7725 19.167 12.0411 19.4886 12.3725 19.4886C12.7038 19.4886 12.9725 19.167 12.9725 18.7702Z" fill="#401C86"></path><path d="M15.8465 18.7702V15.859C15.8465 15.4622 15.5778 15.1406 15.2465 15.1406C14.9151 15.1406 14.6465 15.4623 14.6465 15.859V18.7702C14.6465 19.167 14.9151 19.4886 15.2465 19.4886C15.5778 19.4886 15.8465 19.167 15.8465 18.7702Z" fill="#401C86"></path><path d="M18.7195 18.7702V15.859C18.7195 15.4622 18.4509 15.1406 18.1195 15.1406C17.7881 15.1406 17.5195 15.4623 17.5195 15.859V18.7702C17.5195 19.167 17.7882 19.4886 18.1195 19.4886C18.4509 19.4886 18.7195 19.167 18.7195 18.7702Z" fill="#401C86"></path><path d="M21.5936 18.7702V15.859C21.5936 15.4622 21.3249 15.1406 20.9936 15.1406C20.6622 15.1406 20.3936 15.4623 20.3936 15.859V18.7702C20.3936 19.167 20.6622 19.4886 20.9936 19.4886C21.3249 19.4886 21.5936 19.167 21.5936 18.7702Z" fill="#401C86"></path><path d="M9.90862 3.94141L6.59277 7.25725" stroke="#401C86" stroke-miterlimit="10" stroke-linecap="round" stroke-linejoin="round"></path><path d="M13.3217 7.25725L10.0059 3.94141" stroke="#401C86" stroke-miterlimit="10" stroke-linecap="round" stroke-linejoin="round"></path><path d="M16.7357 3.94141L13.4199 7.25725" stroke="#401C86" stroke-miterlimit="10" stroke-linecap="round" stroke-linejoin="round"></path><path d="M23.5311 3.89453H6.54395V7.30788H23.5311V3.89453Z" stroke="#401C86" stroke-miterlimit="10" stroke-linecap="round" stroke-linejoin="round"></path><path d="M20.1489 7.25725L16.833 3.94141" stroke="#401C86" stroke-miterlimit="10" stroke-linecap="round" stroke-linejoin="round"></path><path d="M23.5131 3.94141L20.1973 7.25725" stroke="#401C86" stroke-miterlimit="10" stroke-linecap="round" stroke-linejoin="round"></path><path d="M6.54408 3.89453H0.46875V7.30788H6.54408V3.89453Z" stroke="#401C86" stroke-miterlimit="10" stroke-linecap="round" stroke-linejoin="round"></path><path d="M15.9521 9.96987C15.9521 10.457 16.3622 10.8485 16.856 10.8178C17.2791 10.7915 17.6234 10.4472 17.6497 10.0241C17.669 9.7137 17.5215 9.43639 17.2883 9.27322C16.9891 9.06387 16.8018 8.72975 16.8018 8.36455V7.30859" stroke="#401C86" stroke-miterlimit="10" stroke-linecap="round" stroke-linejoin="round"></path><path d="M11.7129 13.56L16.8015 10.8164L21.8901 13.56" stroke="#401C86" stroke-miterlimit="10" stroke-linecap="round" stroke-linejoin="round"></path><path d="M23.5308 13.5586H10.0723V21.0667H23.5308V13.5586Z" stroke="#401C86" stroke-miterlimit="10" stroke-linecap="round" stroke-linejoin="round"></path><path d="M5.16443 3.84709L1.84863 0.53125" stroke="#401C86" stroke-miterlimit="10" stroke-linecap="round" stroke-linejoin="round"></path><path d="M16.7842 3.89395L5.2132 0.46875H1.7998V3.88561" stroke="#401C86" stroke-miterlimit="10" stroke-linecap="round" stroke-linejoin="round"></path><path d="M5.21289 3.81641V0.535156" stroke="#401C86" stroke-miterlimit="10" stroke-linecap="round" stroke-linejoin="round"></path><path d="M1.7998 7.30078V23.5296H5.2132V7.30078" stroke="#401C86" stroke-miterlimit="10" stroke-linecap="round" stroke-linejoin="round"></path><path d="M1.84863 20.9135L5.16443 17.5977" stroke="#401C86" stroke-miterlimit="10" stroke-linecap="round" stroke-linejoin="round"></path><path d="M5.16443 17.4994L1.84863 14.1836" stroke="#401C86" stroke-miterlimit="10" stroke-linecap="round" stroke-linejoin="round"></path><path d="M4.43309 23.5141L1.84863 20.9297" stroke="#401C86" stroke-miterlimit="10" stroke-linecap="round" stroke-linejoin="round"></path><path d="M1.84863 14.0853L5.16443 10.7695" stroke="#401C86" stroke-miterlimit="10" stroke-linecap="round" stroke-linejoin="round"></path><path d="M5.16443 10.6713L1.84863 7.35547" stroke="#401C86" stroke-miterlimit="10" stroke-linecap="round" stroke-linejoin="round"></path></g><defs><clipPath id="clip0_6245_9289"><rect width="24" height="24" fill="white"></rect></clipPath></defs></svg> 