<?xml version="1.0" encoding="UTF-8"?> <svg xmlns="http://www.w3.org/2000/svg" width="24" height="24" viewBox="0 0 24 24" fill="none"><g clip-path="url(#clip0_6246_9358)"><path d="M19.017 20.5898V23.2924H16.209V20.5898" stroke="#401C86" stroke-miterlimit="10" stroke-linecap="round" stroke-linejoin="round"></path><path d="M7.79142 20.5898V23.2924H4.9834V20.5898" stroke="#401C86" stroke-miterlimit="10" stroke-linecap="round" stroke-linejoin="round"></path><path d="M18.9391 20.5631H5.03601C4.23622 20.5631 3.58789 19.9148 3.58789 19.115V4.69922H20.3873V19.115C20.3873 19.9148 19.7389 20.5631 18.9391 20.5631Z" stroke="#401C86" stroke-miterlimit="10" stroke-linecap="round" stroke-linejoin="round"></path><path d="M3.58789 4.69919V2.95378C3.58789 1.70647 4.59905 0.695312 5.84632 0.695312H18.1287C19.3761 0.695312 20.3872 1.70647 20.3872 2.95378V4.69919" stroke="#401C86" stroke-miterlimit="10" stroke-linecap="round" stroke-linejoin="round"></path><path d="M3.58789 12.3242L8.03996 13.7274L8.97543 15.0037H14.9997L15.9352 13.7274L20.3873 12.3242" stroke="#401C86" stroke-miterlimit="10" stroke-linecap="round" stroke-linejoin="round"></path><path d="M9.19531 17.7891H14.8066" stroke="#401C86" stroke-miterlimit="10" stroke-linecap="round" stroke-linejoin="round"></path><path d="M20.3857 4.69922L23.261 5.63469V8.38728" stroke="#401C86" stroke-miterlimit="10" stroke-linecap="round" stroke-linejoin="round"></path><path d="M3.61644 4.69922L0.741211 5.63469V8.38728" stroke="#401C86" stroke-miterlimit="10" stroke-linecap="round" stroke-linejoin="round"></path><path d="M17.6143 17.7578V17.78" stroke="#401C86" stroke-miterlimit="10" stroke-linecap="round" stroke-linejoin="round"></path><path d="M6.38867 17.7578V17.78" stroke="#401C86" stroke-miterlimit="10" stroke-linecap="round" stroke-linejoin="round"></path></g><defs><clipPath id="clip0_6246_9358"><rect width="24" height="24" fill="white"></rect></clipPath></defs></svg> 