<?xml version="1.0" encoding="UTF-8"?> <svg xmlns="http://www.w3.org/2000/svg" width="25" height="25" viewBox="0 0 25 25" fill="none"><g clip-path="url(#clip0_6246_9424)"><mask id="mask0_6246_9424" style="mask-type:luminance" maskUnits="userSpaceOnUse" x="0" y="0" width="25" height="25"><path d="M0.334961 0.339846H24.335V24.3398H0.334961V0.339846Z" fill="white"></path></mask><g mask="url(#mask0_6246_9424)"><path d="M2.63604 17.0962C2.75766 17.3441 2.65527 17.6437 2.40736 17.7653C2.15944 17.8869 1.85987 17.7845 1.73825 17.5366L2.63604 17.0962ZM6.3241 2.79045L6.59018 3.21378L6.59018 3.21378L6.3241 2.79045ZM2.18715 17.3164L1.73825 17.5366C-0.88639 12.1863 0.900238 5.60901 6.05802 2.36713L6.3241 2.79045L6.59018 3.21378C1.87018 6.18049 0.23437 12.2004 2.63604 17.0962L2.18715 17.3164ZM6.3241 2.79045L6.05802 2.36713C9.75315 0.0445595 14.2406 0.0241108 17.8412 1.92027L17.6083 2.36267L17.3753 2.80508C14.0774 1.06833 9.97101 1.08875 6.59018 3.21378L6.3241 2.79045Z" fill="#401C86"></path><path d="M21.7333 7.04236C21.5972 6.80206 21.6817 6.49696 21.922 6.3609C22.1623 6.22484 22.4674 6.30935 22.6035 6.54964L21.7333 7.04236ZM18.3455 21.9171L18.0795 21.4938L18.0795 21.4938L18.3455 21.9171ZM22.1684 6.796L22.6035 6.54964C25.6907 12.002 23.9709 18.9719 18.6116 22.3404L18.3455 21.9171L18.0795 21.4938C22.9842 18.411 24.5584 12.0318 21.7333 7.04236L22.1684 6.796ZM18.3455 21.9171L18.6116 22.3404C14.7555 24.7642 10.0416 24.6767 6.37005 22.5228L6.62305 22.0915L6.87605 21.6603C10.2388 23.633 14.552 23.711 18.0795 21.4938L18.3455 21.9171Z" fill="#401C86"></path><path d="M21.1869 3.367C21.1869 4.45441 20.3054 5.33594 19.218 5.33594C18.1306 5.33594 17.249 4.45441 17.249 3.367C17.249 2.27959 18.1306 1.39806 19.218 1.39806C20.3054 1.39806 21.1869 2.27959 21.1869 3.367Z" stroke="#401C86" stroke-miterlimit="10"></path><path d="M6.93006 20.9178C6.93006 22.0052 6.04853 22.8867 4.96112 22.8867C3.87372 22.8867 2.99219 22.0052 2.99219 20.9178C2.99219 19.8304 3.87372 18.9488 4.96112 18.9488C6.04853 18.9488 6.93006 19.8304 6.93006 20.9178Z" stroke="#401C86" stroke-miterlimit="10"></path><path d="M16.8786 15.9219C18.1228 15.9219 19.1302 14.9087 19.121 13.6625C19.1119 12.426 18.087 11.437 16.8504 11.437H16.3567C16.3567 10.3691 15.491 9.50328 14.4231 9.50328L14.1829 9.50563C14.1829 8.06202 12.9868 6.87313 11.5432 6.87313C10.0709 6.87313 8.87728 8.0667 8.87728 9.53909V9.8668H8.57634C6.90431 9.8668 5.54883 11.2223 5.54883 12.8944C5.54883 14.5664 6.90431 15.9219 8.57634 15.9219H16.8786Z" stroke="#401C86" stroke-miterlimit="10" stroke-linejoin="round"></path></g></g><defs><clipPath id="clip0_6246_9424"><rect width="24" height="24" fill="white" transform="translate(0.333008 0.332031)"></rect></clipPath></defs></svg> 