<?xml version="1.0" encoding="UTF-8"?> <svg xmlns="http://www.w3.org/2000/svg" width="25" height="25" viewBox="0 0 25 25" fill="none"><g clip-path="url(#clip0_6246_9487)"><mask id="mask0_6246_9487" style="mask-type:luminance" maskUnits="userSpaceOnUse" x="0" y="0" width="25" height="25"><path d="M0.334961 0.339846H24.335V24.3398H0.334961V0.339846Z" fill="white"></path></mask><g mask="url(#mask0_6246_9487)"><path d="M23.8662 3.03256C23.8662 2.43444 23.3813 1.94956 22.7832 1.94956H1.88671C1.28859 1.94956 0.803711 2.43444 0.803711 3.03256V5.42188H23.8662V3.03256Z" stroke="#401C86" stroke-miterlimit="10" stroke-linecap="round" stroke-linejoin="round"></path><path d="M0.803711 5.42192V21.6475C0.803711 22.2456 1.28859 22.7305 1.88671 22.7305H22.7832C23.3813 22.7305 23.8662 22.2456 23.8662 21.6475V5.42192H0.803711Z" stroke="#401C86" stroke-miterlimit="10" stroke-linecap="round" stroke-linejoin="round"></path><path d="M21.1816 11.2769C21.1816 12.1441 20.83 12.9297 20.2614 13.4978C19.6929 14.0664 18.9077 14.418 18.0405 14.418C16.3057 14.418 14.8994 13.0117 14.8994 11.2769C14.8994 10.4097 15.251 9.62453 15.8196 9.05594C16.3877 8.48781 17.1728 8.13625 18.0405 8.13625C18.9077 8.13625 19.6929 8.48781 20.2614 9.05594C20.83 9.62453 21.1816 10.4097 21.1816 11.2769Z" stroke="#401C86" stroke-miterlimit="10" stroke-linecap="round" stroke-linejoin="round"></path><path d="M21.1821 11.2713C21.1821 12.1384 20.8305 12.9241 20.262 13.4922L18.041 11.2713V8.13063C18.9082 8.13063 19.6934 8.48219 20.262 9.05031C20.8305 9.61891 21.1821 10.4041 21.1821 11.2713Z" stroke="#401C86" stroke-miterlimit="10" stroke-linecap="round" stroke-linejoin="round"></path><path d="M14.8994 17.0898H21.1816" stroke="#401C86" stroke-miterlimit="10" stroke-linecap="round" stroke-linejoin="round"></path><path d="M6.36837 17.0898H4.04492V12.6894H6.36837V17.0898Z" stroke="#401C86" stroke-miterlimit="10" stroke-linecap="round" stroke-linejoin="round"></path><path d="M10.8263 17.0898H8.50293V9.69475H10.8263V17.0898Z" stroke="#401C86" stroke-miterlimit="10" stroke-linecap="round" stroke-linejoin="round"></path><path d="M3.19434 17.0898H11.9131" stroke="#401C86" stroke-miterlimit="10" stroke-linecap="round" stroke-linejoin="round"></path><path d="M5.36816 19.7305H21.1821" stroke="#401C86" stroke-miterlimit="10" stroke-linecap="round" stroke-linejoin="round"></path></g></g><defs><clipPath id="clip0_6246_9487"><rect width="24" height="24" fill="white" transform="translate(0.333008 0.332031)"></rect></clipPath></defs></svg> 