<?xml version="1.0" encoding="UTF-8"?> <svg xmlns="http://www.w3.org/2000/svg" width="24" height="24" viewBox="0 0 24 24" fill="none"><g clip-path="url(#clip0_6246_9557)"><circle cx="19.5645" cy="17.0117" r="0.351562" fill="#401C86"></circle><path d="M18.0517 17.9297L12.7568 21.1455" stroke="#401C86" stroke-linecap="round" stroke-linejoin="round"></path><circle cx="12.001" cy="21.6055" r="0.351562" fill="#401C86"></circle><path d="M10.4882 20.6885L5.19336 17.4727" stroke="#401C86" stroke-linecap="round" stroke-linejoin="round"></path><circle cx="4.43652" cy="17.0117" r="0.351562" fill="#401C86"></circle><path d="M4.68913 14.9883L1.9441 16.6552C1.54988 16.8952 1.54988 17.4675 1.9441 17.7075L6.77415 20.641L8.29672 21.563" stroke="#401C86" stroke-miterlimit="10" stroke-linecap="round" stroke-linejoin="round"></path><path d="M19.3106 14.9883L22.0551 16.6552C22.4498 16.8952 22.4498 17.4675 22.0551 17.7075L12.5066 23.5074C12.1954 23.6963 11.8049 23.6963 11.4936 23.5074L8.17578 21.4923" stroke="#401C86" stroke-miterlimit="10" stroke-linecap="round" stroke-linejoin="round"></path><path d="M15.3203 11.4375L17.5563 12.7959L20.2389 14.4248" stroke="#401C86" stroke-miterlimit="10" stroke-linecap="round" stroke-linejoin="round"></path><path d="M12.542 13.125L14.7784 14.4834L17.4611 16.1123" stroke="#401C86" stroke-miterlimit="10" stroke-linecap="round" stroke-linejoin="round"></path><path d="M14.6825 17.8012L11.9999 16.1718L9.22164 14.4846L6.44328 12.7969L3.76074 11.168" stroke="#401C86" stroke-miterlimit="10" stroke-linecap="round" stroke-linejoin="round"></path><path d="M20.2391 11.168L17.5566 12.7969L14.7782 14.4846L11.9999 16.1718L9.31738 17.8012" stroke="#401C86" stroke-miterlimit="10" stroke-linecap="round" stroke-linejoin="round"></path><path d="M6.53906 16.1123L9.2217 14.4834L11.4581 13.125" stroke="#401C86" stroke-miterlimit="10" stroke-linecap="round" stroke-linejoin="round"></path><path d="M3.76074 14.4248L6.44338 12.7959L8.67929 11.4375" stroke="#401C86" stroke-miterlimit="10" stroke-linecap="round" stroke-linejoin="round"></path><path d="M5.99696 9.80469L1.9441 12.2661C1.54988 12.5061 1.54988 13.0785 1.9441 13.3185L4.68913 14.9858L11.4936 19.1184C11.8048 19.3073 12.1953 19.3073 12.5066 19.1184L15.4002 17.3605" stroke="#401C86" stroke-miterlimit="10" stroke-linecap="round" stroke-linejoin="round"></path><path d="M18.0034 9.80469L22.0553 12.2661C22.45 12.5061 22.45 13.0785 22.0553 13.3185L19.3107 14.9858L16.7954 16.5135L15.4219 17.342" stroke="#401C86" stroke-miterlimit="10" stroke-linecap="round" stroke-linejoin="round"></path><path d="M4.52366 4.72657L11.4936 0.493244C11.8044 0.304335 12.1953 0.304335 12.5061 0.493244L22.0555 6.29314C22.4498 6.53268 22.4498 7.1055 22.0555 7.34503L12.5061 13.1449C12.1953 13.3338 11.8044 13.3338 11.4936 13.1449L1.9441 7.34503C1.54988 7.1055 1.54988 6.53268 1.9441 6.29314L3.12208 5.57782" stroke="#401C86" stroke-miterlimit="10" stroke-linecap="round" stroke-linejoin="round"></path></g><defs><clipPath id="clip0_6246_9557"><rect width="24" height="24" fill="white"></rect></clipPath></defs></svg> 