<?xml version="1.0" encoding="UTF-8"?> <svg xmlns="http://www.w3.org/2000/svg" width="220" height="60" viewBox="0 0 220 60" fill="none"><path d="M0 4C0 1.79086 1.79086 0 4 0H216C218.209 0 220 1.79086 220 4V56C220 58.2091 218.209 60 216 60H4C1.79086 60 0 58.2091 0 56V4Z" fill="white"></path><g clip-path="url(#clip0_6143_9895)"><path d="M184.224 29.6544C184.224 29.481 184.224 29.3076 184.224 29.1342L184.569 28.7007C184.569 28.614 184.741 28.5273 184.914 28.5273C185.086 28.5273 185.172 28.5273 185.259 28.7007L185.603 29.1342C185.69 29.3076 185.776 29.481 185.603 29.6544C185.603 29.8278 185.345 29.9145 185.172 29.9145H184.483C184.31 29.9145 184.138 29.8278 184.052 29.6544H184.224Z" fill="url(#paint0_linear_6143_9895)"></path><path d="M183.707 26.0117C183.88 26.0117 184.139 25.8383 184.483 25.7516C184.828 25.7516 185.001 25.7516 185.173 25.7516C185.259 25.7516 185.518 25.7516 185.776 25.8383C186.121 25.925 186.38 26.0984 186.466 26.185C186.725 26.3584 186.897 26.5318 187.07 26.6185C187.156 26.7052 187.242 26.7919 187.242 26.7919C187.242 26.7919 187.242 26.8786 187.414 26.9653C187.673 27.2254 187.932 27.4855 188.104 27.5722C188.363 27.7455 188.449 27.8322 188.621 27.9189C188.621 27.9189 188.794 27.9189 188.88 28.0056V23.3241C188.88 23.0641 188.966 22.804 189.052 22.804V21.4169L182.932 17.5156V38.0622L189.052 41.9634V39.4493C188.966 39.4493 188.88 39.2759 188.88 38.9291V34.1609C188.707 34.1609 188.535 33.9875 188.449 33.9008C188.276 33.8141 188.19 33.7274 188.018 33.6408C187.845 33.5541 187.759 33.3807 187.414 33.2073C186.897 32.8605 186.639 32.7738 186.38 32.6871C186.121 32.6004 185.863 32.427 185.518 32.3403C185.173 32.3403 184.914 32.3403 184.828 32.3403C184.742 32.3403 184.483 32.3403 184.139 32.5137C183.966 32.5137 183.794 32.6871 183.449 32.8605V32.3403C183.621 32.2536 183.794 32.1669 183.966 32.0803C184.311 31.9936 184.656 31.9069 184.742 31.9069C185.001 31.9069 185.259 31.9069 185.518 31.9069C185.949 31.9069 186.207 32.0803 186.552 32.2536C186.725 32.3403 187.07 32.5137 187.587 32.8605C187.932 33.0339 188.018 33.2073 188.19 33.294C188.276 33.3807 188.363 33.4674 188.535 33.5541C188.535 33.5541 188.708 33.6408 188.794 33.7274V29.9129H187.414C187.328 29.9129 187.242 29.8262 187.242 29.6528C187.242 29.4794 187.328 29.4794 187.414 29.4794H188.794V28.4391C188.621 28.4391 188.449 28.2657 188.363 28.2657C188.19 28.179 188.018 28.0923 187.759 27.9189C187.587 27.8322 187.328 27.5722 186.983 27.3121C186.897 27.2254 186.811 27.1387 186.811 27.1387C186.811 27.1387 186.725 27.052 186.639 26.9653C186.552 26.8786 186.38 26.7052 186.121 26.5318C185.949 26.4451 185.776 26.2717 185.518 26.185C185.345 26.185 185.087 26.0984 185.001 26.0984C184.828 26.0984 184.656 26.0984 184.397 26.0984C184.139 26.0984 183.966 26.2717 183.794 26.2717C183.621 26.2717 183.535 26.4451 183.363 26.4451V25.925C183.363 25.925 183.535 25.925 183.621 25.8383L183.707 26.0117ZM183.966 28.9593L184.311 28.5258C184.483 28.3524 184.742 28.179 185.001 28.179C185.259 28.179 185.518 28.3524 185.69 28.5258L186.035 28.9593C186.208 29.2193 186.294 29.5661 186.121 29.9129C185.949 30.2597 185.69 30.4331 185.345 30.4331H184.656C184.311 30.4331 183.966 30.2597 183.88 29.9129C183.794 29.5661 183.794 29.2193 183.966 28.9593Z" fill="url(#paint1_linear_6143_9895)"></path><path d="M197.242 28.44C197.069 28.2666 197.069 28.1799 196.983 28.0065C196.983 27.9198 196.897 27.7464 196.724 27.573C196.466 27.1396 196.38 27.0529 196.293 26.9662C196.121 26.7928 195.949 26.7061 195.776 26.5327C195.604 26.3593 195.345 26.2726 195 26.1859C194.828 26.1859 194.655 26.0992 194.397 26.1859C194.224 26.1859 194.138 26.1859 194.052 26.1859C194.138 26.1859 194.224 26.446 194.224 26.7061V28.8734C194.483 28.8734 194.655 28.8734 194.655 28.8734C194.655 28.8734 194.828 28.8734 195 28.8734C195.087 28.8734 195.259 28.8734 195.345 28.8734C195.518 28.8734 195.776 28.8734 195.949 28.8734C196.035 28.8734 196.207 28.8734 196.38 28.8734C196.552 28.8734 196.638 28.8734 196.724 28.8734C196.811 28.8734 196.983 28.8734 197.069 28.7001C197.069 28.7001 197.242 28.7001 197.242 28.5267V28.44ZM197.242 28.44C197.069 28.2666 197.069 28.1799 196.983 28.0065C196.983 27.9198 196.897 27.7464 196.724 27.573C196.466 27.1396 196.38 27.0529 196.293 26.9662C196.121 26.7928 195.949 26.7061 195.776 26.5327C195.604 26.3593 195.345 26.2726 195 26.1859C194.828 26.1859 194.655 26.0992 194.397 26.1859C194.224 26.1859 194.138 26.1859 194.052 26.1859C194.138 26.1859 194.224 26.446 194.224 26.7061V28.8734C194.483 28.8734 194.655 28.8734 194.655 28.8734C194.655 28.8734 194.828 28.8734 195 28.8734C195.087 28.8734 195.259 28.8734 195.345 28.8734C195.518 28.8734 195.776 28.8734 195.949 28.8734C196.035 28.8734 196.207 28.8734 196.38 28.8734C196.552 28.8734 196.638 28.8734 196.724 28.8734C196.811 28.8734 196.983 28.8734 197.069 28.7001C197.069 28.7001 197.242 28.7001 197.242 28.5267V28.44ZM193.966 17.8633V20.204C194.052 20.204 194.138 20.3774 194.138 20.7242V23.7585C194.138 24.0186 194.052 24.2787 193.966 24.2787V25.7525C194.052 25.7525 194.224 25.7525 194.311 25.7525C194.655 25.7525 194.914 25.7525 195 25.8392C195.431 25.9258 195.69 26.0992 195.862 26.2726C196.035 26.3593 196.293 26.5327 196.466 26.7061C196.552 26.7928 196.724 26.9662 196.983 27.313C197.155 27.573 197.242 27.6597 197.242 27.8331C197.242 28.0065 197.328 28.0065 197.5 28.1799C197.5 28.1799 197.5 28.0932 197.587 28.0065C197.587 28.0065 197.587 27.9198 197.673 27.8331C197.673 27.7464 197.673 27.573 197.759 27.573C197.759 27.573 197.759 27.4863 197.759 27.3996V24.9722C197.759 24.8855 197.845 24.7988 198.018 24.7988C198.19 24.7988 198.19 24.8855 198.19 24.9722V27.3996C198.19 27.3996 198.19 27.573 198.19 27.6597C198.19 27.7464 198.19 27.9198 198.104 28.0065C198.104 28.0932 198.018 28.1799 197.931 28.2666C197.931 28.2666 197.931 28.3533 197.845 28.44C197.931 28.44 198.018 28.5267 198.19 28.6134C198.276 28.6134 198.449 28.7001 198.621 28.7868C198.793 28.7868 198.966 28.7868 199.224 28.8734C199.224 28.8734 199.311 28.8734 199.397 28.8734V29.3069C199.397 29.3069 199.311 29.3069 199.224 29.3069C198.88 29.3069 198.793 29.3069 198.621 29.2202C198.449 29.2202 198.276 29.1335 198.104 29.0468C197.931 29.0468 197.759 28.9601 197.673 28.8734C197.673 28.8734 197.587 28.8734 197.5 28.7868C197.414 28.8734 197.328 28.9601 197.155 29.0468C196.983 29.0468 196.897 29.1335 196.724 29.2202C196.724 29.2202 196.552 29.2202 196.38 29.3069C196.121 29.3069 195.949 29.3069 195.862 29.3069C195.69 29.3069 195.431 29.3069 195.259 29.3069C195.173 29.3069 195 29.3069 194.914 29.3069C194.828 29.3069 194.655 29.3069 194.655 29.3069C194.655 29.3069 194.397 29.3069 194.138 29.3069V34.682C194.483 34.5953 194.655 34.4219 194.828 34.3352C194.914 34.3352 195.173 34.0751 195.345 33.9017C195.431 33.815 195.518 33.7283 195.69 33.5549L195.949 33.2949C196.207 33.0348 196.293 32.9481 196.293 32.8614C196.293 32.7747 196.38 32.7747 196.552 32.6013L196.811 32.3412C196.983 32.1678 196.983 32.0811 197.155 31.9944C197.328 31.8211 197.5 31.7344 197.845 31.561C198.19 31.4743 198.449 31.4743 198.621 31.4743C198.966 31.4743 199.224 31.561 199.483 31.6477V32.0811H199.311C199.052 31.9944 198.88 31.9077 198.535 31.9077C198.362 31.9077 198.19 31.9077 197.931 31.9077C197.673 31.9077 197.5 32.0811 197.414 32.2545C197.328 32.3412 197.242 32.4279 197.155 32.6013L196.897 32.8614C196.811 33.0348 196.724 33.0348 196.638 33.1215C196.638 33.1215 196.466 33.2949 196.293 33.5549L196.035 33.815C195.862 33.9884 195.776 34.0751 195.69 34.1618C195.518 34.3352 195.259 34.5086 195.087 34.5953C194.914 34.7687 194.569 34.942 194.138 35.1154V35.2888C194.138 35.5489 194.052 35.809 193.966 35.809V38.4098L200.087 42.3111V21.7645L193.966 17.95V17.8633ZM199.138 24.192C199.138 24.192 199.052 24.192 198.966 24.192C198.88 24.192 198.88 24.192 198.793 24.192L198.104 23.4984L197.414 24.192C197.414 24.192 197.328 24.192 197.242 24.192C197.155 24.192 197.155 24.192 197.069 24.192C197.069 24.1053 197.069 23.9319 197.069 23.8452L197.759 23.1516L197.069 22.4581C197.069 22.4581 197.069 22.198 197.069 22.1113C197.069 22.0246 197.242 22.0246 197.414 22.1113L198.104 22.8049L198.793 22.1113C198.88 22.1113 199.052 22.1113 199.138 22.1113C199.138 22.198 199.224 22.3714 199.138 22.4581L198.449 23.1516L199.138 23.8452C199.224 23.9319 199.224 24.1053 199.138 24.192ZM194.138 26.6194V28.7868C194.397 28.7868 194.569 28.7868 194.569 28.7868C194.569 28.7868 194.742 28.7868 194.914 28.7868C195 28.7868 195.173 28.7868 195.259 28.7868C195.431 28.7868 195.69 28.7868 195.862 28.7868C195.949 28.7868 196.121 28.7868 196.293 28.7868C196.466 28.7868 196.552 28.7868 196.638 28.7868C196.724 28.7868 196.897 28.7868 196.983 28.6134C196.983 28.6134 197.155 28.6134 197.155 28.44C196.983 28.2666 196.983 28.1799 196.897 28.0065C196.897 27.9198 196.811 27.7464 196.638 27.573C196.38 27.1396 196.293 27.0529 196.207 26.9662C196.035 26.7928 195.862 26.7061 195.69 26.5327C195.518 26.3593 195.259 26.2726 194.914 26.1859C194.742 26.1859 194.569 26.0992 194.311 26.1859C194.138 26.1859 194.052 26.1859 193.966 26.1859C194.052 26.1859 194.138 26.446 194.138 26.7061V26.6194ZM197.242 28.3533C197.069 28.1799 197.069 28.0932 196.983 27.9198C196.983 27.8331 196.897 27.6597 196.724 27.4863C196.466 27.0529 196.38 26.9662 196.293 26.8795C196.121 26.7061 195.949 26.6194 195.776 26.446C195.604 26.2726 195.345 26.1859 195 26.0992C194.828 26.0992 194.655 26.0125 194.397 26.0992C194.224 26.0992 194.138 26.0992 194.052 26.0992C194.138 26.0992 194.224 26.3593 194.224 26.6194V28.7868C194.483 28.7868 194.655 28.7868 194.655 28.7868C194.655 28.7868 194.828 28.7868 195 28.7868C195.087 28.7868 195.259 28.7868 195.345 28.7868C195.518 28.7868 195.776 28.7868 195.949 28.7868C196.035 28.7868 196.207 28.7868 196.38 28.7868C196.552 28.7868 196.638 28.7868 196.724 28.7868C196.811 28.7868 196.983 28.7868 197.069 28.6134C197.069 28.6134 197.242 28.6134 197.242 28.44V28.3533Z" fill="url(#paint2_linear_6143_9895)"></path><path d="M193.706 29.4805V34.8555C192.931 35.1156 192.241 35.0289 191.81 35.0289C191.12 35.0289 190.603 34.7688 190.258 34.6821C190.086 34.6821 189.741 34.5087 189.224 34.2487V30.174H189.396C189.396 30.174 189.396 30.2607 189.482 30.3474V30.5208C189.482 30.5208 189.482 30.5208 189.482 30.7809V30.9543C189.482 31.041 189.482 31.041 189.482 31.1277C189.482 31.1277 189.482 31.301 189.482 31.3877C189.482 31.5611 189.655 31.6478 189.655 31.6478C189.655 31.6478 189.741 31.8212 189.827 31.8212C189.913 31.8212 189.999 31.9079 190.172 31.9946H191.637C191.724 31.9946 191.896 31.9079 191.982 31.8212C192.068 31.7345 192.155 31.6478 192.241 31.4744C192.241 31.4744 192.327 31.301 192.413 31.1277C192.413 31.1277 192.413 31.1277 192.413 30.8676V30.6942C192.413 30.4341 192.413 30.4341 192.413 30.3474C192.413 30.2607 192.413 30.174 192.499 30.0873C192.499 30.0006 192.586 29.9139 192.672 29.8272C192.672 29.8272 192.844 29.7406 193.017 29.6539L193.706 29.4805Z" fill="url(#paint3_linear_6143_9895)"></path><path d="M193.88 26.1875C193.793 26.1875 193.707 26.4476 193.707 26.7077V29.0484C193.707 29.0484 193.621 29.0484 193.449 29.2218C193.19 29.3952 193.104 29.3952 193.018 29.4819C192.931 29.4819 192.845 29.6553 192.673 29.8287C192.673 30.002 192.587 30.0887 192.5 30.1754C192.5 30.1754 192.5 30.1754 192.5 30.5222V30.6956C192.5 30.7823 192.5 30.869 192.5 30.869C192.5 30.9557 192.5 31.0424 192.414 31.1291C192.414 31.3025 192.328 31.3025 192.242 31.3892C192.242 31.3892 192.156 31.3892 192.069 31.4758H190.69C190.69 31.4758 190.604 31.4758 190.518 31.4758C190.518 31.4758 190.518 31.4758 190.345 31.3025C190.345 31.3025 190.345 31.2158 190.259 31.1291C190.259 31.1291 190.259 31.0424 190.259 30.9557C190.259 30.9557 190.259 30.9557 190.259 30.7823V30.6089C190.259 30.4355 190.259 30.3488 190.259 30.3488C190.259 30.3488 190.259 30.1754 190.173 30.0887C190.173 30.002 190.087 29.9154 190 29.8287C189.914 29.742 189.742 29.6553 189.569 29.6553V28.7016C189.742 28.7016 190 28.7016 190.345 28.7016C190.69 28.7016 190.949 28.5282 191.121 28.4416C191.552 28.2682 191.811 28.0081 191.983 27.9214C192.328 27.6613 192.5 27.4879 192.759 27.2278C192.931 27.0544 193.018 26.9677 193.018 26.9677C193.018 26.9677 193.018 26.9677 193.19 26.7944C193.535 26.5343 193.793 26.4476 193.966 26.3609C193.966 26.3609 194.138 26.3609 194.225 26.3609L193.88 26.1875Z" fill="url(#paint4_linear_6143_9895)"></path><path d="M193.966 35.8094V38.4102L189.139 42.1381V39.624C189.225 39.624 189.311 39.3639 189.311 39.1038V34.5957C189.742 34.7691 190.001 34.9425 190.173 34.9425C190.518 35.0292 191.035 35.2893 191.811 35.376C191.984 35.376 192.242 35.376 192.501 35.376C192.759 35.376 193.277 35.376 193.794 35.2026C193.794 35.5493 193.88 35.7227 193.966 35.7227V35.8094Z" fill="url(#paint5_linear_6143_9895)"></path><path d="M193.708 20.7254V23.7597C193.708 24.0198 193.794 24.2799 193.88 24.2799V25.7537C193.708 25.7537 193.621 25.7537 193.449 25.8403C193.277 25.8403 192.932 26.0137 192.587 26.3605C192.501 26.3605 192.415 26.4472 192.415 26.5339C192.415 26.5339 192.328 26.7073 192.156 26.794C191.897 27.0541 191.725 27.2275 191.466 27.4875C191.294 27.6609 191.035 27.8343 190.69 28.0077C190.518 28.0944 190.259 28.1811 190.001 28.2678C189.742 28.2678 189.483 28.2678 189.311 28.2678V23.4996C189.311 23.2395 189.311 23.0661 189.139 23.0661V21.679L193.966 17.9512V20.2919C193.88 20.2919 193.794 20.4653 193.794 20.8121L193.708 20.7254Z" fill="url(#paint6_linear_6143_9895)"></path><path d="M32.5869 35.637C32.5869 36.2438 32.5007 36.8507 32.2421 37.3709C32.0697 37.891 31.7248 38.4112 31.38 38.758C31.0352 39.1914 30.6042 39.4515 30.0869 39.6249C29.5697 39.7983 28.9662 39.9717 28.449 39.9717H21.4662C21.2938 39.9717 21.1214 39.9717 20.949 39.7983C20.7766 39.6249 20.7766 39.4515 20.7766 39.1914C20.7766 38.5846 21.0352 38.3245 21.4662 38.3245H28.6214C29.4835 38.3245 30.0007 38.0644 30.4317 37.6309C30.7766 37.1108 31.0352 36.5039 31.0352 35.7237V33.4696C31.0352 32.8628 30.8628 32.2559 30.5179 31.8224C30.1731 31.389 29.6559 31.0422 28.9662 31.0422L24.1386 30.522C23.5352 30.522 23.0179 30.2619 22.5007 30.0885C21.9835 29.8285 21.6386 29.5684 21.2076 29.1349C20.8628 28.7881 20.6042 28.3547 20.3455 27.8345C20.1731 27.3143 20.0869 26.7942 20.0869 26.274V24.28C20.0869 23.6732 20.1731 23.0663 20.4317 22.5461C20.6904 22.026 20.949 21.5925 21.2938 21.159C21.6386 20.8123 22.1559 20.4655 22.5869 20.2921C23.1042 20.1187 23.6214 19.9453 24.2248 19.9453H31.38C31.8111 19.9453 32.0697 20.2921 32.0697 20.8989C32.0697 21.5058 32.0697 21.4191 31.8111 21.5058C31.6386 21.5925 31.4662 21.6792 31.2938 21.6792H23.9662C23.2766 21.6792 22.7593 21.9393 22.3283 22.4594C21.8973 22.9796 21.7248 23.5865 21.7248 24.3667V26.6208C21.7248 27.2276 21.8973 27.7478 22.2421 28.1813C22.5869 28.6147 23.1042 28.8748 23.7938 28.9615L28.6214 29.4817C29.2248 29.4817 29.7421 29.6551 30.2593 29.9151C30.7766 30.1752 31.2076 30.522 31.5524 30.8688C31.8973 31.2156 32.1559 31.7357 32.4145 32.1692C32.5869 32.6894 32.6731 33.2095 32.6731 33.7297V35.8104L32.5869 35.637Z" fill="#1B194E"></path><path d="M48.9659 22.5457C48.7935 21.9388 48.4486 21.5054 48.1038 21.0719C47.759 20.6384 47.2417 20.3783 46.7245 20.1183C46.2073 19.8582 45.6038 19.7715 45.0004 19.7715H37.0693V39.3644C37.0693 39.7978 37.328 40.0579 37.9314 40.0579C38.5349 40.0579 38.7073 39.7978 38.7073 39.3644V21.5054H45.259C45.9486 21.5054 46.5521 21.7655 46.9831 22.1989C47.4142 22.6324 47.6728 23.3259 47.6728 24.1062V26.5336C47.6728 27.4006 47.5004 28.0941 47.0693 28.5276C46.6383 28.9611 46.0349 29.2212 45.259 29.2212H41.1211V30.8683H45.0866C45.69 30.8683 46.2935 30.7817 46.8107 30.5216C47.328 30.2615 47.759 30.0014 48.19 29.5679C48.5349 29.1345 48.8797 28.701 49.0521 28.0941C49.2245 27.574 49.3107 26.9671 49.3107 26.3602V24.453C49.3107 23.8461 49.2245 23.1526 48.9659 22.6324V22.5457Z" fill="#1B194E"></path><path d="M63.8795 38.1511H55.0002V21.6792H63.8795C64.3106 21.6792 64.483 21.4191 64.483 20.8123C64.483 20.2054 64.3106 19.9453 63.8795 19.9453H53.3623V39.885H63.8795C64.3106 39.885 64.483 39.6249 64.483 39.018C64.483 38.4112 64.3106 38.1511 63.8795 38.1511ZM57.414 29.0482V30.7821H61.8968C62.3278 30.7821 62.5002 30.522 62.5002 29.9151C62.5002 29.3083 62.3278 29.0482 61.8968 29.0482H57.414Z" fill="#1B194E"></path><path d="M80.3455 40.0572H72.8455C72.2421 40.0572 71.6386 39.9705 71.1214 39.7104C70.6041 39.4503 70.1731 39.1035 69.7421 38.6701C69.3972 38.2366 69.0524 37.7164 68.88 37.1963C68.6214 36.6761 68.5352 35.9825 68.5352 35.3757V24.4522C68.5352 23.7587 68.6214 23.1518 68.88 22.6316C69.1386 22.0248 69.3972 21.5913 69.7421 21.1578C70.0869 20.7244 70.6041 20.3776 71.1214 20.2042C71.6386 20.0308 72.2421 19.8574 72.8455 19.8574H80.4317C80.6041 19.8574 80.6903 19.9441 80.7765 20.1175C80.8627 20.2909 80.9489 20.4643 80.9489 20.7244C80.9489 21.3312 80.7765 21.5913 80.3455 21.5913H72.6731C71.8972 21.5913 71.2938 21.8514 70.8627 22.3716C70.4317 22.8917 70.1731 23.5853 70.1731 24.3655V35.5491C70.1731 35.8959 70.1731 36.3293 70.3455 36.6761C70.5179 37.0229 70.6041 37.283 70.8627 37.543C71.1214 37.8031 71.38 37.9765 71.6386 38.1499C71.8972 38.3233 72.2421 38.3233 72.5869 38.3233H80.1731C80.6041 38.3233 80.7765 38.5834 80.7765 39.1902C80.7765 39.7971 80.6041 40.0572 80.1731 40.0572H80.3455Z" fill="#1B194E"></path><path d="M92.1551 39.4515C92.1551 39.6249 92.1551 39.7983 91.8965 39.9717C91.7241 40.1451 91.5517 40.1451 91.293 40.1451C91.0344 40.1451 90.7758 40.1451 90.6034 39.9717C90.431 39.7983 90.3448 39.7116 90.3448 39.4515V21.6792H84.9999C84.5689 21.6792 84.3965 21.4191 84.3965 20.8123C84.3965 20.2054 84.5689 19.9453 84.9999 19.9453H97.5861C98.0172 19.9453 98.1896 20.2054 98.1896 20.8123C98.1896 21.4191 98.0172 21.6792 97.5861 21.6792H92.1551V39.3648V39.4515Z" fill="#1B194E"></path><path d="M124.914 39.4515C124.914 39.6249 124.914 39.7983 124.655 39.9717C124.483 40.1451 124.31 40.1451 124.052 40.1451C123.793 40.1451 123.535 40.1451 123.362 39.9717C123.19 39.7983 123.104 39.7116 123.104 39.4515V21.6792H117.759C117.328 21.6792 117.155 21.4191 117.155 20.8123C117.155 20.2054 117.328 19.9453 117.759 19.9453H130.345C130.776 19.9453 130.948 20.2054 130.948 20.8123C130.948 21.4191 130.776 21.6792 130.345 21.6792H124.914V39.3648V39.4515Z" fill="#1B194E"></path><path d="M147.413 35.2898C147.413 35.9833 147.327 36.5902 147.069 37.1103C146.81 37.7172 146.551 38.1507 146.12 38.5841C145.689 39.0176 145.258 39.3644 144.655 39.6245C144.051 39.8845 143.448 39.9712 142.844 39.9712H138.448C137.758 39.9712 137.155 39.8845 136.638 39.6245C136.034 39.3644 135.603 39.0176 135.172 38.5841C134.741 38.1507 134.482 37.6305 134.224 37.1103C133.965 36.5035 133.879 35.8966 133.879 35.2898V24.5397C133.879 23.9328 133.965 23.2393 134.224 22.7191C134.482 22.1122 134.741 21.5921 135.172 21.1586C135.603 20.7251 136.034 20.3783 136.551 20.1183C137.069 19.8582 137.672 19.7715 138.275 19.7715H142.844C143.448 19.7715 144.051 19.8582 144.655 20.1183C145.172 20.3783 145.689 20.7251 146.12 21.1586C146.551 21.5921 146.81 22.1122 147.069 22.7191C147.327 23.3259 147.413 23.9328 147.413 24.5397V35.2898ZM143.017 38.324C143.362 38.324 143.793 38.324 144.138 38.064C144.482 37.8906 144.741 37.7172 145 37.4571C145.258 37.197 145.431 36.9369 145.603 36.5035C145.775 36.1567 145.775 35.8099 145.775 35.3764V24.2796C145.775 23.9328 145.775 23.4993 145.603 23.1526C145.431 22.8058 145.258 22.459 145.086 22.1989C144.827 21.9388 144.569 21.7655 144.224 21.5921C143.879 21.4187 143.534 21.332 143.189 21.332H138.103C137.758 21.332 137.327 21.332 137.069 21.5921C136.724 21.7655 136.465 21.9388 136.206 22.1989C135.948 22.459 135.775 22.8058 135.689 23.1526C135.603 23.4993 135.517 23.8461 135.517 24.2796V35.3764C135.517 35.7232 135.517 36.1567 135.689 36.5035C135.862 36.8502 136.034 37.1103 136.206 37.4571C136.465 37.7172 136.724 37.9773 137.069 38.064C137.413 38.2374 137.758 38.324 138.189 38.324H143.017Z" fill="#1B194E"></path><path d="M164.138 28.701C164.569 28.0941 164.741 27.2272 164.741 26.2736V24.3663C164.741 23.7594 164.655 23.0659 164.397 22.5457C164.224 21.9388 163.879 21.5054 163.535 21.0719C163.19 20.6384 162.673 20.3783 162.155 20.1183C161.638 19.8582 161.035 19.7715 160.431 19.7715H152.155V39.3644C152.155 39.7978 152.414 40.0579 153.017 40.0579C153.621 40.0579 153.793 39.7978 153.793 39.3644V21.5054H160.604C161.293 21.5054 161.897 21.7655 162.328 22.1989C162.759 22.6324 163.017 23.3259 163.017 24.1062V26.5336C163.017 27.4006 162.845 28.0941 162.414 28.5276C161.983 28.9611 161.379 29.2212 160.604 29.2212H156.207V30.8683H160.345C161.207 30.8683 161.81 31.1284 162.241 31.6486C162.673 32.1688 162.931 32.8623 162.931 33.816V39.4511C162.931 39.6245 162.931 39.7978 163.19 39.9712C163.362 40.1446 163.535 40.1446 163.879 40.1446C164.397 40.1446 164.655 39.8845 164.655 39.4511V33.9026C164.655 32.949 164.483 32.0821 164.052 31.4752C163.621 30.8683 163.017 30.4349 162.155 30.2615C163.104 29.9147 163.707 29.4812 164.138 28.8744V28.701Z" fill="#1B194E"></path><path d="M175.432 16.043H173.794V43.9585H175.432V16.043Z" fill="#A7A9AC"></path><path d="M114.396 31.7344V39.1901C114.396 39.6236 114.052 39.9704 113.534 39.9704C113.103 39.9704 112.672 39.6236 112.672 39.1901V34.4219H105.345V32.7747H112.672V31.3009C112.672 30.8675 112.672 30.434 112.5 30.0872L109.655 21.6779C109.483 21.2444 109.052 20.8976 108.534 20.8976H106.896C106.379 20.8976 105.862 21.2444 105.776 21.6779L103.19 30.2606C103.103 30.6074 103.017 31.0409 103.017 31.3876V39.1901C103.017 39.6236 102.672 39.9704 102.155 39.9704C101.724 39.9704 101.293 39.6236 101.293 39.1901V31.8211C101.293 31.0409 101.379 30.2606 101.638 29.5671L102.5 26.7061L104.224 20.9843C104.483 20.1174 105.431 19.4238 106.465 19.4238H108.965C110 19.4238 110.862 20.0307 111.121 20.8976L113.017 26.7061L113.879 29.307C114.138 30.0872 114.31 30.9542 114.31 31.8211L114.396 31.7344Z" fill="#1B194E"></path></g><defs><linearGradient id="paint0_linear_6143_9895" x1="184.224" y1="29.2209" x2="185.862" y2="29.2209" gradientUnits="userSpaceOnUse"><stop stop-color="#33CCFF"></stop><stop offset="1" stop-color="#99FF33"></stop></linearGradient><linearGradient id="paint1_linear_6143_9895" x1="182.932" y1="29.9129" x2="189.052" y2="29.9129" gradientUnits="userSpaceOnUse"><stop stop-color="#33CCFF"></stop><stop offset="1" stop-color="#99FF33"></stop></linearGradient><linearGradient id="paint2_linear_6143_9895" x1="193.966" y1="30.0872" x2="200" y2="30.0872" gradientUnits="userSpaceOnUse"><stop stop-color="#33CCFF"></stop><stop offset="1" stop-color="#99FF33"></stop></linearGradient><linearGradient id="paint3_linear_6143_9895" x1="189.31" y1="32.2547" x2="193.706" y2="32.2547" gradientUnits="userSpaceOnUse"><stop stop-color="#33CCFF"></stop><stop offset="1" stop-color="#99FF33"></stop></linearGradient><linearGradient id="paint4_linear_6143_9895" x1="189.311" y1="28.875" x2="193.88" y2="28.875" gradientUnits="userSpaceOnUse"><stop stop-color="#33CCFF"></stop><stop offset="1" stop-color="#99FF33"></stop></linearGradient><linearGradient id="paint5_linear_6143_9895" x1="189.052" y1="38.4102" x2="193.966" y2="38.4102" gradientUnits="userSpaceOnUse"><stop stop-color="#33CCFF"></stop><stop offset="1" stop-color="#99FF33"></stop></linearGradient><linearGradient id="paint6_linear_6143_9895" x1="189.052" y1="23.0661" x2="193.966" y2="23.0661" gradientUnits="userSpaceOnUse"><stop stop-color="#33CCFF"></stop><stop offset="1" stop-color="#99FF33"></stop></linearGradient><clipPath id="clip0_6143_9895"><rect width="180" height="28" fill="white" transform="translate(20 16)"></rect></clipPath></defs></svg> 