<?xml version="1.0" encoding="UTF-8"?> <svg xmlns="http://www.w3.org/2000/svg" width="25" height="25" viewBox="0 0 25 25" fill="none"><g clip-path="url(#clip0_6247_9814)"><mask id="mask0_6247_9814" style="mask-type:luminance" maskUnits="userSpaceOnUse" x="0" y="0" width="25" height="25"><path d="M0.334961 0.339846H24.335V24.3398H0.334961V0.339846Z" fill="white"></path></mask><g mask="url(#mask0_6247_9814)"><path d="M19.6475 10.418V23.6367" stroke="#401C86" stroke-miterlimit="10" stroke-linecap="round" stroke-linejoin="round"></path></g><path d="M18.5928 3.61719V7.83594" stroke="#401C86" stroke-miterlimit="10" stroke-linecap="round" stroke-linejoin="round"></path><mask id="mask1_6247_9814" style="mask-type:luminance" maskUnits="userSpaceOnUse" x="0" y="0" width="25" height="25"><path d="M0.334961 0.339846H24.335V24.3398H0.334961V0.339846Z" fill="white"></path></mask><g mask="url(#mask1_6247_9814)"><path d="M20.9823 4.81203C20.9823 5.4695 20.426 6.00252 19.7684 6.00252C19.4423 6.00252 18.602 6.00781 18.602 6.00781C18.602 6.00781 18.5967 5.14344 18.5967 4.81203C18.5967 4.53978 18.5938 3.6215 18.5938 3.6215H19.7684C20.426 3.6215 20.9823 4.15452 20.9823 4.81203Z" stroke="#401C86" stroke-miterlimit="10" stroke-linecap="round" stroke-linejoin="round"></path><path d="M16.0381 20.8242H1.03809V17.0742C1.03809 16.0387 1.87752 15.1992 2.91309 15.1992H14.1631C15.1986 15.1992 16.0381 16.0387 16.0381 17.0742V20.8242Z" stroke="#401C86" stroke-miterlimit="10" stroke-linecap="round" stroke-linejoin="round"></path><path d="M11.3618 10.5117H5.71434C4.88634 10.5117 4.1564 11.0549 3.91846 11.8479L2.91309 15.1992H14.1631L13.1577 11.8479C12.9197 11.0549 12.1898 10.5117 11.3618 10.5117Z" stroke="#401C86" stroke-miterlimit="10" stroke-linecap="round" stroke-linejoin="round"></path><path d="M13.6943 23.6367C12.9177 23.6367 12.2881 23.0071 12.2881 22.2305V20.8242H15.1006V22.2305C15.1006 23.0071 14.471 23.6367 13.6943 23.6367Z" stroke="#401C86" stroke-miterlimit="10" stroke-linecap="round" stroke-linejoin="round"></path><path d="M3.38184 23.6367C4.15846 23.6367 4.78809 23.0071 4.78809 22.2305V20.8242H1.97559V22.2305C1.97559 23.0071 2.60521 23.6367 3.38184 23.6367Z" stroke="#401C86" stroke-miterlimit="10" stroke-linecap="round" stroke-linejoin="round"></path><path d="M22.6943 10.418H16.6006C16.0828 10.418 15.6631 9.99825 15.6631 9.48047V1.98047C15.6631 1.46269 16.0828 1.04297 16.6006 1.04297H22.6943C23.2121 1.04297 23.6318 1.46269 23.6318 1.98047V9.48047C23.6318 9.99825 23.2121 10.418 22.6943 10.418Z" stroke="#401C86" stroke-miterlimit="10" stroke-linecap="round" stroke-linejoin="round"></path><path d="M16.0381 18.0117H14.1631" stroke="#401C86" stroke-miterlimit="10" stroke-linecap="round" stroke-linejoin="round"></path><path d="M1.03809 18.0117H2.91309" stroke="#401C86" stroke-miterlimit="10" stroke-linecap="round" stroke-linejoin="round"></path><path d="M6.66309 18.0117H10.4131" stroke="#401C86" stroke-miterlimit="10" stroke-linecap="round" stroke-linejoin="round"></path><path d="M21.5225 23.6367H17.7725" stroke="#401C86" stroke-miterlimit="10" stroke-linecap="round" stroke-linejoin="round"></path></g></g><defs><clipPath id="clip0_6247_9814"><rect width="24" height="24" fill="white" transform="translate(0.333008 0.332031)"></rect></clipPath></defs></svg> 