<?xml version="1.0" encoding="UTF-8"?> <svg xmlns="http://www.w3.org/2000/svg" width="24" height="24" viewBox="0 0 24 24" fill="none"><g clip-path="url(#clip0_6248_10034)"><path d="M8.48438 19.1719H14.8594" stroke="#401C86" stroke-miterlimit="10"></path><path d="M9.89062 12.0469H4.26562C2.29809 12.0469 0.703125 13.6418 0.703125 15.6094C0.703125 17.5769 2.29809 19.1719 4.26562 19.1719" stroke="#401C86" stroke-miterlimit="10"></path><path d="M19.7344 4.92188C21.7019 4.92188 23.2969 6.51684 23.2969 8.48438C23.2969 10.4519 21.7019 12.0469 19.7344 12.0469H14.1094" stroke="#401C86" stroke-miterlimit="10"></path><path d="M9.14062 4.92188H15.5156" stroke="#401C86" stroke-miterlimit="10"></path><path d="M4.92188 9.14062C7.25183 9.14062 9.14062 7.25183 9.14062 4.92188C9.14062 2.59192 7.25183 0.703125 4.92188 0.703125C2.59192 0.703125 0.703125 2.59192 0.703125 4.92188C0.703125 7.25183 2.59192 9.14062 4.92188 9.14062Z" stroke="#401C86" stroke-miterlimit="10"></path><path d="M3.92773 2.8125L6.03711 4.92188L3.92773 7.03125" stroke="#401C86" stroke-miterlimit="10" stroke-linecap="round" stroke-linejoin="round"></path><path d="M19.0781 23.2969C21.4081 23.2969 23.2969 21.4081 23.2969 19.0781C23.2969 16.7482 21.4081 14.8594 19.0781 14.8594C16.7482 14.8594 14.8594 16.7482 14.8594 19.0781C14.8594 21.4081 16.7482 23.2969 19.0781 23.2969Z" stroke="#401C86" stroke-miterlimit="10"></path><path d="M19.0781 20.4844C19.8548 20.4844 20.4844 19.8548 20.4844 19.0781C20.4844 18.3015 19.8548 17.6719 19.0781 17.6719C18.3015 17.6719 17.6719 18.3015 17.6719 19.0781C17.6719 19.8548 18.3015 20.4844 19.0781 20.4844Z" stroke="#401C86" stroke-miterlimit="10"></path><path d="M12 14.1094C13.165 14.1094 14.1094 13.165 14.1094 12C14.1094 10.835 13.165 9.89062 12 9.89062C10.835 9.89062 9.89062 10.835 9.89062 12C9.89062 13.165 10.835 14.1094 12 14.1094Z" stroke="#401C86" stroke-miterlimit="10"></path><path d="M6.375 21.2812C7.53998 21.2812 8.48438 20.3369 8.48438 19.1719C8.48438 18.0069 7.53998 17.0625 6.375 17.0625C5.21002 17.0625 4.26562 18.0069 4.26562 19.1719C4.26562 20.3369 5.21002 21.2812 6.375 21.2812Z" stroke="#401C86" stroke-miterlimit="10"></path><path d="M17.625 6.9375C18.79 6.9375 19.7344 5.9931 19.7344 4.82812C19.7344 3.66315 18.79 2.71875 17.625 2.71875C16.46 2.71875 15.5156 3.66315 15.5156 4.82812C15.5156 5.9931 16.46 6.9375 17.625 6.9375Z" stroke="#401C86" stroke-miterlimit="10"></path></g><defs><clipPath id="clip0_6248_10034"><rect width="24" height="24" fill="white"></rect></clipPath></defs></svg> 