<?xml version="1.0" encoding="UTF-8"?> <svg xmlns="http://www.w3.org/2000/svg" width="25" height="25" viewBox="0 0 25 25" fill="none"><g clip-path="url(#clip0_6273_18829)"><mask id="mask0_6273_18829" style="mask-type:luminance" maskUnits="userSpaceOnUse" x="0" y="0" width="25" height="25"><path d="M0.333008 0.332033H24.333V24.332H0.333008V0.332033Z" fill="white"></path></mask><g mask="url(#mask0_6273_18829)"><path d="M14.8963 3.80078H0.958008" stroke="#401C86" stroke-miterlimit="10" stroke-linecap="round" stroke-linejoin="round"></path><path d="M0.958008 20.8633H10.6474" stroke="#401C86" stroke-miterlimit="10" stroke-linecap="round" stroke-linejoin="round"></path></g><mask id="mask1_6273_18829" style="mask-type:luminance" maskUnits="userSpaceOnUse" x="0" y="0" width="25" height="25"><path d="M0.333008 0.332033H24.333V24.332H0.333008V0.332033Z" fill="white"></path></mask><g mask="url(#mask1_6273_18829)"><path d="M0.801758 14.4414V22.3633C0.801758 23.1917 1.47334 23.8633 2.30176 23.8633H13.5518C14.0695 23.8633 14.5261 23.601 14.7956 23.202" stroke="#401C86" stroke-miterlimit="10" stroke-linecap="round" stroke-linejoin="round"></path><path d="M15.0518 11.0835V2.30232C15.0518 1.47389 14.3802 0.802317 13.5518 0.802317H2.30176C1.47334 0.802317 0.801758 1.47389 0.801758 2.30232V14.6445" stroke="#401C86" stroke-miterlimit="10" stroke-linecap="round" stroke-linejoin="round"></path><path d="M17.1078 10.4159C16.636 10.8877 16.636 11.6527 17.1078 12.1244L16.4283 11.4449C15.9565 10.9732 15.1915 10.9732 14.7197 11.4449C14.2479 11.9168 14.2479 12.6818 14.7197 13.1536C14.2479 12.6818 13.4829 12.6818 13.0111 13.1536C12.5393 13.6254 12.5393 14.3904 13.0111 14.8622L9.23533 11.0865C8.76353 10.6147 7.99853 10.6147 7.52673 11.0865C7.05489 11.5583 7.05489 12.3233 7.52673 12.7951L10.7508 16.0192L14.9339 20.2023L12.2117 19.5418C11.5425 19.3794 10.866 19.7808 10.6877 20.446C10.5159 21.0875 10.868 21.7529 11.4952 21.9716L15.9706 23.532C18.1225 24.2823 20.5139 23.7351 22.1253 22.1237C24.4446 19.8044 24.4446 16.044 22.1253 13.7247L18.8165 10.4159C18.3446 9.94401 17.5796 9.94401 17.1078 10.4159Z" stroke="#401C86" stroke-miterlimit="10" stroke-linecap="round" stroke-linejoin="round"></path><path d="M13.0107 14.8621L15.3323 17.1836" stroke="#401C86" stroke-miterlimit="10" stroke-linecap="round" stroke-linejoin="round"></path><path d="M14.7197 13.1555L17.1619 15.5977" stroke="#401C86" stroke-miterlimit="10" stroke-linecap="round" stroke-linejoin="round"></path><path d="M17.1074 12.1251L18.8925 13.9102" stroke="#401C86" stroke-miterlimit="10" stroke-linecap="round" stroke-linejoin="round"></path><path d="M5.0625 7.63672C6.79791 5.90136 9.61158 5.90136 11.347 7.63672" stroke="#401C86" stroke-miterlimit="10" stroke-linecap="round" stroke-linejoin="round"></path><path d="M6.61133 9.18359C7.49117 8.30375 8.91762 8.30375 9.79742 9.18359" stroke="#401C86" stroke-miterlimit="10" stroke-linecap="round" stroke-linejoin="round"></path></g></g><defs><clipPath id="clip0_6273_18829"><rect width="24" height="24" fill="white" transform="translate(0.333008 0.332031)"></rect></clipPath></defs></svg> 