<?xml version="1.0" encoding="UTF-8"?> <svg xmlns="http://www.w3.org/2000/svg" width="24" height="24" viewBox="0 0 24 24" fill="none"><g clip-path="url(#clip0_6255_5696)"><g clip-path="url(#clip1_6255_5696)"><mask id="mask0_6255_5696" style="mask-type:luminance" maskUnits="userSpaceOnUse" x="0" y="0" width="24" height="24"><path d="M0 1.90735e-06H24V24H0V1.90735e-06Z" fill="white"></path></mask><g mask="url(#mask0_6255_5696)"><path d="M15.0842 17.7358C14.9409 18.1576 14.8594 18.6077 14.8594 19.0781C14.8594 21.408 16.7482 23.2969 19.0781 23.2969C21.4081 23.2969 23.2969 21.408 23.2969 19.0781C23.2969 16.7482 21.4081 14.8594 19.0781 14.8594C18.6078 14.8594 18.1577 14.9409 17.7359 15.0842L8.90739 6.25571C9.3991 4.78711 9.0714 3.10514 7.90178 1.93556C6.60348 0.63722 4.6711 0.366657 3.10332 1.11455L5.5816 3.59283L3.59289 5.58159L1.11456 3.10331C0.366666 4.67109 0.637276 6.60347 1.93557 7.90177C3.10515 9.07134 4.78707 9.39905 6.25571 8.90738L15.0842 17.7358Z" stroke="#401C86" stroke-width="0.7" stroke-miterlimit="10" stroke-linecap="round" stroke-linejoin="round"></path><path d="M9.34835 12L6.25563 15.0927C4.78704 14.6009 3.10516 14.9287 1.93554 16.0982C0.637243 17.3965 0.36668 19.3289 1.11457 20.8967L3.59285 18.4184L5.58162 20.4072L3.10329 22.8854C4.67112 23.6333 6.60345 23.3627 7.90179 22.0644C9.07137 20.8949 9.39907 19.2129 8.90735 17.7443L12 14.6516" stroke="#401C86" stroke-width="0.7" stroke-miterlimit="10" stroke-linecap="round" stroke-linejoin="round"></path><path d="M14.6516 12L17.7443 8.90733C19.2129 9.39909 20.8948 9.07134 22.0644 7.90177C23.3627 6.60347 23.6333 4.67109 22.8854 3.10331L20.4071 5.58159L18.4184 3.59283L20.8967 1.11455C19.3289 0.366609 17.3965 0.637266 16.0981 1.93556C14.9286 3.10514 14.6009 4.78711 15.0926 6.2557L12 9.34837" stroke="#401C86" stroke-width="0.7" stroke-miterlimit="10" stroke-linecap="round" stroke-linejoin="round"></path><path d="M20.4844 19.0781C20.4844 19.4511 20.3362 19.8088 20.0725 20.0725V20.0725C19.8088 20.3362 19.4511 20.4844 19.0781 20.4844V20.4844C18.7052 20.4844 18.3475 20.3362 18.0838 20.0725V20.0725C17.8201 19.8088 17.6719 19.4511 17.6719 19.0781V19.0781C17.6719 18.7051 17.82 18.3474 18.0838 18.0837V18.0837C18.3475 17.82 18.7052 17.6719 19.0781 17.6719V17.6719C19.4511 17.6719 19.8088 17.82 20.0725 18.0837V18.0837C20.3362 18.3474 20.4844 18.7051 20.4844 19.0781V19.0781Z" stroke="#401C86" stroke-width="0.7" stroke-miterlimit="10" stroke-linecap="round" stroke-linejoin="round"></path></g></g></g><defs><clipPath id="clip0_6255_5696"><rect width="24" height="24" fill="white"></rect></clipPath><clipPath id="clip1_6255_5696"><rect width="24" height="24" fill="white"></rect></clipPath></defs></svg> 