<?xml version="1.0" encoding="UTF-8"?> <svg xmlns="http://www.w3.org/2000/svg" width="24" height="24" viewBox="0 0 24 24" fill="none"><path d="M8.65927 8.68181H0.703125V3.07031H8.65927" stroke="#401C86" stroke-miterlimit="10" stroke-linecap="round" stroke-linejoin="round"></path><path d="M5.36426 1.74609V10.0042" stroke="#401C86" stroke-miterlimit="10" stroke-linecap="round" stroke-linejoin="round"></path><path d="M12.5199 1.65625H8.65918V10.096H12.5199V1.65625Z" stroke="#401C86" stroke-miterlimit="10" stroke-linecap="round" stroke-linejoin="round"></path><path d="M22.0494 14.8013V12.3135C22.0494 7.53867 18.1787 3.66797 13.4039 3.66797H12.5205" stroke="#401C86" stroke-miterlimit="10" stroke-linecap="round" stroke-linejoin="round"></path><path d="M17.0604 14.5957V11.7626C17.0604 9.69319 15.3828 8.01562 13.3134 8.01562H12.5205" stroke="#401C86" stroke-miterlimit="10" stroke-linecap="round" stroke-linejoin="round"></path><path d="M0.703125 18.9917C1.55166 18.9917 2.33409 18.7095 2.9625 18.2344C3.59091 18.7095 4.37334 18.9917 5.22188 18.9917C6.07041 18.9917 6.85284 18.7095 7.48125 18.2344C8.10966 18.7095 8.89209 18.9917 9.74063 18.9917C10.5892 18.9917 11.3716 18.7095 12 18.2344C12.6284 18.7095 13.4108 18.9917 14.2594 18.9917C15.1079 18.9917 15.8903 18.7095 16.5187 18.2344C17.1472 18.7095 17.9296 18.9917 18.7781 18.9917C19.6267 18.9917 20.4091 18.7095 21.0375 18.2344C21.6659 18.7095 22.4483 18.9917 23.2969 18.9917" stroke="#401C86" stroke-miterlimit="10" stroke-linecap="round" stroke-linejoin="round"></path><path d="M2.9625 14.2539C3.59091 14.7291 4.37334 15.0112 5.22188 15.0112C6.07041 15.0112 6.85284 14.729 7.48125 14.2539C8.10966 14.7291 8.89209 15.0112 9.74063 15.0112C10.5892 15.0112 11.3716 14.729 12 14.2539C12.6284 14.7291 13.4108 15.0112 14.2594 15.0112C15.1079 15.0112 15.8903 14.729 16.5187 14.2539C17.1472 14.7291 17.9296 15.0112 18.7781 15.0112C19.6267 15.0112 20.4091 14.729 21.0375 14.2539C21.6659 14.7291 22.4483 15.0112 23.2969 15.0112V22.3406H0.703125V15.0112C1.55166 15.0112 2.33409 14.729 2.9625 14.2539Z" stroke="#401C86" stroke-miterlimit="10" stroke-linecap="round" stroke-linejoin="round"></path></svg> 