<?xml version="1.0" encoding="UTF-8"?> <svg xmlns="http://www.w3.org/2000/svg" width="25" height="25" viewBox="0 0 25 25" fill="none"><g clip-path="url(#clip0_6248_10088)"><mask id="mask0_6248_10088" style="mask-type:luminance" maskUnits="userSpaceOnUse" x="0" y="0" width="25" height="25"><path d="M24.334 0.335938H0.333984V24.3359H24.334V0.335938Z" fill="white"></path></mask><g mask="url(#mask0_6248_10088)"><mask id="mask1_6248_10088" style="mask-type:luminance" maskUnits="userSpaceOnUse" x="0" y="0" width="25" height="25"><path d="M0.334961 0.339846H24.335V24.3398H0.334961V0.339846Z" fill="white"></path></mask><g mask="url(#mask1_6248_10088)"><path d="M7.47949 11.7578C9.12429 10.113 9.12429 7.43641 7.47949 5.79161" stroke="#401C86" stroke-miterlimit="10" stroke-linecap="round" stroke-linejoin="round"></path><path d="M9.46875 13.75C12.2101 11.0087 12.2101 6.54766 9.46875 3.80631" stroke="#401C86" stroke-miterlimit="10" stroke-linecap="round" stroke-linejoin="round"></path><path d="M5.49121 9.76953C6.0404 9.22034 6.0404 8.32995 5.49121 7.78081" stroke="#401C86" stroke-miterlimit="10" stroke-linecap="round" stroke-linejoin="round"></path><path d="M11.9131 17.0742H23.6318" stroke="#401C86" stroke-miterlimit="10" stroke-linecap="round" stroke-linejoin="round"></path><path d="M19.8818 20.8242H20.8193" stroke="#401C86" stroke-miterlimit="10" stroke-linecap="round" stroke-linejoin="round"></path><path d="M11.9131 15.668V22.2305C11.9131 23.0071 12.5427 23.6367 13.3193 23.6367H22.2256C23.0023 23.6367 23.6318 23.0071 23.6318 22.2305V15.668C23.6318 14.8913 23.0023 14.2617 22.2256 14.2617H13.3193C12.5427 14.2617 11.9131 14.8913 11.9131 15.668Z" stroke="#401C86" stroke-miterlimit="10" stroke-linecap="round" stroke-linejoin="round"></path><path d="M15.025 14.2617C16.5192 12.8609 17.4443 10.921 17.4443 8.77734C17.4443 4.50577 13.7717 1.04297 9.24121 1.04297C4.7107 1.04297 1.03809 4.50577 1.03809 8.77734C1.03809 13.0489 4.7107 16.5117 9.24121 16.5117C10.1767 16.5117 11.0755 16.3637 11.9131 16.0918" stroke="#401C86" stroke-miterlimit="10" stroke-linecap="round" stroke-linejoin="round"></path></g></g></g><defs><clipPath id="clip0_6248_10088"><rect width="24" height="24" fill="white" transform="translate(0.333008 0.332031)"></rect></clipPath></defs></svg> 