<?xml version="1.0" encoding="UTF-8"?> <svg xmlns="http://www.w3.org/2000/svg" width="306" height="87" viewBox="0 0 306 87" fill="none"><path d="M44.5453 83.742C44.1624 83.4901 43.962 83.1243 43.9442 82.6446L43.9324 82.3249C43.9146 81.8452 43.9768 81.3624 44.1189 80.8765L47.8611 65.1985L48.2727 63.341C46.5179 63.5163 45.2162 63.6739 44.3675 63.8138L42.2151 64.058C41.5242 64.1384 40.3015 64.2662 38.5467 64.4415C36.8453 64.6147 35.3018 64.7284 33.9162 64.7825C31.145 64.8907 28.5267 64.8062 26.0615 64.5289L25.8216 64.5383C25.3953 64.5549 25.0282 64.7294 24.7203 65.0617C22.8827 67.3218 20.071 70.6607 16.2853 75.0785C16.2853 75.0785 16.2596 75.1062 16.2083 75.1616C15.8037 75.7645 15.3882 76.0743 14.9618 76.0909C14.7487 76.0993 14.5325 76.0277 14.3135 75.8761C14.0411 75.7266 13.898 75.4653 13.8841 75.0923C13.8723 74.7725 14.0697 74.3378 14.4763 73.7881L17.0817 70.6441L18.3844 69.072L22.5264 64.1866C22.0961 64.0967 21.7201 64.0313 21.3983 63.9905C21.1279 63.8943 20.8851 63.8237 20.67 63.7788C16.6888 62.9202 12.984 61.5971 9.55548 59.8096C7.65075 58.8165 5.97893 57.6275 4.54002 56.2427C2.87609 54.5463 2.00761 52.7122 1.93456 50.7402C1.87731 49.1946 2.35101 47.5748 3.35566 45.881C5.22484 43.0325 7.86281 40.7679 11.2696 39.0869C13.9954 37.7529 17.2423 36.7987 21.0103 36.2245C22.4966 36.0064 24.0124 35.8671 25.5579 35.8067C28.3291 35.6985 31.0856 35.911 33.8272 36.4444C36.4069 36.9308 38.7587 37.7463 40.8826 38.8909C41.1017 39.0425 41.5369 39.2656 42.1882 39.5604L42.8692 38.493L63.8219 11.975L65.0476 10.4861C65.3595 10.2604 65.6487 10.1423 65.9151 10.1319C66.1816 10.1215 66.3967 10.1665 66.5606 10.2668C67.1053 10.5658 67.3096 11.0382 67.1734 11.684C67.1853 12.0038 67.0925 12.381 66.8951 12.8157C65.1819 16.9924 63.6039 21.2172 62.1611 25.4901C60.7715 29.761 59.0751 35.1112 57.0717 41.541C56.9336 42.1335 56.5299 43.4836 55.8608 45.5913L53.2939 54.098C53.0985 54.586 53.0107 55.0965 53.0305 55.6294C53.0443 56.0025 53.0808 56.268 53.14 56.4258C53.3196 56.9525 53.4499 57.5879 53.5308 58.332C53.6651 59.074 53.7943 59.6827 53.9187 60.1582C57.0432 59.5024 59.1295 58.9139 60.1776 58.3926C61.2257 57.8713 61.8021 57.5819 61.9067 57.5244C62.5462 57.4994 62.8748 57.7268 62.8926 58.2064C62.9064 58.5795 62.785 58.9045 62.5284 59.1814C62.2205 59.5137 61.2524 60.0319 59.624 60.736C58.0489 61.438 56.6781 61.8918 55.5116 62.0975L54.0816 62.3936L53.9247 64.6414C53.9049 65.5495 53.8151 66.7273 53.6553 68.1746C53.0375 73.1091 51.423 77.789 48.8116 82.2143L48.2787 82.9557C47.6215 83.9421 46.9997 84.4467 46.4135 84.4696C45.9338 84.4884 45.3111 84.2458 44.5453 83.742ZM62.2705 17.6399L44.0742 40.7677L45.3236 42.08C46.7685 43.6247 47.7712 44.7598 48.3317 45.4851C48.837 46.1593 49.5456 47.2791 50.4576 48.8447L51.7396 51.0363L62.2705 17.6399ZM22.8402 61.8526C23.002 61.8997 23.2428 61.9169 23.5626 61.9044C24.2554 61.8774 24.8041 61.5624 25.2087 60.9595L39.8848 42.2124C40.0408 42.0995 40.2441 41.8247 40.4947 41.3879C38.5821 40.1817 36.5224 39.3281 34.3157 38.8272C31.6787 38.2363 28.9213 37.9971 26.0435 38.1095C23.8052 38.197 21.4149 38.5038 18.8727 39.0301C15.6396 39.6368 12.7194 40.765 10.112 42.4147C8.18357 43.6642 6.71409 45.056 5.70351 46.5899C4.74228 48.0152 4.28634 49.394 4.33569 50.7264C4.39294 52.272 5.13905 53.684 6.57402 54.9623C7.67738 55.9333 9.12813 56.9174 10.9263 57.9146C14.3568 59.7555 18.3281 61.0681 22.8402 61.8526ZM27.1747 62.1636C28.2524 62.4418 30.763 62.5038 34.7067 62.3498C37.5312 62.2395 40.3261 62.0502 43.0914 61.7821C45.8547 61.4606 47.8167 61.1171 48.9773 60.7515L50.2563 56.3783C50.353 56.1077 50.3935 55.7591 50.3777 55.3328C50.3599 54.8531 50.2928 54.4821 50.1763 54.2198C49.2052 51.0553 47.7426 48.3103 45.7885 45.9848C45.1194 45.2103 44.0367 44.0784 42.5406 42.589C36.8857 49.8552 31.7637 56.3801 27.1747 62.1636ZM46.2921 81.1919C47.727 79.588 48.9685 77.0843 50.0166 73.6808C51.0627 70.224 51.5393 67.2431 51.4465 64.7382C51.4288 64.2585 51.3528 63.6477 51.2186 62.9057C50.7073 63.5128 50.3363 64.3012 50.1053 65.2709C49.9257 66.1853 49.7896 66.8311 49.6968 67.2084C49.229 68.988 48.8333 70.5513 48.5096 71.8983L47.3224 76.5882L46.2921 81.1919ZM71.8845 61.8582C71.1404 61.9407 70.5206 61.7781 70.0252 61.3704C69.5811 60.9074 69.3719 60.3018 69.3975 59.5536C69.435 59.1251 69.5376 58.2938 69.7054 57.0597C68.9119 57.2508 67.8905 57.771 66.6411 58.6204C66.5365 58.6779 66.0944 58.9887 65.3147 59.5529L63.9913 60.5654C63.5768 60.9018 63.2097 61.0763 62.8899 61.0887C62.6767 61.0971 62.4063 61.0009 62.0787 60.8002C61.8023 60.5441 61.6573 60.2295 61.6434 59.8565C61.6375 59.6966 61.6799 59.4014 61.7707 58.9708L63.6626 53.8531C63.9508 52.9878 64.4462 52.6749 65.1489 52.9144C65.6857 53.0001 65.965 53.3362 65.9867 53.9224L65.8535 54.6482C65.7588 54.9721 65.6374 55.2971 65.4894 55.6231C65.3926 55.8938 65.2969 56.1911 65.2022 56.515L66.1496 56.1578C66.4634 55.9854 66.9618 55.7524 67.6448 55.4589C68.3257 55.112 68.9554 54.8206 69.5337 54.5845C69.6916 54.5249 69.9571 54.4879 70.3301 54.4733C70.9696 54.4483 71.4581 54.6694 71.7957 55.1366C72.1312 55.5505 72.2595 56.1326 72.1806 56.8829C72.1411 57.2581 72.0513 57.7152 71.9111 58.2545C71.8223 58.7383 71.7572 59.1411 71.7157 59.463C72.7244 59.3169 73.281 59.2151 73.3856 59.1576C75.7028 58.3198 78.4395 57.2789 81.5956 56.0348C82.4345 55.6284 82.9595 55.3944 83.1707 55.3327C83.2753 55.2753 83.4608 55.2413 83.7273 55.2309C84.0471 55.2184 84.3194 55.3679 84.5445 55.6794C84.6589 55.8884 84.7182 56.0462 84.7221 56.1528C84.732 56.4193 84.5297 56.7208 84.1152 57.0572C83.4915 57.5085 83.0217 57.7938 82.7059 57.9128C80.7084 58.7381 77.7102 59.9227 73.7113 61.4666C73.3422 61.5878 72.7333 61.7183 71.8845 61.8582ZM83.0222 62.3839C81.8399 62.1632 81.231 61.5732 81.1955 60.6139C81.1915 60.5073 81.2349 60.2387 81.3257 59.8082C82.433 56.5625 84.2331 54.0103 86.726 52.1516C87.1938 51.813 87.6408 51.6354 88.0672 51.6188C88.6534 51.5959 89.1686 51.816 89.6127 52.279C90.0548 52.6887 90.3144 53.2123 90.3914 53.8498L90.4032 54.1695C90.421 54.6492 90.2196 54.9773 89.7992 55.1539L89.4824 55.2463C89.1627 55.2588 88.8627 55.0837 88.5824 54.721C88.2448 54.2539 88.0761 54.0203 88.0761 54.0203C86.0036 55.7024 84.3486 57.8487 83.111 60.459C83.5926 60.4935 84.1265 60.4994 84.7128 60.4765C85.7707 60.2216 86.5889 59.9762 87.1672 59.7401C90.0667 58.7729 92.8725 57.4356 95.5844 55.7285C95.6891 55.671 95.845 55.5582 96.0522 55.39C96.3128 55.2197 96.5486 55.1037 96.7598 55.0421L96.9197 55.0358C97.2928 55.0213 97.5642 55.1441 97.7339 55.4043C97.7892 55.4556 97.8188 55.5345 97.8227 55.6411C97.8306 55.8542 97.7596 56.0972 97.6096 56.3699C97.5109 56.5873 97.2257 56.8119 96.7539 57.0438C93.6314 59.194 90.1447 60.8781 86.2938 62.096C85.449 62.3425 84.7868 62.4751 84.3072 62.4938C83.9874 62.5063 83.5591 62.4697 83.0222 62.3839ZM91.8112 66.3639C91.5348 66.1078 91.3858 65.6866 91.3641 65.1004L91.3611 65.0204C91.3532 64.8072 91.45 64.5366 91.6513 64.2085C94.987 57.7267 99.3668 48.4553 104.791 36.3944L106.271 33.1342L107.307 30.852C107.505 30.4173 107.681 30.1435 107.837 30.0307C108.362 29.7967 108.786 29.7001 109.107 29.7409C109.378 29.8371 109.571 30.0163 109.688 30.2787C109.855 30.4856 109.891 30.7244 109.794 30.995C109.7 31.319 109.583 31.7772 109.445 32.3697C109.305 32.9089 109.136 33.3959 108.939 33.8306C108.741 34.2653 108.461 34.6232 108.098 34.9042C107.942 35.0171 107.765 35.2908 107.568 35.7255L99.275 53.9031L99.2129 54.3858L100.767 53.1242C101.128 52.7899 101.522 52.6144 101.949 52.5977C102.162 52.5894 102.404 52.66 102.677 52.8094C103.113 53.0593 103.34 53.424 103.358 53.9037C103.366 54.1169 103.322 54.3854 103.228 54.7094C103.04 55.4106 102.706 56.4644 102.224 57.871C101.882 58.7383 101.725 59.5184 101.75 60.2112C102.382 59.9731 102.855 59.7678 103.168 59.5954L106.751 56.8935C108.409 55.5478 109.316 54.8185 109.472 54.7056C109.728 54.4288 110.016 54.2841 110.336 54.2716C110.549 54.2632 110.767 54.3615 110.988 54.5664C111.155 54.7733 111.243 54.9834 111.251 55.1966C111.263 55.5163 111.114 55.8157 110.804 56.0947C108.076 58.8166 105.719 60.7234 103.731 61.8151C103.052 62.2153 102.394 62.4545 101.756 62.5328C101.598 62.5923 101.359 62.6283 101.04 62.6408C99.8139 62.6887 99.1774 62.0731 99.13 60.7939C99.1182 60.4742 99.1359 60.2333 99.1833 60.0713C99.2721 59.5875 99.3886 59.1293 99.5326 58.6966C99.6747 58.2107 99.7912 57.7525 99.882 57.322C99.3649 57.7691 99.056 58.0748 98.9553 58.2388L93.8511 65.2434C93.4978 65.7909 93.2688 66.0934 93.1642 66.1509C92.9589 66.3724 92.7507 66.514 92.5395 66.5756C92.273 66.586 92.0303 66.5154 91.8112 66.3639ZM108.001 60.4474C107.614 60.0889 107.412 59.6698 107.394 59.1902C107.378 58.7638 107.443 58.3609 107.589 57.9816C108.353 55.55 109.718 53.4951 111.684 51.8171C112.047 51.5361 112.464 51.2796 112.936 51.0476C113.408 50.8157 113.857 50.6914 114.283 50.6748C115.029 50.6456 115.792 51.0695 116.572 51.9464C116.904 52.2537 117.124 52.4319 117.232 52.481C117.548 52.362 117.912 52.1075 118.325 51.7178C118.534 51.6029 118.718 51.5423 118.878 51.5361C119.145 51.5257 119.389 51.6229 119.61 51.8277C119.831 52.0326 119.945 52.2416 119.953 52.4548C119.959 52.6147 119.915 52.8566 119.82 53.1806L118.831 54.5802C118.17 55.46 117.574 56.6576 117.043 58.1728C117.252 58.0578 117.462 57.9696 117.673 57.9079C117.883 57.793 118.091 57.6515 118.298 57.4832L120.317 55.8031C121.924 54.5128 123.165 53.4502 124.042 52.6153C124.298 52.3384 124.479 52.1713 124.584 52.1138C124.688 52.0564 124.847 52.0235 125.06 52.0151C125.487 51.9985 125.731 52.1223 125.795 52.3868C125.909 52.5958 125.89 52.81 125.738 53.0294C125.438 53.5749 125.211 53.9307 125.057 54.0968C123.717 55.3768 122.737 56.2957 122.117 56.8537C120.718 57.9758 119.758 58.7072 119.237 59.0478C118.877 59.4354 118.327 59.6971 117.585 59.8329C117.427 59.8924 117.214 59.9274 116.948 59.9378C116.468 59.9565 116.063 59.8123 115.731 59.505C115.453 59.1956 115.303 58.7478 115.281 58.1615C115.368 57.6244 115.405 57.1959 115.394 56.8761C115.028 57.1039 114.639 57.386 114.224 57.7224C112.716 58.7955 111.44 59.6459 110.396 60.2738C109.768 60.6186 109.295 60.7972 108.975 60.8097C108.602 60.8243 108.277 60.7035 108.001 60.4474ZM110.073 58.0447C110.967 57.6895 111.985 57.0627 113.126 56.1641C114.32 55.2635 115.146 54.5107 115.604 53.9057C115.205 53.2274 114.819 52.8955 114.446 52.9101C114.126 52.9226 113.812 53.0683 113.502 53.3473C112.722 53.9115 112.08 54.5771 111.574 55.3441C111.069 56.111 110.569 57.0113 110.073 58.0447ZM128.46 61.7298C127.931 61.8572 127.533 61.9261 127.267 61.9366C125.934 61.9886 124.825 61.5783 123.939 60.7055C123.106 59.8307 122.716 58.6717 122.769 57.2285L122.287 55.0057L122.195 54.689C122.185 54.4225 122.385 54.0678 122.796 53.6247C123.258 53.1263 123.637 52.5511 123.933 51.8991C126.24 46.4715 129.262 41.6032 132.998 37.2941C133.819 36.408 134.695 35.5465 135.624 34.7096C136.039 34.3732 136.486 34.1956 136.966 34.1769C137.232 34.1665 137.528 34.235 137.854 34.3824C138.399 34.6813 138.684 35.1772 138.709 35.8701C138.719 36.1366 138.701 36.3508 138.653 36.5128C138.424 37.5358 138.138 38.4544 137.795 39.2684C135.807 43.2423 133.04 47.0599 129.493 50.7211L126.014 54.0595C125.653 54.3938 125.35 54.8593 125.105 55.456C124.914 56.0506 124.83 56.6677 124.854 57.3072C124.875 57.8935 125 58.369 125.227 58.7337C125.681 59.4632 126.306 59.7857 127.104 59.7012C128.057 59.5038 129.007 59.2265 129.955 58.8693C131.792 58.0503 133.554 56.6204 135.24 54.5797C135.804 53.9706 136.139 53.6373 136.243 53.5798C136.346 53.469 136.504 53.4095 136.717 53.4012C136.983 53.3908 137.172 53.4368 137.283 53.5392C137.45 53.7462 137.543 54.0895 137.561 54.5691C137.565 54.6757 137.466 54.8931 137.265 55.2212C134.991 58.6726 132.056 60.8421 128.46 61.7298ZM127.989 49.0185C129.39 47.9497 131.027 46.0443 132.901 43.3025C134.825 40.5052 135.899 38.5151 136.122 37.3322C134.977 38.1242 133.391 39.9741 131.364 42.8821C129.388 45.7348 128.263 47.7802 127.989 49.0185ZM189.544 66.7894C188.744 66.8206 188.157 66.8168 187.782 66.7781C187.569 66.7864 187.247 66.7456 186.817 66.6557C186.385 66.5125 186.031 66.3394 185.757 66.1367C185.483 65.9339 185.311 65.6204 185.242 65.1961L185.236 65.0362C185.214 64.4499 185.648 63.9259 186.539 63.4641C186.799 63.2938 187.088 63.1758 187.406 63.11C188.837 62.8406 189.818 62.6688 190.349 62.5947L190.988 62.5698C191.468 62.551 191.792 62.6451 191.96 62.8521C192.125 63.0057 192.302 63.4525 192.49 64.1924L197.253 63.1256C202.492 61.9069 206.818 60.5637 210.233 59.0959C211.285 58.6812 212.596 58.0429 214.165 57.181C214.532 57.0065 214.973 56.6691 215.488 56.1686C215.153 55.7547 214.743 55.5038 214.26 55.416C213.827 55.2727 213.557 55.1765 213.448 55.1274C212.319 54.9046 211.566 54.7472 211.189 54.6552C208.769 54.1626 206.728 53.7887 205.064 53.5335C201.791 53.0742 198.472 52.8035 195.107 52.7215C191.739 52.5862 187.788 52.527 183.252 52.5441L176.448 52.5697C174.208 52.6038 170.846 52.6017 166.361 52.5634C164.707 52.5747 162.699 52.3862 160.336 51.9982C159.045 51.7284 157.882 51.2934 156.846 50.6934C155.373 49.8436 154.609 48.6725 154.554 47.1802C154.53 46.5407 154.614 45.9236 154.806 45.329C155.337 43.8138 156.118 42.5823 157.15 41.6347C159.16 39.6881 160.865 38.1804 162.267 37.1115C166.785 33.7326 172.515 30.6799 179.459 27.9535C187.718 24.6953 195.737 22.9143 203.518 22.6103C207.408 22.4583 210.727 22.729 213.475 23.4223C214.608 23.7516 216.07 24.335 217.863 25.1723C218.893 25.6125 219.668 26.3561 220.187 27.4033C220.416 27.8214 220.541 28.3235 220.563 28.9098C220.604 30.029 220.104 30.9292 219.062 31.6104C218.592 31.8956 218.147 32.1265 217.726 32.3031C217.622 32.3605 217.463 32.3934 217.25 32.4018C216.823 32.4184 216.498 32.271 216.273 31.9596C216.103 31.6993 216.014 31.4626 216.006 31.2494C215.998 31.0362 216.095 30.7656 216.296 30.4375C216.553 30.1606 216.785 29.938 216.992 29.7698C217.197 29.5483 217.377 29.3545 217.531 29.1883C217.401 28.5529 216.901 28.0387 216.033 27.6456C215.654 27.5003 215.005 27.2855 214.088 27.0011C213.221 26.6613 212.411 26.3994 211.657 26.2154C209.237 25.7228 206.535 25.5348 203.551 25.6514C202.538 25.6909 201.021 25.8035 199 25.9892C188.373 27.2583 178.045 30.8375 168.016 36.7268C164.777 38.6147 162.179 40.5042 160.221 42.3954C159.291 43.2323 158.448 44.2527 157.692 45.4564C157.341 46.0572 157.174 46.5975 157.192 47.0772C157.222 47.8766 157.778 48.4954 158.862 48.9334C160.374 49.4081 161.961 49.7464 163.623 49.9483C165.871 50.1274 168.409 50.215 171.238 50.2113L180.04 50.1076C183.987 50.0602 186.896 50.0533 188.765 50.0871C197.039 50.1375 204.591 50.8566 211.42 52.2444C212.711 52.5142 213.68 52.7432 214.328 52.9314C214.92 53.0684 215.462 53.2874 215.953 53.5885C217.256 54.1781 217.926 54.9792 217.963 55.9918C217.995 56.8446 217.517 57.6372 216.53 58.3696C215.285 59.3256 213.796 60.1844 212.063 60.9459C208.334 62.586 203.744 64.0196 198.293 65.2467C196.441 65.6926 193.765 66.1975 190.263 66.7612L189.544 66.7894ZM218.589 61.4115C218.313 61.1554 218.164 60.7343 218.142 60.148L218.139 60.0681C218.132 59.8549 218.228 59.5842 218.43 59.2561C221.765 52.7743 226.145 43.503 231.569 31.4421L233.049 28.1818L234.086 25.8997C234.283 25.465 234.46 25.1912 234.616 25.0783C235.141 24.8443 235.564 24.7477 235.886 24.7885C236.156 24.8847 236.35 25.064 236.466 25.3263C236.634 25.5332 236.669 25.772 236.573 26.0427C236.478 26.3666 236.361 26.8249 236.223 27.4174C236.083 27.9566 235.914 28.4435 235.717 28.8782C235.52 29.3129 235.239 29.6708 234.876 29.9519C234.72 30.0647 234.544 30.3385 234.346 30.7732L226.053 48.9507L225.991 49.4335L227.546 48.1719C227.907 47.8375 228.3 47.662 228.727 47.6454C228.94 47.637 229.183 47.7076 229.455 47.8571C229.891 48.1069 230.118 48.4717 230.136 48.9513C230.144 49.1645 230.101 49.4331 230.006 49.757C229.818 50.4582 229.484 51.5121 229.002 52.9186C228.661 53.7859 228.503 54.566 228.529 55.2589C229.16 55.0207 229.633 54.8154 229.947 54.6431L233.529 51.9412C235.187 50.5954 236.094 49.8661 236.25 49.7533C236.507 49.4764 236.795 49.3317 237.115 49.3192C237.328 49.3109 237.545 49.4092 237.766 49.614C237.934 49.821 238.021 50.031 238.029 50.2442C238.041 50.564 237.892 50.8634 237.582 51.1423C234.855 53.8642 232.497 55.771 230.509 56.8628C229.83 57.2629 229.172 57.5021 228.534 57.5804C228.377 57.64 228.138 57.676 227.818 57.6885C226.592 57.7363 225.956 57.1207 225.908 55.8416C225.896 55.5218 225.914 55.2809 225.962 55.119C226.05 54.6351 226.167 54.1769 226.311 53.7443C226.453 53.2584 226.57 52.8001 226.66 52.3696C226.143 52.8168 225.834 53.1224 225.734 53.2865L220.629 60.291C220.276 60.8386 220.047 61.1411 219.943 61.1985C219.737 61.42 219.529 61.5616 219.318 61.6232C219.051 61.6337 218.809 61.5631 218.589 61.4115ZM234.779 55.4951C234.392 55.1366 234.19 54.7175 234.172 54.2378C234.156 53.8114 234.221 53.4086 234.367 53.0293C235.131 50.5976 236.496 48.5428 238.462 46.8648C238.825 46.5837 239.243 46.3272 239.714 46.0953C240.186 45.8634 240.635 45.7391 241.062 45.7224C241.808 45.6933 242.571 46.1172 243.35 46.9941C243.682 47.3013 243.902 47.4796 244.01 47.5287C244.326 47.4096 244.69 47.1552 245.103 46.7655C245.312 46.6505 245.497 46.59 245.657 46.5837C245.923 46.5733 246.167 46.6705 246.388 46.8754C246.609 47.0803 246.723 47.2893 246.731 47.5025C246.737 47.6624 246.693 47.9043 246.598 48.2282L245.609 49.6279C244.948 50.5077 244.352 51.7052 243.821 53.2204C244.03 53.1055 244.24 53.0172 244.452 52.9556C244.661 52.8407 244.869 52.6991 245.076 52.5309L247.096 50.8508C248.702 49.5604 249.944 48.4978 250.82 47.663C251.077 47.3861 251.257 47.2189 251.362 47.1615C251.467 47.104 251.625 47.0711 251.839 47.0628C252.265 47.0461 252.51 47.17 252.573 47.4344C252.687 47.6434 252.669 47.8577 252.517 48.0771C252.217 48.6225 251.99 48.9783 251.836 49.1445C250.495 50.4244 249.515 51.3434 248.896 51.9013C247.496 53.0235 246.536 53.7548 246.015 54.0954C245.656 54.4831 245.105 54.7448 244.363 54.8805C244.205 54.9401 243.993 54.975 243.726 54.9855C243.247 55.0042 242.841 54.8599 242.509 54.5526C242.231 54.2432 242.081 53.7954 242.059 53.2092C242.146 52.672 242.184 52.2436 242.172 51.9238C241.807 52.1516 241.417 52.4337 241.002 52.7701C239.494 53.8431 238.218 54.6936 237.174 55.3215C236.547 55.6662 236.073 55.8448 235.753 55.8573C235.38 55.8719 235.055 55.7512 234.779 55.4951ZM236.852 53.0924C237.746 52.7372 238.763 52.1103 239.904 51.2118C241.098 50.3112 241.924 49.5583 242.382 48.9533C241.983 48.275 241.597 47.9432 241.224 47.9578C240.905 47.9703 240.59 48.116 240.28 48.395C239.5 48.9592 238.858 49.6247 238.353 50.3917C237.847 51.1587 237.347 52.0589 236.852 53.0924ZM249.423 55.4034C248.774 55.1619 248.437 54.7214 248.414 54.0818C248.41 53.9752 248.476 53.599 248.612 52.9532L249.417 50.9202L250.516 48.1553C250.758 47.5053 250.982 47.0695 251.188 46.848C251.444 46.5711 251.732 46.4264 252.052 46.4139C252.532 46.3952 253.127 46.6121 253.838 47.0648C253.993 46.9519 254.176 46.838 254.385 46.7231C254.646 46.5528 254.934 46.4081 255.25 46.289C255.826 45.9997 256.353 45.8189 256.831 45.7469L257.23 45.7313C258.03 45.7001 258.521 46.0011 258.705 46.6344L258.717 46.9542C258.738 47.5405 258.328 47.9835 257.485 48.2833C254.651 49.5682 252.669 51.5404 251.54 54.1999C251.491 54.3085 251.441 54.4172 251.392 54.5259C251.343 54.6346 251.267 54.7443 251.164 54.855C250.655 55.5154 250.075 55.6982 249.423 55.4034ZM258.759 53.9179C258.378 53.7193 258.18 53.4068 258.164 52.9804C258.15 52.6073 258.242 52.2034 258.439 51.7687L260.793 46.1526L261.015 45.6635C261.214 45.2821 261.527 45.0831 261.953 45.0664C262.753 45.0352 263.168 45.446 263.2 46.2987C263.206 46.4586 263.185 46.6195 263.138 46.7815C263.09 46.9435 263.045 47.1588 263.002 47.4273L264.568 46.4855C264.986 46.2556 265.435 46.1313 265.915 46.1126C266.927 46.0731 267.618 46.7132 267.987 48.0332C267.989 48.0865 268.054 48.3775 268.18 48.9063C268.387 48.7381 268.62 48.5422 268.879 48.3186C269.137 48.095 269.371 47.9258 269.58 47.8108C269.945 47.5831 270.518 47.1871 271.297 46.6229C272.077 46.0587 272.807 45.6032 273.488 45.2563C274.118 44.9649 274.593 44.8129 274.912 44.8004C275.552 44.7754 276.067 44.9955 276.458 45.4606C276.849 45.9257 277.087 46.5836 277.172 47.4342C277.241 47.8585 277.291 48.497 277.323 49.3498C277.352 50.1492 277.74 50.5344 278.486 50.5053C279.868 50.3445 280.903 50.1973 281.592 50.0637C283.394 49.7264 285.339 48.9299 287.427 47.6741C287.532 47.6166 287.716 47.5294 287.978 47.4124C288.239 47.2421 288.475 47.1528 288.689 47.1445L288.849 47.1382C289.168 47.1257 289.413 47.2496 289.583 47.5098C289.693 47.6123 289.753 47.7701 289.76 47.9833C289.768 48.1964 289.722 48.3851 289.621 48.5491C289.42 48.8772 289.084 49.1839 288.615 49.4691C285.599 51.6151 282.279 52.7589 278.655 52.9005C277.429 52.9484 276.512 52.6906 275.904 52.1273C275.35 51.5618 275.022 50.6406 274.921 49.3635L274.841 47.205C273.843 47.6176 273.214 47.9358 272.955 48.1593C271.811 48.9513 270.67 49.8499 269.533 50.855C268.86 51.415 268.498 51.7227 268.446 51.7781C268.081 52.0059 267.712 52.127 267.339 52.1416C266.913 52.1583 266.561 52.0385 266.285 51.7825C266.007 51.4731 265.831 51.053 265.758 50.5221C265.689 50.0978 265.648 49.7258 265.637 49.406C265.678 49.0841 265.693 48.7633 265.681 48.4435C265.472 48.5584 265.185 48.7298 264.819 48.9575C264.508 49.1832 264.275 49.3791 264.121 49.5453L260.731 53.1203C260.32 53.5633 259.958 53.871 259.644 54.0434C259.382 54.1604 259.087 54.1186 258.759 53.9179ZM286.146 53.4885C285.759 53.13 285.557 52.7109 285.539 52.2313C285.523 51.8049 285.588 51.402 285.735 51.0227C286.498 48.5911 287.863 46.5362 289.829 44.8582C290.192 44.5771 290.61 44.3207 291.082 44.0887C291.553 43.8568 292.002 43.7325 292.429 43.7159C293.175 43.6867 293.938 44.1106 294.717 44.9875C295.049 45.2948 295.269 45.473 295.378 45.5221C295.693 45.4031 296.058 45.1486 296.47 44.7589C296.679 44.644 296.864 44.5834 297.024 44.5772C297.29 44.5668 297.534 44.664 297.755 44.8688C297.976 45.0737 298.091 45.2827 298.098 45.4959C298.104 45.6558 298.06 45.8977 297.965 46.2217L296.976 47.6213C296.315 48.5011 295.719 49.6986 295.188 51.2139C295.397 51.0989 295.608 51.0107 295.819 50.949C296.028 50.8341 296.236 50.6925 296.443 50.5243L298.463 48.8442C300.069 47.5539 301.311 46.4913 302.187 45.6564C302.444 45.3795 302.624 45.2124 302.729 45.1549C302.834 45.0974 302.992 45.0646 303.206 45.0562C303.632 45.0396 303.877 45.1634 303.94 45.4278C304.054 45.6369 304.036 45.8511 303.884 46.0705C303.584 46.616 303.357 46.9718 303.203 47.1379C301.862 48.4179 300.883 49.3368 300.263 49.8948C298.863 51.0169 297.903 51.7483 297.382 52.0889C297.023 52.4765 296.472 52.7382 295.73 52.874C295.572 52.9335 295.36 52.9685 295.093 52.9789C294.614 52.9976 294.208 52.8534 293.877 52.5461C293.598 52.2367 293.448 51.7889 293.426 51.2026C293.513 50.6655 293.551 50.237 293.539 49.9172C293.174 50.145 292.784 50.4271 292.369 50.7635C290.862 51.8365 289.585 52.687 288.541 53.3149C287.914 53.6597 287.44 53.8383 287.12 53.8508C286.747 53.8654 286.422 53.7446 286.146 53.4885ZM288.219 51.0858C289.113 50.7306 290.13 50.1038 291.271 49.2052C292.465 48.3046 293.291 47.5518 293.749 46.9468C293.35 46.2685 292.965 45.9366 292.592 45.9512C292.272 45.9637 291.957 46.1094 291.647 46.3884C290.867 46.9526 290.225 47.6182 289.72 48.3852C289.214 49.1521 288.714 50.0523 288.219 51.0858Z" fill="white"></path></svg> 